# Blender v2.93.1 OBJ File: ''
# www.blender.org
mtllib PYLON_CONCRETE_MODULAR_ARM01_DOUBLE.mtl
o PYLON_CONCRETE_MODULAR_ARM01_DOUBLE
v -0.207251 0.011600 -0.020997
v -0.207251 -0.015685 -0.020997
v 0.070270 0.011600 0.027204
v 0.070270 -0.015685 0.027204
v -0.252911 0.011600 -0.018928
v -0.252911 -0.015685 -0.018928
v 0.207251 0.011600 0.020997
v 0.207251 -0.015685 0.020997
v 0.252911 0.011600 0.018928
v 0.252911 -0.015685 0.018928
v 0.344232 0.011600 0.014790
v 0.344231 -0.015685 0.014790
v 0.481212 0.008170 0.008583
v 0.481212 0.008170 -0.008584
v 0.477784 0.011600 -0.008739
v 0.477784 0.011600 0.008739
v -0.070270 -0.015685 -0.027204
v -0.070270 0.011600 -0.027204
v 0.024610 0.008170 -0.058547
v 0.024610 -0.015685 -0.058547
v -0.024610 -0.015685 -0.058547
v -0.024610 0.008170 -0.058547
v -0.344232 0.011600 -0.014790
v -0.344231 -0.015685 -0.014790
v -0.070270 0.011600 0.027204
v -0.070270 -0.015685 0.027204
v -0.207251 -0.015685 0.020997
v -0.207251 0.011600 0.020997
v -0.252911 0.011600 0.018928
v -0.252911 -0.015685 0.018928
v -0.344231 -0.015685 0.014790
v -0.344232 0.011600 0.014790
v -0.481212 -0.015685 0.008583
v -0.481212 -0.015685 -0.008584
v 0.024610 -0.015685 0.029273
v 0.024610 -0.015685 0.058547
v -0.024610 -0.015685 0.058547
v -0.024610 -0.015685 0.029273
v 0.024610 0.011600 -0.029273
v 0.024610 0.011600 -0.055116
v -0.024610 0.011600 -0.055116
v -0.024610 0.011600 -0.029273
v 0.024610 -0.015685 -0.029273
v -0.024610 -0.015685 -0.029273
v 0.024610 0.011600 0.055116
v 0.024610 0.011600 0.029273
v -0.024610 0.011600 0.029273
v -0.024610 0.011600 0.055116
v 0.024610 0.008170 0.058547
v -0.024610 0.008170 0.058547
v 0.070270 0.011600 -0.027204
v 0.070270 -0.015685 -0.027204
v 0.207251 -0.015685 -0.020997
v 0.207251 0.011600 -0.020997
v 0.252911 0.011600 -0.018928
v 0.252911 -0.015685 -0.018928
v 0.344231 -0.015685 -0.014790
v 0.344232 0.011600 -0.014790
v -0.070270 -0.015685 -0.054408
v -0.207251 -0.015685 -0.041995
v 0.481212 -0.015685 -0.008584
v 0.481212 -0.015685 0.008583
v 0.070270 -0.015685 0.054408
v -0.481212 0.008170 0.008583
v -0.481212 0.008170 -0.008584
v 0.481212 -0.015685 0.017167
v 0.344232 -0.015685 0.029580
v -0.344232 -0.015685 -0.029581
v -0.481212 -0.015685 -0.017167
v 0.252911 -0.015685 0.037856
v 0.207251 -0.015685 0.041995
v -0.070270 0.011600 -0.050977
v -0.207251 0.011600 -0.038564
v 0.070270 0.008170 0.054408
v 0.481212 0.008170 0.017167
v 0.344232 0.008170 0.029580
v 0.252911 0.008170 0.037856
v 0.207251 0.008170 0.041995
v 0.070270 0.011600 0.050977
v -0.252911 -0.015685 -0.037856
v 0.477794 0.011600 0.014045
v 0.344232 0.011600 0.026149
v 0.252911 0.011600 -0.034426
v 0.207251 0.011600 -0.038564
v 0.252911 0.011600 0.034425
v 0.207251 0.011600 0.038564
v 0.344232 0.011600 -0.026150
v -0.070270 -0.015685 0.054408
v -0.477784 0.011600 -0.008739
v -0.477784 0.011600 0.008739
v -0.207251 0.008170 -0.041995
v -0.252911 0.008170 -0.037856
v -0.344232 0.008170 -0.029581
v -0.344232 -0.015685 0.029580
v -0.481212 -0.015685 0.017167
v -0.252911 -0.015685 0.037856
v -0.207251 -0.015685 0.041995
v -0.481212 0.008170 -0.017167
v -0.070270 0.008170 0.054408
v -0.252911 0.011600 -0.034426
v -0.207251 0.008170 0.041995
v -0.252911 0.008170 0.037856
v -0.344232 0.008170 0.029580
v -0.481212 0.008170 0.017167
v -0.070270 0.011600 0.050977
v -0.070270 0.008170 -0.054408
v -0.207251 0.011600 0.038564
v -0.252911 0.011600 0.034425
v -0.344232 0.011600 0.026149
v -0.477794 0.011600 0.014045
v -0.344232 0.011600 -0.026150
v 0.207251 -0.015685 -0.041995
v 0.070270 -0.015685 -0.054408
v 0.481212 -0.015685 -0.017167
v 0.344232 -0.015685 -0.029581
v 0.252911 -0.015685 -0.037856
v -0.477794 0.011600 -0.014046
v 0.070270 0.008170 -0.054408
v 0.207251 0.008170 -0.041995
v 0.481212 0.008170 -0.017167
v 0.344232 0.008170 -0.029581
v 0.252911 0.008170 -0.037856
v 0.070270 0.011600 -0.050977
v 0.477794 0.011600 -0.014046
vt 0.930224 0.180752
vt 0.930224 0.150017
vt 1.000000 0.150017
vt 1.000000 0.180752
vt 0.790672 0.341191
vt 0.790672 0.384824
vt 0.720897 0.384824
vt 0.720897 0.341191
vt 0.930224 0.284659
vt 0.930224 0.341192
vt 0.860448 0.341192
vt 0.860448 0.284659
vt 0.860448 0.284658
vt 0.790672 0.284658
vt 0.790672 0.142329
vt 0.860448 0.142329
vt 0.930224 0.211487
vt 0.930224 0.180752
vt 1.000000 0.180752
vt 1.000000 0.211487
vt 0.860448 0.000000
vt 0.930224 0.000001
vt 0.930224 0.094886
vt 0.860448 0.094886
vt 0.720897 0.341191
vt 0.720897 0.284658
vt 0.790672 0.284658
vt 0.790672 0.341191
vt 0.991228 0.141098
vt 0.991228 0.123261
vt 1.000000 0.123100
vt 1.000000 0.141260
vt 0.790672 0.000000
vt 0.860448 0.000000
vt 0.860448 0.142329
vt 0.790672 0.142329
vt 0.598888 0.474429
vt 0.659892 0.474429
vt 0.659892 0.525571
vt 0.598888 0.525571
vt 0.930224 0.189773
vt 0.860448 0.189773
vt 0.860448 0.094886
vt 0.930224 0.094887
vt 0.930224 0.039334
vt 0.930224 0.000000
vt 1.000000 0.000000
vt 1.000000 0.039334
vt 0.790672 0.142329
vt 0.720897 0.142329
vt 0.720897 0.000000
vt 0.790672 0.000000
vt 0.860448 0.379545
vt 0.790672 0.379545
vt 0.790672 0.284659
vt 0.860448 0.284658
vt 1.000000 0.039334
vt 1.000000 0.078668
vt 0.930224 0.078668
vt 0.930224 0.039334
vt 0.411343 0.857671
vt 0.486988 0.857671
vt 0.471115 1.000000
vt 0.427214 1.000000
vt 0.524026 0.474429
vt 0.598888 0.474429
vt 0.598888 0.525571
vt 0.524026 0.525571
vt 0.074862 0.525571
vt 0.008774 0.525571
vt 0.008774 0.474429
vt 0.074862 0.474429
vt 0.299444 0.474429
vt 0.374306 0.474429
vt 0.374306 0.525571
vt 0.299444 0.525571
vt 0.290670 0.525571
vt 0.224582 0.525571
vt 0.224582 0.474429
vt 0.290670 0.474429
vt 0.720897 0.525571
vt 0.659892 0.525571
vt 0.659892 0.474429
vt 0.720897 0.474429
vt 0.720897 0.142329
vt 0.790672 0.142329
vt 0.790672 0.284658
vt 0.720897 0.284658
vt 0.860448 0.189774
vt 0.930224 0.189773
vt 0.930224 0.284659
vt 0.860448 0.284659
vt 0.310029 0.573013
vt 0.379597 0.573013
vt 0.395470 0.715343
vt 0.341772 0.715343
vt 0.427214 0.000000
vt 0.471115 0.000000
vt 0.486988 0.142329
vt 0.411344 0.142329
vt 0.518735 0.426986
vt 0.588303 0.426986
vt 0.938996 0.105423
vt 0.938996 0.087586
vt 1.000000 0.087586
vt 1.000000 0.105423
vt 0.493067 0.000000
vt 0.524811 0.142328
vt 0.373519 0.857672
vt 0.405265 1.000000
vt 0.545975 0.237215
vt 0.497570 0.237215
vt 0.379597 0.426986
vt 0.556560 0.284657
vt 0.502861 0.284657
vt 0.127374 0.996438
vt 0.111900 0.857672
vt 0.187544 0.857672
vt 0.172070 0.996438
vt 0.080153 0.426986
vt 0.019359 0.426986
vt 0.051102 0.284657
vt 0.096026 0.284657
vt 0.720897 0.573013
vt 0.659892 0.573013
vt 0.198126 0.762785
vt 0.101317 0.762785
vt 0.096026 0.715343
vt 0.203417 0.715343
vt 0.720896 1.000000
vt 0.659892 1.000000
vt 0.659892 0.857672
vt 0.720896 0.857672
vt 0.720897 0.762785
vt 0.659892 0.762785
vt 0.659892 0.715343
vt 0.720897 0.715343
vt 0.991228 0.150017
vt 0.930224 0.150017
vt 0.930224 0.141098
vt 0.518735 0.573013
vt 0.280085 0.573013
vt 0.219291 0.573013
vt 0.400761 0.762785
vt 0.352357 0.762785
vt 0.219291 0.426986
vt 0.185639 0.996449
vt 0.216593 0.857672
vt 0.061684 0.762785
vt 0.051102 0.715343
vt 0.237757 0.762785
vt 0.248341 0.715343
vt 0.400761 0.237215
vt 0.395470 0.284657
vt 0.082849 0.857672
vt 0.930224 0.123261
vt 0.588303 0.573013
vt 0.187544 0.142328
vt 0.111900 0.142328
vt 0.127374 0.003562
vt 0.172070 0.003562
vt 0.598888 0.715343
vt 0.659892 0.715343
vt 0.659892 0.762785
vt 0.598888 0.762785
vt 0.659892 0.857672
vt 0.598888 0.857672
vt 0.524811 0.857672
vt 0.493067 1.000000
vt 0.502861 0.715343
vt 0.497570 0.762785
vt 0.545975 0.762785
vt 0.556560 0.715343
vt 0.938996 0.078668
vt 1.000000 0.078668
vt 0.659892 0.426986
vt 0.720897 0.426986
vt 0.061685 0.237215
vt 0.101318 0.237215
vt 0.720897 0.284657
vt 0.659892 0.284657
vt 0.659892 0.237215
vt 0.720897 0.237215
vt 0.659892 0.142328
vt 0.720897 0.142328
vt 0.938996 0.114343
vt 1.000000 0.114343
vt 0.280085 0.426986
vt 0.659892 1.000000
vt 0.598888 1.000000
vt 0.659892 0.573013
vt 0.598888 0.573013
vt 0.248342 0.284657
vt 0.203418 0.284657
vt 0.198126 0.237215
vt 0.237757 0.237215
vt 0.216593 0.142328
vt 0.659892 0.000000
vt 0.720897 0.000000
vt 0.185639 0.003551
vt 0.082849 0.142328
vt 0.341772 0.284657
vt 0.310029 0.426986
vt 0.405265 0.000000
vt 0.373519 0.142328
vt 0.352357 0.237215
vt 0.113802 0.003551
vt 0.598888 0.426986
vt 0.659892 0.426986
vt 0.598888 0.284657
vt 0.659892 0.284657
vt 0.598888 0.000000
vt 0.659892 0.000000
vt 0.659892 0.142328
vt 0.598888 0.142328
vt 0.659892 0.237215
vt 0.598888 0.237215
vt 0.991228 0.114343
vt 0.930224 0.114343
vt 0.080153 0.573013
vt 0.019359 0.573013
vt 0.113802 0.996449
vt 0.074075 0.857672
vt 0.052913 0.762785
vt 1.000000 0.117585
vt 0.010585 0.573013
vt 0.000000 0.525571
vt 0.930224 0.105585
vt 0.930224 0.087425
vt 0.193623 1.000000
vt 0.225367 0.857672
vt 0.246531 0.762785
vt 0.257116 0.715343
vt 0.288859 0.573013
vt 0.299444 0.525571
vt 1.000000 0.146773
vt 0.042328 0.715343
vt 0.930224 0.081911
vt 0.000000 0.474429
vt 0.010585 0.426986
vt 0.074075 0.142328
vt 0.105821 0.000000
vt 0.042328 0.284657
vt 0.052913 0.237215
vt 0.246531 0.237215
vt 0.225367 0.142328
vt 0.288859 0.426986
vt 0.257116 0.284657
vt 0.299444 0.474429
vt 0.930224 0.111099
vt 0.193623 0.000000
vt 0.105821 1.000000
vt 0.860448 0.384825
vt 0.860448 0.341192
vt 0.930224 0.341192
vt 0.930224 0.384825
vn 1.0000 0.0000 0.0000
vn -0.0453 0.0000 -0.9990
vn -1.0000 0.0000 0.0000
vn 0.7076 0.7066 -0.0002
vn 0.7076 0.7066 0.0002
vn 0.7076 0.7066 0.0003
vn 0.7076 0.7066 -0.0003
vn 0.0453 -0.0000 0.9990
vn 0.0000 0.0000 -1.0000
vn 0.0453 0.0000 -0.9990
vn -0.0000 -1.0000 -0.0000
vn -0.0000 1.0000 0.0000
vn 0.0000 -0.0000 1.0000
vn -0.0453 -0.0000 0.9990
vn 0.0903 -0.0000 0.9959
vn 0.0902 -0.0000 0.9959
vn -0.0903 0.0000 -0.9959
vn -0.0903 -0.0000 0.9959
vn -0.0902 -0.0000 0.9959
vn 0.0903 0.0000 -0.9959
vn 0.0639 0.7057 -0.7056
vn 0.7079 0.7063 0.0005
vn 0.0639 0.7058 -0.7056
vn 0.0640 0.7058 -0.7056
vn -0.7076 0.7066 -0.0003
vn -0.7076 0.7066 0.0003
vn -0.7076 0.7066 0.0002
vn -0.7076 0.7066 -0.0002
vn 0.0639 0.7058 0.7055
vn 0.0639 0.7058 0.7056
vn 0.0640 0.7058 0.7056
vn 0.7079 0.7063 -0.0005
vn -0.7079 0.7063 0.0005
vn 0.0000 0.7072 -0.7070
vn -0.0640 0.7058 -0.7056
vn -0.0639 0.7058 -0.7056
vn -0.0639 0.7057 -0.7056
vn -0.0639 0.7058 0.7056
vn -0.0639 0.7058 0.7055
vn -0.0640 0.7058 0.7056
vn -0.7079 0.7063 -0.0005
vn 0.0000 0.7072 0.7070
usemtl defaultMat.002
s 1
f 31/1/1 24/2/1 23/3/1 32/4/1
f 1/5/1 28/6/1 27/7/1 2/8/1
f 51/9/1 3/10/1 4/11/1 52/12/1
f 7/13/2 8/14/2 4/15/2 3/16/2
f 11/17/3 58/18/3 57/19/3 12/20/3
f 11/21/2 12/22/2 10/23/2 9/24/2
f 25/25/3 18/26/3 17/27/3 26/28/3
f 13/29/4 14/30/5 15/31/6 16/32/7
f 17/33/8 18/34/8 1/35/8 2/36/8
f 19/37/9 20/38/9 21/39/9 22/40/9
f 6/41/8 5/42/8 23/43/8 24/44/8
f 29/45/3 5/46/3 6/47/3 30/48/3
f 25/49/10 26/50/10 27/51/10 28/52/10
f 29/53/10 30/54/10 31/55/10 32/56/10
f 55/57/1 9/58/1 10/59/1 56/60/1
f 24/61/11 31/62/11 33/63/11 34/64/11
f 35/65/11 36/66/11 37/67/11 38/68/11
f 39/69/12 40/70/12 41/71/12 42/72/12
f 20/73/11 43/74/11 44/75/11 21/76/11
f 45/77/12 46/78/12 47/79/12 48/80/12
f 36/81/13 49/82/13 50/83/13 37/84/13
f 53/85/14 54/86/14 51/87/14 52/88/14
f 57/89/14 58/90/14 55/91/14 56/92/14
f 59/93/11 17/94/11 2/95/11 60/96/11
f 61/97/11 62/98/11 12/99/11 57/100/11
f 4/101/11 63/102/11 36/66/11 35/65/11
f 46/78/12 39/69/12 42/72/12 47/79/12
f 64/103/3 65/104/3 34/105/3 33/106/3
f 62/98/11 66/107/11 67/108/11 12/99/11
f 68/109/11 24/61/11 34/64/11 69/110/11
f 12/99/11 67/108/11 70/111/11 10/112/11
f 52/113/11 4/101/11 35/65/11 43/74/11
f 10/112/11 70/111/11 71/114/11 8/115/11
f 15/116/12 58/117/12 11/118/12 16/119/12
f 8/115/11 71/114/11 63/102/11 4/101/11
f 18/120/12 72/121/12 73/122/12 1/123/12
f 43/74/11 35/65/11 38/68/11 44/75/11
f 63/124/15 74/125/15 49/82/15 36/81/15
f 9/126/12 55/127/12 54/128/12 7/129/12
f 66/130/16 75/131/16 76/132/15 67/133/15
f 70/134/15 77/135/15 78/136/15 71/137/15
f 67/133/15 76/132/15 77/135/15 70/134/15
f 71/137/15 78/136/15 74/125/15 63/124/15
f 13/29/1 75/138/1 66/139/1 62/140/1
f 38/68/11 26/141/11 17/94/11 44/75/11
f 79/142/12 3/143/12 46/78/12 45/77/12
f 60/96/11 2/95/11 6/144/11 80/145/11
f 42/72/12 18/120/12 25/146/12 47/79/12
f 81/147/12 16/119/12 11/118/12 82/148/12
f 55/127/12 83/149/12 84/150/12 54/128/12
f 85/151/12 9/126/12 7/129/12 86/152/12
f 82/148/12 11/118/12 9/126/12 85/151/12
f 86/152/12 7/129/12 3/143/12 79/142/12
f 56/153/11 10/112/11 8/115/11 53/154/11
f 58/117/12 87/155/12 83/149/12 55/127/12
f 14/30/1 13/29/1 62/140/1 61/156/1
f 38/68/11 37/67/11 88/157/11 26/141/11
f 32/158/12 23/159/12 89/160/12 90/161/12
f 91/162/17 60/163/17 80/164/17 92/165/17
f 92/165/17 80/164/17 68/166/17 93/167/17
f 31/62/11 94/168/11 95/169/11 33/63/11
f 2/95/11 27/170/11 30/171/11 6/144/11
f 30/171/11 96/172/11 94/168/11 31/62/11
f 27/170/11 97/173/11 96/172/11 30/171/11
f 26/141/11 88/157/11 97/173/11 27/170/11
f 65/104/3 98/174/3 69/175/3 34/105/3
f 37/84/18 50/83/18 99/176/18 88/177/18
f 1/123/12 73/122/12 100/178/12 5/179/12
f 97/180/18 101/181/18 102/182/18 96/183/18
f 96/183/18 102/182/18 103/184/18 94/185/18
f 88/177/18 99/176/18 101/181/18 97/180/18
f 104/186/3 64/103/3 33/106/3 95/187/3
f 48/80/12 47/79/12 25/146/12 105/188/12
f 93/167/17 68/166/17 69/189/17 98/190/17
f 22/40/17 21/39/17 59/191/17 106/192/17
f 106/192/17 59/191/17 60/163/17 91/162/17
f 107/193/12 28/194/12 29/195/12 108/196/12
f 108/196/12 29/195/12 32/158/12 109/197/12
f 105/188/12 25/146/12 28/194/12 107/193/12
f 94/185/18 103/184/18 104/198/19 95/199/19
f 109/197/12 32/158/12 90/161/12 110/200/12
f 5/179/12 100/178/12 111/201/12 23/159/12
f 42/72/12 41/71/12 72/121/12 18/120/12
f 112/202/11 53/154/11 52/113/11 113/203/11
f 113/203/11 52/113/11 43/74/11 20/73/11
f 114/204/11 61/97/11 57/100/11 115/205/11
f 115/205/11 57/100/11 56/153/11 116/206/11
f 116/206/11 56/153/11 53/154/11 112/202/11
f 23/159/12 111/201/12 117/207/12 89/160/12
f 118/208/20 113/209/20 20/38/20 19/37/20
f 119/210/20 112/211/20 113/209/20 118/208/20
f 120/212/20 114/213/20 115/214/20 121/215/20
f 121/215/20 115/214/20 116/216/20 122/217/20
f 122/217/20 116/216/20 112/211/20 119/210/20
f 21/76/11 44/75/11 17/94/11 59/93/11
f 80/145/11 6/144/11 24/61/11 68/109/11
f 120/218/1 14/30/1 61/156/1 114/219/1
f 51/220/12 123/221/12 40/70/12 39/69/12
f 54/128/12 84/150/12 123/221/12 51/220/12
f 15/116/12 124/222/12 87/155/12 58/117/12
f 87/155/21 121/223/21 122/224/21 83/149/21
f 14/30/5 120/218/22 124/225/22 15/31/6
f 123/221/23 118/226/23 19/227/24 40/70/24
f 90/228/25 89/229/26 65/104/27 64/103/28
f 75/230/29 81/147/29 82/148/29 76/231/29
f 76/231/29 82/148/29 85/151/30 77/232/30
f 78/233/30 86/152/30 79/142/30 74/234/30
f 74/234/30 79/142/30 45/77/31 49/235/31
f 75/138/32 13/29/4 16/32/7 81/236/32
f 77/232/30 85/151/30 86/152/30 78/233/30
f 83/149/21 122/224/21 119/237/21 84/150/21
f 89/229/26 117/238/33 98/174/33 65/104/27
f 40/70/34 19/227/34 22/239/34 41/71/34
f 41/71/35 22/239/35 106/240/36 72/121/36
f 111/201/37 93/241/37 98/242/36 117/207/36
f 28/194/12 1/123/12 5/179/12 29/195/12
f 72/121/36 106/240/36 91/243/37 73/122/37
f 73/122/37 91/243/37 92/244/37 100/178/37
f 102/245/38 108/196/38 109/197/39 103/246/39
f 99/247/38 105/188/38 107/193/38 101/248/38
f 50/249/40 48/80/40 105/188/38 99/247/38
f 110/250/41 90/228/25 64/103/28 104/186/41
f 101/248/38 107/193/38 108/196/38 102/245/38
f 100/178/37 92/244/37 93/241/37 111/201/37
f 103/246/39 109/197/39 110/200/39 104/251/39
f 49/235/42 45/77/42 48/80/42 50/249/42
f 124/222/23 120/252/23 121/223/21 87/155/21
f 84/150/21 119/237/21 118/226/23 123/221/23
f 3/143/12 51/220/12 39/69/12 46/78/12
f 7/253/3 54/254/3 53/255/3 8/256/3
