# Blender v2.93.1 OBJ File: ''
# www.blender.org
mtllib PYLON_CONCRETE_COLUMN_01.mtl
o PYLON_CONCRETE_COLUMN_01
v 0.047442 3.553066 -0.044296
v 0.047442 3.553066 0.044298
v 0.036653 3.553066 0.033509
v 0.036653 3.553066 -0.033506
v -0.036653 3.553066 -0.033506
v -0.036653 3.553066 0.033509
v -0.047442 3.553066 0.044298
v -0.047442 3.553066 -0.044296
v 0.036609 3.553066 -0.055129
v 0.025819 3.553066 -0.044340
v -0.025819 3.553066 -0.044340
v -0.036609 3.553066 -0.055129
v 0.025819 3.553066 0.044342
v 0.036609 3.553066 0.055132
v -0.036609 3.553066 0.055132
v -0.025819 3.553066 0.044342
v 0.050986 0.552292 -0.048654
v 0.050986 0.552292 0.048654
v 0.038017 0.539256 0.061762
v 0.038017 0.539256 -0.061762
v 0.044660 3.600002 0.041526
v 0.044660 3.600002 -0.041524
v 0.033861 3.600002 -0.052323
v 0.033861 3.600002 0.052325
v 0.047304 3.596280 -0.044167
v 0.036502 3.596280 -0.054969
v 0.047304 3.596280 0.044169
v 0.036502 3.596280 0.054971
v -0.038017 0.539256 0.061762
v -0.038017 0.539256 -0.061762
v -0.033861 3.600002 -0.052323
v -0.033861 3.600002 0.052325
v -0.047304 3.596280 0.044169
v -0.047304 3.596280 -0.044167
v -0.036502 3.596280 -0.054969
v -0.036502 3.596280 0.054971
v -0.050986 0.552292 0.048654
v -0.050986 0.552292 -0.048654
v -0.044660 3.600002 -0.041524
v -0.044660 3.600002 0.041526
v -0.095160 -0.036784 -0.114138
v -0.095160 -0.036784 0.114138
v -0.111491 -0.015383 0.133726
v -0.111491 -0.015383 -0.133726
v 0.095160 -0.036784 0.114138
v 0.111491 -0.015383 0.133726
v 0.111491 -0.015383 -0.133726
v 0.095160 -0.036784 -0.114138
v 0.056428 0.625256 -0.067681
v 0.062080 0.619104 -0.074461
v -0.062080 0.619104 -0.074461
v -0.056428 0.625256 -0.067681
v -0.056428 0.625256 0.067681
v -0.062080 0.619104 0.074461
v 0.062080 0.619104 0.074461
v 0.056428 0.625256 0.067681
vt 0.808110 0.722435
vt 0.687354 0.722435
vt 0.702059 0.707729
vt 0.793403 0.707729
vt 0.793403 0.607810
vt 0.702059 0.607810
vt 0.687354 0.593104
vt 0.808110 0.593104
vt 0.822876 0.707669
vt 0.808170 0.692962
vt 0.808170 0.622577
vt 0.822876 0.607870
vt 0.687294 0.692962
vt 0.672586 0.707669
vt 0.672586 0.607870
vt 0.687294 0.622577
vt 0.522086 0.583443
vt 0.654720 0.583443
vt 0.672586 0.601121
vt 0.504219 0.601121
vt 0.804112 0.589501
vt 0.690912 0.589501
vt 0.676193 0.574781
vt 0.818832 0.574781
vt 0.639567 0.578270
vt 0.639743 0.519386
vt 0.654509 0.519808
vt 0.654290 0.578690
vt 0.518986 0.519386
vt 0.519162 0.578270
vt 0.504438 0.578690
vt 0.504219 0.519808
vt 0.672586 0.704757
vt 0.504219 0.704757
vt 0.676193 0.482474
vt 0.818832 0.482474
vt 0.639566 0.514212
vt 0.519161 0.514212
vt 0.518985 0.455328
vt 0.639741 0.455328
vt 0.808588 0.992320
vt 0.759308 0.992442
vt 0.759308 0.908908
vt 0.808588 0.909031
vt 0.759308 0.992442
vt 0.710028 0.992320
vt 0.710028 0.909030
vt 0.759308 0.908908
vt 0.018824 0.995798
vt 0.037432 0.000103
vt 0.119758 0.000103
vt 0.138365 0.995798
vt 0.154468 1.000000
vt 0.175869 0.000000
vt 0.189178 0.000103
vt 0.170571 0.995798
vt 0.133067 0.000000
vt 0.154468 1.000000
vt 0.493028 0.000000
vt 0.478043 0.999905
vt 0.414606 0.999905
vt 0.399622 0.000000
vt 0.290112 0.995798
vt 0.271504 0.000103
vt 0.284814 0.000000
vt 0.306215 1.000000
vt 0.654720 0.722435
vt 0.522086 0.722435
vt 0.690912 0.467755
vt 0.804112 0.467755
vt 0.504437 0.514632
vt 0.504219 0.455750
vt 0.654509 0.455750
vt 0.654289 0.514632
vt 0.635964 0.583444
vt 0.522764 0.583444
vt 0.687310 0.593105
vt 0.672586 0.578381
vt 0.807715 0.593105
vt 0.822438 0.578381
vt 0.635963 0.519386
vt 0.522763 0.519386
vt 0.812935 0.989307
vt 0.812935 0.912044
vt 0.705682 0.989307
vt 0.705682 0.912044
vt 0.672586 0.478874
vt 0.687310 0.464151
vt 0.822438 0.478874
vt 0.807715 0.464151
vt 0.518471 0.005297
vt 0.667059 0.005297
vt 0.679809 0.018918
vt 0.505721 0.018918
vt 0.849989 0.473224
vt 0.839359 0.459738
vt 0.984501 0.459738
vt 0.973871 0.473224
vt 0.654419 0.430964
vt 0.828507 0.430964
vt 0.815757 0.444586
vt 0.667169 0.444586
vt 0.840909 0.533216
vt 0.851539 0.519730
vt 0.975421 0.519730
vt 0.986051 0.533216
vt 0.712130 0.746741
vt 0.705681 0.739006
vt 0.847333 0.739006
vt 0.840885 0.746741
vt 0.636820 0.436773
vt 0.548711 0.436773
vt 0.544297 0.432665
vt 0.641233 0.432665
vt 0.705681 0.908908
vt 0.712130 0.901173
vt 0.840885 0.901173
vt 0.847333 0.908908
vt 0.789931 0.017217
vt 0.692995 0.017217
vt 0.697408 0.013109
vt 0.785518 0.013109
vt 0.873071 0.947291
vt 0.953889 0.947291
vt 0.871521 0.045664
vt 0.952339 0.045664
vt 0.705681 0.739006
vt 0.705681 0.999442
vt 0.488548 0.999442
vt 0.488548 0.739006
vt 0.002721 1.000000
vt 0.024122 0.000000
vt 0.306215 0.999905
vt 0.321201 0.000000
vt 0.384637 0.000000
vt 0.399622 0.999905
vn 0.0000 -1.0000 0.0000
vn 0.7089 -0.7053 0.0000
vn 0.0000 1.0000 0.0000
vn 0.7071 0.0044 -0.7071
vn 0.7071 0.0044 0.7071
vn 1.0000 0.0032 0.0000
vn -1.0000 0.0032 0.0000
vn 0.0000 0.0037 -1.0000
vn 0.0000 0.0037 1.0000
vn 1.0000 0.0048 0.0000
vn -0.7076 0.0069 0.7066
vn -0.7072 0.0069 0.7069
vn 0.7076 0.0069 0.7065
vn 0.7072 0.0069 0.7069
vn 0.7076 0.0069 0.7066
vn 0.0000 0.0058 -1.0000
vn -0.7073 0.0069 -0.7069
vn -0.7089 -0.7053 0.0000
vn -0.7071 0.0044 -0.7071
vn -0.7071 0.0044 0.7071
vn 0.8152 0.5791 0.0000
vn 0.4989 0.7087 -0.4989
vn 0.4989 0.7087 0.4989
vn -0.8152 0.5791 0.0000
vn 0.0000 0.5794 -0.8150
vn 0.0000 0.5794 0.8150
vn -0.4989 0.7087 -0.4989
vn -0.4989 0.7087 0.4989
vn -0.7950 -0.6066 -0.0000
vn 0.0000 -0.6752 0.7377
vn 0.7950 -0.6066 -0.0000
vn 0.0000 -0.6752 -0.7377
vn 0.0000 0.7406 -0.6720
vn -0.7364 0.6765 0.0000
vn 0.0000 0.7406 0.6720
vn 0.7364 0.6765 0.0000
vn -0.9970 0.0776 0.0000
vn 0.9970 0.0776 0.0000
vn 0.0000 0.0930 -0.9957
vn 0.0000 0.0930 0.9957
vn 0.7073 0.0069 -0.7069
vn 0.0000 0.0058 1.0000
vn -1.0000 0.0048 0.0000
usemtl Default_OBJ.001
s 1
f 1/1/1 2/2/1 3/3/1 4/4/1
f 5/5/1 6/6/1 7/7/1 8/8/1
f 9/9/1 10/10/1 11/11/1 12/12/1
f 13/13/1 14/14/1 15/15/1 16/16/1
f 17/17/2 18/18/2 19/19/2 20/20/2
f 21/21/3 22/22/3 23/23/3 24/24/3
f 1/1/1 4/4/1 10/10/1 9/9/1
f 3/3/1 2/2/1 14/14/1 13/13/1
f 25/25/4 1/26/4 9/27/4 26/28/4
f 2/29/5 27/30/5 28/31/5 14/32/5
f 20/20/1 19/19/1 29/33/1 30/34/1
f 24/24/3 23/23/3 31/35/3 32/36/3
f 2/29/6 1/26/6 25/25/6 27/30/6
f 33/37/7 34/38/7 8/39/7 7/40/7
f 26/41/8 9/42/8 12/43/8 35/44/8
f 14/45/9 28/46/9 36/47/9 15/48/9
f 17/49/10 4/50/10 3/51/10 18/52/10
f 29/53/11 16/54/12 6/55/12 37/56/11
f 18/52/13 3/51/14 13/57/14 19/58/15
f 30/59/16 11/60/16 10/61/16 20/62/16
f 38/63/17 5/64/17 11/65/17 30/66/17
f 16/16/1 15/15/1 7/7/1 6/6/1
f 30/34/18 29/33/18 37/67/18 38/68/18
f 32/36/3 31/35/3 39/69/3 40/70/3
f 12/12/1 11/11/1 5/5/1 8/8/1
f 35/71/19 12/72/19 8/39/19 34/38/19
f 15/73/20 36/74/20 33/37/20 7/40/20
f 27/30/21 25/25/21 22/75/21 21/76/21
f 22/22/22 25/77/22 26/78/22 23/23/22
f 27/79/23 21/21/23 24/24/23 28/80/23
f 40/81/24 39/82/24 34/38/24 33/37/24
f 23/83/25 26/41/25 35/44/25 31/84/25
f 28/46/26 24/85/26 32/86/26 36/47/26
f 31/35/27 35/87/27 34/88/27 39/69/27
f 36/89/28 32/36/28 40/70/28 33/90/28
f 41/91/29 42/92/29 43/93/29 44/94/29
f 45/95/30 46/96/30 43/97/30 42/98/30
f 47/99/31 46/100/31 45/101/31 48/102/31
f 47/103/32 48/104/32 41/105/32 44/106/32
f 49/107/33 50/108/33 51/109/33 52/110/33
f 53/111/34 52/112/34 51/113/34 54/114/34
f 55/115/35 56/116/35 53/117/35 54/118/35
f 55/119/36 50/120/36 49/121/36 56/122/36
f 54/114/37 51/113/37 44/94/37 43/93/37
f 46/100/38 47/99/38 50/120/38 55/119/38
f 50/123/39 47/103/39 44/106/39 51/124/39
f 46/96/40 55/125/40 54/126/40 43/97/40
f 56/116/3 49/107/3 52/110/3 53/117/3
f 48/127/1 45/128/1 42/129/1 41/130/1
f 20/131/41 10/132/41 4/50/41 17/49/41
f 19/133/42 13/134/42 16/135/42 29/136/42
f 37/56/43 6/55/43 5/64/43 38/63/43
