# Blender v2.93.1 OBJ File: ''
# www.blender.org
mtllib PYLON_CONCRETE_MODULAR_ISOLATOR01.mtl
o PYLON_CONCRETE_MODULAR_ISOLATOR01
v -0.007614 0.021298 0.007617
v -0.007614 0.021298 -0.007617
v -0.007614 0.018053 -0.007617
v -0.007614 0.018053 0.007617
v -0.007614 0.009329 0.007617
v -0.007614 0.009329 -0.007617
v -0.007614 0.006085 -0.007617
v -0.007614 0.006085 0.007617
v -0.007614 -0.002640 0.007617
v -0.007614 -0.002640 -0.007617
v -0.007614 -0.005885 -0.007617
v -0.007614 -0.005885 0.007617
v -0.004637 -0.021078 -0.004639
v -0.004637 -0.021078 0.004639
v -0.007614 -0.014609 0.007617
v -0.007614 -0.014609 -0.007617
v -0.010766 0.028526 0.010769
v -0.010766 0.028526 -0.010769
v -0.010766 0.022794 -0.010769
v -0.010766 0.022794 0.010769
v -0.006662 0.030875 0.006663
v -0.006662 0.030875 -0.006663
v -0.010766 0.016557 0.010769
v -0.010766 0.016557 -0.010769
v -0.010766 0.010825 -0.010769
v -0.010766 0.010825 0.010769
v -0.010766 0.004588 -0.010769
v -0.010766 0.004588 0.010769
v -0.010766 -0.001144 0.010769
v -0.010766 -0.001144 -0.010769
v -0.010766 -0.007381 -0.010769
v -0.010766 -0.007381 0.010769
v -0.010766 -0.013113 0.010769
v -0.010766 -0.013113 -0.010769
v -0.002586 0.030913 -0.002589
v -0.002586 0.030913 0.002589
v -0.002724 0.072570 0.002725
v -0.002724 0.072570 -0.002725
v -0.002617 0.038251 0.002620
v -0.002617 0.038251 -0.002620
v -0.006693 0.038214 -0.006694
v -0.006693 0.038214 0.006694
v -0.002590 -0.021083 -0.002593
v -0.002590 -0.021083 0.002593
v -0.003565 -0.025880 -0.003568
v -0.003565 -0.025880 0.003568
v -0.003569 -0.030249 0.003571
v -0.003569 -0.030249 -0.003571
v -0.003573 -0.034617 -0.003575
v -0.003573 -0.034617 0.003575
v -0.024119 -0.025867 0.003563
v -0.024119 -0.025867 -0.003563
v -0.024127 -0.030236 -0.003565
v -0.024127 -0.030236 0.003565
v -0.018981 -0.025871 -0.003564
v -0.018981 -0.025871 0.003564
v -0.018986 -0.030240 0.003567
v -0.018986 -0.030240 -0.003567
v -0.018992 -0.037392 -0.003567
v -0.018992 -0.037392 0.003567
v -0.024131 -0.037387 0.003565
v -0.024131 -0.037387 -0.003565
v -0.018992 -0.030240 -0.025890
v -0.018997 -0.037392 -0.025890
v -0.024136 -0.037387 -0.025889
v -0.024131 -0.030236 -0.025889
v 0.007616 0.021298 -0.007617
v 0.007616 0.018053 -0.007617
v 0.007616 0.021298 0.007617
v 0.007616 0.018053 0.007617
v 0.007616 0.009329 -0.007617
v 0.007616 0.006085 -0.007617
v 0.007616 0.009329 0.007617
v 0.007616 0.006085 0.007617
v 0.007616 -0.002640 -0.007617
v 0.007616 -0.005885 -0.007617
v 0.007616 -0.002640 0.007617
v 0.007616 -0.005885 0.007617
v 0.007616 -0.014609 -0.007617
v 0.004636 -0.021078 -0.004639
v 0.007616 -0.014609 0.007617
v 0.004636 -0.021078 0.004639
v 0.010768 0.028526 -0.010769
v 0.010768 0.022794 -0.010769
v 0.006661 0.030875 -0.006663
v 0.010768 0.028526 0.010769
v 0.010768 0.022794 0.010769
v 0.006661 0.030875 0.006663
v 0.010768 0.016557 -0.010769
v 0.010768 0.010825 -0.010769
v 0.010768 0.016557 0.010769
v 0.010768 0.010825 0.010769
v 0.010768 0.004588 -0.010769
v 0.010768 0.004588 0.010769
v 0.010768 -0.001144 -0.010769
v 0.010768 -0.001144 0.010769
v 0.010768 -0.007381 -0.010769
v 0.010768 -0.007381 0.010769
v 0.010768 -0.013113 -0.010769
v 0.010768 -0.013113 0.010769
v 0.004461 0.078494 0.004464
v 0.004461 0.078494 -0.004464
v -0.004462 0.078494 -0.004464
v -0.004462 0.078494 0.004464
v 0.002724 0.072570 -0.002725
v 0.002723 0.072570 0.002725
v 0.002587 0.030913 0.002589
v 0.002587 0.030913 -0.002589
v 0.006692 0.038214 0.006694
v 0.006692 0.038214 -0.006694
v 0.002619 0.038251 -0.002620
v 0.002619 0.038251 0.002620
v 0.002590 -0.021083 -0.002593
v 0.002590 -0.021083 0.002593
v 0.003572 -0.034617 -0.003575
v 0.003572 -0.034617 0.003575
v 0.003564 -0.025880 -0.003568
v 0.003564 -0.025880 0.003568
v 0.003568 -0.030249 -0.003571
v 0.003568 -0.030249 0.003571
v 0.024126 -0.030236 0.003565
v 0.024126 -0.030236 -0.003565
v 0.024119 -0.025867 -0.003563
v 0.024119 -0.025867 0.003563
v 0.018980 -0.025871 0.003564
v 0.018980 -0.025871 -0.003564
v 0.018986 -0.030240 -0.003567
v 0.018986 -0.030240 0.003567
v 0.024130 -0.037387 -0.003565
v 0.024130 -0.037387 0.003565
v 0.018990 -0.037392 0.003567
v 0.018990 -0.037392 -0.003567
v 0.024130 -0.030236 -0.025889
v 0.024135 -0.037387 -0.025889
v 0.018998 -0.037392 -0.025890
v 0.018990 -0.030240 -0.025890
v -0.004443 0.072561 -0.004444
v -0.004443 0.072561 0.004444
v 0.004441 0.072561 0.004444
v 0.004441 0.072561 -0.004444
v -0.018997 -0.037392 0.025890
v -0.018992 -0.030240 0.025890
v -0.024131 -0.030236 0.025889
v -0.024136 -0.037387 0.025889
v 0.024135 -0.037387 0.025889
v 0.024130 -0.030236 0.025889
v 0.018990 -0.030240 0.025890
v 0.018998 -0.037392 0.025890
vt 0.088360 0.866922
vt 0.088360 0.742988
vt 0.114732 0.742988
vt 0.114732 0.866922
vt 0.967121 0.181647
vt 0.967121 0.057712
vt 0.993486 0.057712
vt 0.993486 0.181647
vt 0.462538 0.824813
vt 0.462538 0.700879
vt 0.488910 0.700879
vt 0.488910 0.824813
vt 0.868059 0.871396
vt 0.868059 0.795916
vt 0.920891 0.771689
vt 0.920891 0.895623
vt 0.348249 0.771673
vt 0.348249 0.596453
vt 0.394834 0.596453
vt 0.394834 0.771673
vt 0.548717 0.141816
vt 0.548717 0.033404
vt 0.582080 0.000000
vt 0.582080 0.175220
vt 0.432679 0.200862
vt 0.432679 0.324797
vt 0.407061 0.350439
vt 0.407061 0.175220
vt 0.582080 0.809795
vt 0.582080 0.634575
vt 0.628664 0.634575
vt 0.628664 0.809795
vt 0.369216 0.570810
vt 0.369216 0.446876
vt 0.394834 0.421233
vt 0.394834 0.596453
vt 0.432679 0.551302
vt 0.432679 0.675236
vt 0.407061 0.700879
vt 0.407061 0.525659
vt 0.149401 0.717345
vt 0.149401 0.593411
vt 0.175019 0.567768
vt 0.175019 0.742988
vt 0.025618 0.418191
vt 0.025618 0.542125
vt 0.000000 0.567768
vt 0.000000 0.392548
vt 0.759220 0.175220
vt 0.759220 0.000000
vt 0.805805 0.000000
vt 0.805805 0.175220
vt 0.731481 0.500016
vt 0.731481 0.376082
vt 0.757099 0.350439
vt 0.757099 0.525659
vt 0.432679 0.376082
vt 0.432679 0.500016
vt 0.407061 0.525659
vt 0.407061 0.350439
vt 0.644275 0.809795
vt 0.644275 0.634575
vt 0.690860 0.634575
vt 0.690859 0.809795
vt 0.625270 0.338888
vt 0.583185 0.338888
vt 0.582080 0.000000
vt 0.626375 0.000000
vt 0.657739 0.601432
vt 0.657739 0.558803
vt 0.690860 0.525659
vt 0.690860 0.634575
vt 0.175019 0.922462
vt 0.175019 0.814050
vt 0.234666 0.813798
vt 0.234666 0.922714
vt 0.757351 0.897112
vt 0.799435 0.897112
vt 0.799687 0.956803
vt 0.757099 0.956803
vt 0.505548 0.892711
vt 0.505548 0.934901
vt 0.488910 0.951546
vt 0.488910 0.876066
vt 0.644275 0.983819
vt 0.644275 0.941629
vt 0.683176 0.933697
vt 0.683176 0.991751
vt 0.963378 0.648307
vt 0.963378 0.590205
vt 0.998877 0.590172
vt 0.998877 0.648340
vt 0.313438 0.239603
vt 0.313438 0.181630
vt 0.348945 0.181614
vt 0.348945 0.239619
vt 0.277813 0.763667
vt 0.219815 0.763667
vt 0.219848 0.638260
vt 0.277781 0.638260
vt 0.219856 0.596453
vt 0.277773 0.596453
vt 0.757099 0.771689
vt 0.815146 0.771689
vt 0.815113 0.897112
vt 0.757131 0.897112
vt 0.148809 0.225277
vt 0.184316 0.225309
vt 0.184244 0.350732
vt 0.148737 0.350684
vt 0.184211 0.392548
vt 0.148704 0.392491
vt 0.915159 0.532045
vt 0.915159 0.590083
vt 0.873391 0.590067
vt 0.873391 0.532061
vt 0.873350 0.532045
vt 0.873350 0.590083
vt 0.815225 0.590083
vt 0.815225 0.532045
vt 0.407061 0.181614
vt 0.407061 0.239619
vt 0.935657 0.953804
vt 0.935649 0.895623
vt 0.977425 0.895635
vt 0.977425 0.953808
vt 0.348944 0.000000
vt 0.407061 0.000000
vt 0.915126 0.350439
vt 0.873351 0.350448
vt 0.873350 0.350439
vt 0.815225 0.350439
vt 0.088360 0.742993
vt 0.088360 0.924599
vt 0.046593 0.924602
vt 0.046584 0.742988
vt 0.114732 0.990824
vt 0.088360 0.990824
vt 0.088360 0.866922
vt 0.114732 0.866922
vt 0.967121 0.057712
vt 0.967121 0.181647
vt 0.940749 0.181647
vt 0.940749 0.057712
vt 1.000000 0.895591
vt 0.973636 0.895591
vt 0.973636 0.771689
vt 1.000000 0.771689
vt 0.590650 0.876066
vt 0.590650 1.000000
vt 0.564285 1.000000
vt 0.564285 0.876066
vt 0.958621 0.181647
vt 0.984993 0.181647
vt 0.984993 0.305548
vt 0.958621 0.305548
vt 0.947263 0.771689
vt 0.947263 0.895623
vt 0.920891 0.895623
vt 0.920891 0.771689
vt 0.644275 0.809795
vt 0.697106 0.834030
vt 0.697106 0.909478
vt 0.644275 0.933697
vt 0.868059 0.771689
vt 0.868059 0.895623
vt 0.815225 0.871396
vt 0.815225 0.795916
vt 0.488910 0.700879
vt 0.535495 0.700879
vt 0.535495 0.876066
vt 0.488910 0.876066
vt 0.440441 0.033404
vt 0.407061 0.000000
vt 0.324398 0.596453
vt 0.324398 0.771673
vt 0.277813 0.771673
vt 0.277813 0.596453
vt 0.407061 0.175220
vt 0.440441 0.141816
vt 0.582080 0.175220
vt 0.556462 0.200862
vt 0.582080 0.350439
vt 0.556462 0.324797
vt 0.898973 0.175220
vt 0.852389 0.175220
vt 0.852389 0.000033
vt 0.898973 0.000033
vt 0.245433 0.446876
vt 0.219815 0.421233
vt 0.852389 0.000000
vt 0.852389 0.175220
vt 0.805805 0.175220
vt 0.805805 0.000000
vt 0.219815 0.596453
vt 0.245433 0.570810
vt 0.582080 0.525659
vt 0.556462 0.551302
vt 0.582080 0.700879
vt 0.556462 0.675236
vt 0.025618 0.593411
vt 0.000000 0.567768
vt 0.000000 0.742988
vt 0.025618 0.717345
vt 0.175019 0.392548
vt 0.149401 0.418191
vt 0.702273 0.692882
vt 0.748858 0.692882
vt 0.748858 0.868069
vt 0.702273 0.868069
vt 0.175019 0.567768
vt 0.149401 0.542125
vt 0.805805 0.175220
vt 0.805805 0.350439
vt 0.759220 0.350439
vt 0.759220 0.175220
vt 0.607698 0.376082
vt 0.582080 0.350439
vt 0.582080 0.525659
vt 0.607698 0.500016
vt 0.582080 0.350439
vt 0.556462 0.376082
vt 0.898973 0.350407
vt 0.852389 0.350407
vt 0.852389 0.175220
vt 0.898973 0.175220
vt 0.582080 0.525659
vt 0.556462 0.500016
vt 0.852389 0.175220
vt 0.852389 0.350439
vt 0.805805 0.350439
vt 0.805805 0.175220
vt 0.416380 0.948698
vt 0.416380 0.876066
vt 0.488910 0.876066
vt 0.488910 0.948698
vt 0.626375 0.000000
vt 0.670670 0.000000
vt 0.669565 0.338888
vt 0.627481 0.338888
vt 0.714949 0.000000
vt 0.713844 0.338888
vt 0.671792 0.338888
vt 0.670670 0.000000
vt 0.582080 0.634575
vt 0.582080 0.525659
vt 0.615184 0.558803
vt 0.615184 0.601432
vt 0.958621 0.181647
vt 0.958621 0.290563
vt 0.898973 0.290311
vt 0.898973 0.181899
vt 0.941562 0.350407
vt 0.898973 0.350407
vt 0.899225 0.290715
vt 0.941310 0.290715
vt 0.974806 0.771689
vt 0.915159 0.771437
vt 0.915159 0.663057
vt 0.974806 0.662805
vt 0.046332 0.918175
vt 0.046584 0.977866
vt 0.004029 0.977866
vt 0.004281 0.918175
vt 0.564285 0.876066
vt 0.547656 0.892711
vt 0.564285 0.951546
vt 0.547656 0.934901
vt 0.382478 0.897104
vt 0.382478 0.955272
vt 0.324398 0.955272
vt 0.324398 0.897104
vt 0.109908 0.175195
vt 0.148809 0.167272
vt 0.109908 0.217345
vt 0.644275 0.933697
vt 0.644275 0.991751
vt 0.605374 0.983819
vt 0.605374 0.941629
vt 0.184316 0.167239
vt 0.219815 0.167207
vt 0.219815 0.225342
vt 0.748858 0.940701
vt 0.748858 0.998869
vt 0.713359 0.998837
vt 0.713359 0.940734
vt 0.277932 0.239619
vt 0.277932 0.181614
vt 0.313438 0.181630
vt 0.313438 0.239603
vt 0.690892 0.567474
vt 0.748825 0.567474
vt 0.748858 0.692882
vt 0.690860 0.692882
vt 0.382413 0.897104
vt 0.324431 0.897104
vt 0.324398 0.771673
vt 0.382445 0.771673
vt 0.148737 0.041865
vt 0.184244 0.041808
vt 0.690900 0.525659
vt 0.748817 0.525659
vt 0.148704 0.000049
vt 0.184211 0.000000
vt 0.175059 0.632176
vt 0.175059 0.574170
vt 0.216835 0.574154
vt 0.216835 0.632192
vt 0.815224 0.532045
vt 0.815224 0.590083
vt 0.757099 0.590083
vt 0.757099 0.532045
vt 0.219815 0.239619
vt 0.219815 0.181614
vt 0.046584 0.982783
vt 0.046589 0.924610
vt 0.088348 0.924602
vt 0.088360 0.982783
vt 0.219816 0.000000
vt 0.277932 0.000000
vt 0.175019 0.813790
vt 0.216778 0.813798
vt 0.757099 0.350439
vt 0.815225 0.350439
vt 0.277808 0.763667
vt 0.277813 0.945281
vt 0.236038 0.945281
vt 0.236041 0.763675
vt 0.915159 0.662642
vt 0.915159 0.590335
vt 0.963378 0.590172
vt 0.963378 0.662805
vt 0.829188 0.909608
vt 0.829188 0.953946
vt 0.815225 0.967930
vt 0.815225 0.895623
vt 0.748858 0.868069
vt 0.748858 0.940701
vt 0.700638 0.940538
vt 0.700638 0.868231
vt 0.887430 0.895623
vt 0.887430 0.967930
vt 0.873459 0.953946
vt 0.873467 0.909608
vt 0.887430 0.895623
vt 0.935649 0.895786
vt 0.935649 0.968060
vt 0.887430 0.968223
vt 0.035499 0.225309
vt 0.071006 0.225277
vt 0.071079 0.350684
vt 0.035572 0.350732
vt 0.071111 0.392491
vt 0.035604 0.392548
vt 0.915159 0.590108
vt 0.915166 0.531927
vt 0.956934 0.531923
vt 0.956934 0.590096
vt 0.348944 0.421233
vt 0.407061 0.421233
vt 0.915126 0.771689
vt 0.873350 0.771681
vt 0.873350 0.771689
vt 0.815225 0.771689
vt 0.940749 0.000036
vt 0.940749 0.181642
vt 0.898973 0.181647
vt 0.898982 0.000033
vt 0.989750 0.590172
vt 0.963378 0.590172
vt 0.963378 0.466270
vt 0.989750 0.466270
vt 0.416380 0.999967
vt 0.390016 0.999967
vt 0.390016 0.876066
vt 0.416380 0.876066
vt 0.947263 0.771689
vt 0.973636 0.771689
vt 0.973636 0.895591
vt 0.947263 0.895591
vt 0.591444 0.834030
vt 0.644275 0.809795
vt 0.644275 0.933697
vt 0.591444 0.909478
vt 0.535495 0.700879
vt 0.582080 0.700879
vt 0.582080 0.876066
vt 0.535495 0.876066
vt 0.046584 0.918175
vt 0.000000 0.918175
vt 0.000000 0.742988
vt 0.046584 0.742988
vt 0.407061 0.700879
vt 0.453646 0.700879
vt 0.453646 0.876066
vt 0.407061 0.876066
vt 0.128434 0.742988
vt 0.175019 0.742988
vt 0.175019 0.918175
vt 0.128434 0.918175
vt 0.758123 0.000000
vt 0.759220 0.338888
vt 0.714949 0.338888
vt 0.716071 0.000000
vt 0.915159 0.350692
vt 0.974806 0.350439
vt 0.974806 0.459323
vt 0.915159 0.459071
vt 0.170990 0.918175
vt 0.170738 0.977866
vt 0.128686 0.977866
vt 0.128434 0.918175
vt 0.071006 0.167272
vt 0.109908 0.175196
vt 0.109908 0.217345
vt 0.035499 0.167239
vt 0.000000 0.167207
vt 0.000000 0.225342
vt 0.035572 0.041808
vt 0.071079 0.041865
vt 0.035604 0.000000
vt 0.071111 0.000049
vt 0.216790 0.922722
vt 0.216794 0.980895
vt 0.175019 0.980895
vt 0.175030 0.922714
vt 0.277932 0.421233
vt 0.219816 0.421233
vt 0.175019 0.392556
vt 0.216778 0.392548
vt 0.815225 0.771689
vt 0.757099 0.771689
vt 0.277813 0.953287
vt 0.277818 0.771673
vt 0.319586 0.771681
vt 0.319589 0.953287
vt 0.915159 0.459486
vt 0.963378 0.459324
vt 0.963378 0.531923
vt 0.915159 0.531761
vn -1.0000 0.0000 0.0000
vn -0.9084 -0.4180 0.0000
vn -0.4967 0.8679 0.0000
vn -0.4288 -0.9034 -0.0000
vn -0.4288 0.9034 0.0000
vn -0.4290 0.9033 0.0000
vn -1.0000 -0.0033 0.0000
vn -0.0091 1.0000 0.0000
vn -1.0000 -0.0042 0.0000
vn 1.0000 0.0042 0.0000
vn -0.0024 -1.0000 0.0000
vn -0.9800 0.1992 0.0000
vn -1.0000 0.0009 0.0000
vn -1.0000 0.0016 0.0000
vn 0.0006 1.0000 0.0000
vn 0.0008 1.0000 0.0000
vn -0.0006 -1.0000 0.0000
vn -0.0003 0.0007 -1.0000
vn -0.0003 0.0006 -1.0000
vn -0.0010 -1.0000 0.0000
vn 1.0000 -0.0008 0.0000
vn -1.0000 0.0007 0.0000
vn -0.0002 0.0000 -1.0000
vn -1.0000 0.0007 0.0002
vn 1.0000 -0.0007 -0.0002
vn 0.0000 0.0000 -1.0000
vn 1.0000 0.0000 0.0000
vn 0.0000 -0.4182 -0.9084
vn 0.9083 -0.4183 0.0000
vn 0.0000 0.8680 -0.4966
vn 0.4965 0.8680 0.0000
vn 0.0000 -0.9034 -0.4288
vn 0.4288 -0.9034 -0.0000
vn 0.0000 0.9034 -0.4288
vn 0.4288 0.9034 0.0000
vn 0.0000 0.9033 -0.4290
vn 0.4290 0.9033 0.0000
vn 0.0000 1.0000 0.0000
vn 1.0000 -0.0033 0.0001
vn 0.0000 -0.0033 -1.0000
vn 0.0091 1.0000 0.0000
vn 1.0000 -0.0042 0.0000
vn -1.0000 0.0042 0.0000
vn 0.0000 1.0000 -0.0091
vn 0.0000 -0.0042 -1.0000
vn 0.0000 0.0042 1.0000
vn 0.0000 -1.0000 -0.0024
vn 0.0024 -1.0000 0.0000
vn 0.0000 -1.0000 0.0000
vn 0.0000 0.1992 -0.9800
vn 0.9800 0.1990 0.0000
vn 0.0000 0.0007 -1.0000
vn 0.0000 0.0009 -1.0000
vn 1.0000 0.0009 0.0000
vn 1.0000 0.0014 0.0000
vn -0.0006 1.0000 0.0000
vn 0.0006 -1.0000 0.0000
vn 0.0003 0.0007 -1.0000
vn -0.0008 1.0000 0.0000
vn 0.0003 0.0006 -1.0000
vn 0.0010 -1.0000 0.0000
vn -1.0000 -0.0006 0.0000
vn 1.0000 0.0007 0.0000
vn 0.0002 0.0000 -1.0000
vn 1.0000 0.0007 0.0002
vn -1.0000 -0.0008 -0.0002
vn -1.0000 -0.0034 0.0000
vn 0.0052 -1.0000 0.0000
vn 1.0000 -0.0034 0.0000
vn -0.0052 -1.0000 -0.0000
vn 0.0000 -0.0034 -1.0000
vn 0.0000 -1.0000 0.0052
vn -0.0003 0.0007 1.0000
vn -0.0003 0.0006 1.0000
vn -0.0002 0.0000 1.0000
vn -1.0000 0.0007 -0.0002
vn 1.0000 -0.0007 0.0002
vn 0.0000 -0.0000 1.0000
vn 0.0000 -0.4182 0.9084
vn 0.0000 0.8680 0.4966
vn 0.0000 -0.9034 0.4288
vn 0.0000 0.9034 0.4288
vn 0.0000 0.9033 0.4290
vn 0.0000 -0.0033 1.0000
vn 0.0000 1.0000 0.0091
vn 0.0000 -0.0042 1.0000
vn 0.0000 0.0042 -1.0000
vn 0.0000 -1.0000 0.0024
vn 0.0000 0.1992 0.9800
vn 0.0000 0.0007 1.0000
vn 0.0000 0.0009 1.0000
vn 0.0003 0.0007 1.0000
vn 0.0003 0.0006 1.0000
vn 0.0002 0.0000 1.0000
vn 1.0000 0.0007 -0.0002
vn -1.0000 -0.0008 0.0002
vn 0.0000 -0.0034 1.0000
vn 0.0000 -1.0000 -0.0052
usemtl defaultMat.003
s off
f 1/1/1 2/2/1 3/3/1 4/4/1
f 5/5/1 6/6/1 7/7/1 8/8/1
f 9/9/1 10/10/1 11/11/1 12/12/1
f 13/13/2 14/14/2 15/15/2 16/16/2
f 17/17/1 18/18/1 19/19/1 20/20/1
f 21/21/3 22/22/3 18/23/3 17/24/3
f 2/25/4 1/26/4 20/27/4 19/28/4
f 23/29/1 24/30/1 25/31/1 26/32/1
f 4/33/5 3/34/5 24/35/5 23/36/5
f 6/37/4 5/38/4 26/39/4 25/40/4
f 8/41/6 7/42/6 27/43/6 28/44/6
f 10/45/4 9/46/4 29/47/4 30/48/4
f 28/49/1 27/50/1 30/51/1 29/52/1
f 12/53/5 11/54/5 31/55/5 32/56/5
f 16/57/4 15/58/4 33/59/4 34/60/4
f 32/61/1 31/62/1 34/63/1 33/64/1
f 35/65/7 36/66/7 37/67/7 38/68/7
f 39/69/8 40/70/8 41/71/8 42/72/8
f 22/73/9 21/74/9 42/75/9 41/76/9
f 36/77/10 35/78/10 40/79/10 39/80/10
f 43/81/11 44/82/11 14/83/11 13/84/11
f 44/85/12 43/86/12 45/87/12 46/88/12
f 47/89/13 48/90/13 49/91/13 50/92/13
f 51/93/14 52/94/14 53/95/14 54/96/14
f 46/97/15 45/98/15 55/99/15 56/100/15
f 56/100/16 55/99/16 52/101/16 51/102/16
f 48/103/17 47/104/17 57/105/17 58/106/17
f 45/107/18 48/108/18 58/109/18 55/110/18
f 55/110/19 58/109/19 53/111/19 52/112/19
f 59/113/20 60/114/20 61/115/20 62/116/20
f 58/117/21 57/118/21 60/119/21 59/120/21
f 54/96/22 53/95/22 62/121/22 61/122/22
f 63/123/23 64/124/23 65/125/23 66/126/23
f 53/95/24 66/127/24 65/128/24 62/121/24
f 64/129/20 59/113/20 62/116/20 65/130/20
f 63/131/25 58/117/25 59/120/25 64/132/25
f 58/133/16 63/134/16 66/135/16 53/136/16
f 67/137/26 68/138/26 3/139/26 2/140/26
f 67/141/27 69/142/27 70/143/27 68/144/27
f 71/145/26 72/146/26 7/147/26 6/148/26
f 71/149/27 73/150/27 74/151/27 72/152/27
f 75/153/26 76/154/26 11/155/26 10/156/26
f 75/157/27 77/158/27 78/159/27 76/160/27
f 79/161/28 80/162/28 13/163/28 16/164/28
f 79/165/29 81/166/29 82/167/29 80/168/29
f 83/169/26 84/170/26 19/171/26 18/172/26
f 85/173/30 83/174/30 18/23/30 22/22/30
f 83/175/27 86/176/27 87/177/27 84/178/27
f 86/179/31 83/174/31 85/173/31 88/180/31
f 84/181/32 67/182/32 2/25/32 19/28/32
f 84/181/33 87/183/33 69/184/33 67/182/33
f 89/185/26 90/186/26 25/187/26 24/188/26
f 68/189/34 89/190/34 24/35/34 3/34/34
f 89/191/27 91/192/27 92/193/27 90/194/27
f 91/195/35 89/190/35 68/189/35 70/196/35
f 90/197/32 71/198/32 6/37/32 25/40/32
f 90/197/33 92/199/33 73/200/33 71/198/33
f 72/201/36 93/202/36 27/43/36 7/42/36
f 94/203/37 93/202/37 72/201/37 74/204/37
f 95/205/32 75/206/32 10/45/32 30/48/32
f 93/207/26 95/208/26 30/209/26 27/210/26
f 95/205/33 96/211/33 77/212/33 75/206/33
f 93/213/27 94/214/27 96/215/27 95/216/27
f 76/217/34 97/218/34 31/55/34 11/54/34
f 98/219/35 97/218/35 76/217/35 78/220/35
f 99/221/32 79/222/32 16/57/32 34/60/32
f 97/223/26 99/224/26 34/225/26 31/226/26
f 99/221/33 100/227/33 81/228/33 79/222/33
f 97/229/27 98/230/27 100/231/27 99/232/27
f 101/233/38 102/234/38 103/235/38 104/236/38
f 105/237/39 106/238/39 107/239/39 108/240/39
f 105/241/40 108/242/40 35/243/40 38/244/40
f 109/245/41 110/246/41 111/247/41 112/248/41
f 110/249/42 109/250/42 88/251/42 85/252/42
f 112/253/43 111/254/43 108/255/43 107/256/43
f 111/247/44 110/246/44 41/71/44 40/70/44
f 110/257/45 85/258/45 22/259/45 41/260/45
f 108/261/46 111/262/46 40/263/46 35/264/46
f 80/265/47 113/266/47 43/81/47 13/84/47
f 80/265/48 82/267/48 114/268/48 113/266/48
f 115/269/49 116/270/49 50/271/49 49/272/49
f 113/273/50 117/274/50 45/107/50 43/275/50
f 118/276/51 117/277/51 113/278/51 114/279/51
f 117/274/52 119/280/52 48/108/52 45/107/52
f 119/280/53 115/281/53 49/282/53 48/108/53
f 116/283/54 115/284/54 119/285/54 120/286/54
f 121/287/55 122/288/55 123/289/55 124/290/55
f 125/291/56 126/292/56 117/293/56 118/294/56
f 127/295/57 128/296/57 120/297/57 119/298/57
f 126/299/58 127/300/58 119/280/58 117/274/58
f 124/301/59 123/302/59 126/292/59 125/291/59
f 123/303/60 122/304/60 127/300/60 126/299/60
f 129/305/61 130/306/61 131/307/61 132/308/61
f 132/309/62 131/310/62 128/311/62 127/312/62
f 130/313/63 129/314/63 122/288/63 121/287/63
f 133/315/64 134/316/64 135/317/64 136/318/64
f 134/319/65 133/320/65 122/288/65 129/314/65
f 134/321/61 129/305/61 132/308/61 135/322/61
f 136/323/66 135/324/66 132/309/66 127/312/66
f 122/325/59 133/326/59 136/327/59 127/328/59
f 137/329/67 138/330/67 104/331/67 103/332/67
f 38/333/68 37/334/68 138/335/68 137/336/68
f 102/337/69 101/338/69 139/339/69 140/340/69
f 140/341/70 139/342/70 106/343/70 105/344/70
f 102/345/71 140/346/71 137/347/71 103/348/71
f 140/341/72 105/344/72 38/333/72 137/336/72
f 47/349/73 46/350/73 56/351/73 57/352/73
f 57/352/74 56/351/74 51/353/74 54/354/74
f 141/355/75 142/356/75 143/357/75 144/358/75
f 143/359/76 54/96/76 61/122/76 144/360/76
f 60/114/20 141/361/20 144/362/20 61/115/20
f 57/118/77 142/363/77 141/364/77 60/119/77
f 142/365/16 57/366/16 54/367/16 143/368/16
f 70/369/78 69/370/78 1/371/78 4/372/78
f 74/373/78 73/374/78 5/375/78 8/376/78
f 78/377/78 77/378/78 9/379/78 12/380/78
f 82/381/79 81/382/79 15/383/79 14/384/79
f 87/385/78 86/386/78 17/387/78 20/388/78
f 86/179/80 88/180/80 21/21/80 17/24/80
f 69/184/81 87/183/81 20/27/81 1/26/81
f 92/389/78 91/390/78 23/391/78 26/392/78
f 91/195/82 70/196/82 4/33/82 23/36/82
f 73/200/81 92/199/81 26/39/81 5/38/81
f 94/203/83 74/204/83 8/41/83 28/44/83
f 77/212/81 96/211/81 29/47/81 9/46/81
f 96/393/78 94/394/78 28/395/78 29/396/78
f 98/219/82 78/220/82 12/53/82 32/56/82
f 81/228/81 100/227/81 33/59/81 15/58/81
f 100/397/78 98/398/78 32/399/78 33/400/78
f 107/401/84 106/402/84 37/403/84 36/404/84
f 109/245/85 112/248/85 39/69/85 42/72/85
f 88/405/86 109/406/86 42/407/86 21/408/86
f 112/409/87 107/410/87 36/411/87 39/412/87
f 114/268/88 82/267/88 14/83/88 44/82/88
f 118/413/89 114/414/89 44/415/89 46/350/89
f 120/416/90 118/413/90 46/350/90 47/349/90
f 116/417/91 120/416/91 47/349/91 50/418/91
f 128/419/92 125/420/92 118/413/92 120/416/92
f 121/421/93 124/422/93 125/420/93 128/419/93
f 145/423/94 146/424/94 147/425/94 148/426/94
f 146/427/95 145/428/95 130/313/95 121/287/95
f 130/306/61 145/429/61 148/430/61 131/307/61
f 148/431/96 147/432/96 128/311/96 131/310/96
f 146/433/59 121/434/59 128/435/59 147/436/59
f 139/437/97 101/438/97 104/439/97 138/440/97
f 106/343/98 139/342/98 138/335/98 37/334/98
