# This file uses centimeters as units for non-parametric coordinates.

mtllib charge_station.mtl
g default
v -0.451118 -0.327848 0.451118
v 0.451118 -0.327848 0.451118
v -0.451118 -0.327848 -0.451118
v 0.451118 -0.327848 -0.451118
v 0.301577 -0.398174 -0.301577
v -0.301577 -0.398174 -0.301577
v 0.301577 -0.398174 0.301577
v -0.301577 -0.398174 0.301577
v -0.431530 2.535393 0.431530
v 0.431530 2.535393 0.431530
v 0.431530 2.535393 -0.431530
v -0.431530 2.535393 -0.431530
v -0.308247 2.619457 0.308247
v 0.308247 2.619457 0.308247
v 0.308247 2.619457 -0.308247
v -0.308247 2.619457 -0.308247
v -0.139580 2.693646 0.139580
v 0.139580 2.693646 0.139580
v 0.139580 2.693646 -0.139580
v -0.139580 2.693646 -0.139580
v 0.441122 1.038179 0.500000
v 0.482755 1.038179 0.482755
v 0.500000 1.038179 0.441122
v 0.482755 -0.250025 0.482755
v 0.441122 -0.250025 0.500000
v 0.480449 -0.281151 0.480449
v 0.500000 -0.250025 0.441122
v -0.500000 1.038179 0.441122
v -0.482755 1.038179 0.482755
v -0.441122 1.038179 0.500000
v -0.482755 -0.250025 0.482755
v -0.500000 -0.250025 0.441122
v -0.480449 -0.281151 0.480449
v -0.441122 -0.250025 0.500000
v 0.500000 1.038179 -0.441122
v 0.482755 1.038179 -0.482755
v 0.441122 1.038179 -0.500000
v 0.482755 -0.250025 -0.482755
v 0.500000 -0.250025 -0.441122
v 0.480449 -0.281151 -0.480449
v 0.441122 -0.250025 -0.500000
v -0.441122 1.038179 -0.500000
v -0.482755 1.038179 -0.482755
v -0.500000 1.038179 -0.441122
v -0.482755 -0.250025 -0.482755
v -0.441122 -0.250025 -0.500000
v -0.480449 -0.281151 -0.480449
v -0.500000 -0.250025 -0.441122
v -0.500000 2.137956 0.441122
v -0.482755 2.137956 0.482755
v -0.441122 2.137956 0.500000
v 0.441122 2.137956 0.500000
v 0.482755 2.137956 0.482755
v 0.500000 2.137956 0.441122
v 0.500000 2.137956 -0.441122
v 0.482755 2.137956 -0.482755
v 0.441122 2.137956 -0.500000
v -0.441122 2.137956 -0.500000
v -0.482755 2.137956 -0.482755
v -0.500000 2.137956 -0.441122
v -0.477245 2.482330 0.477245
v -0.500000 2.455916 0.441122
v -0.482755 2.455916 0.482755
v -0.441122 2.455916 0.500000
v 0.477245 2.482330 0.477245
v 0.441122 2.455916 0.500000
v 0.482755 2.455916 0.482755
v 0.500000 2.455916 0.441122
v 0.477245 2.482330 -0.477245
v 0.500000 2.455916 -0.441122
v 0.482755 2.455916 -0.482755
v 0.441122 2.455916 -0.500000
v -0.477245 2.482330 -0.477245
v -0.441122 2.455916 -0.500000
v -0.482755 2.455916 -0.482755
v -0.500000 2.455916 -0.441122
v -0.591179 -0.222674 -0.413771
v -0.563828 -0.250025 -0.441122
v -0.563828 1.038179 -0.441122
v -0.591179 1.038179 -0.413771
v -0.591179 -0.222674 0.413771
v -0.563828 -0.250025 0.441122
v -0.591179 1.038179 0.413771
v -0.563828 1.038179 0.441122
v -0.591179 2.137956 0.413771
v -0.563828 2.137956 0.441122
v -0.563828 2.137956 -0.441122
v -0.591179 2.137956 -0.413771
v -0.591179 2.428565 0.413771
v -0.563828 2.455916 0.441122
v -0.591179 2.428565 -0.413771
v -0.563828 2.455916 -0.441122
v -0.591179 1.102418 0.365434
v -0.591179 1.102418 -0.365434
v -0.591179 2.073717 0.365434
v -0.591179 2.073717 -0.365434
v -0.455736 1.102418 0.365434
v -0.455736 1.102418 -0.365434
v -0.455736 2.073717 0.365434
v -0.455736 2.073717 -0.365434
vt 0.192242 0.252482
vt 0.184608 0.252482
vt 0.184608 0.016263
vt 0.192242 0.016263
vt 0.192242 0.454150
vt 0.184608 0.454150
vt 0.185031 0.010555
vt 0.354020 0.016263
vt 0.354020 0.252482
vt 0.354020 0.454150
vt 0.192242 0.512455
vt 0.184608 0.512455
vt 0.190409 0.001992
vt 0.355853 0.001992
vt 0.361232 0.010555
vt 0.361655 0.252482
vt 0.361655 0.016263
vt 0.361655 0.454150
vt 0.354020 0.512455
vt 0.185618 0.517298
vt 0.361655 0.512455
vt 0.360644 0.517298
vt 0.352262 0.527029
vt 0.194001 0.527029
vt 0.329655 0.542444
vt 0.216607 0.542444
vt 0.178859 0.252482
vt 0.171225 0.252482
vt 0.171225 0.016263
vt 0.178859 0.016263
vt 0.178859 0.454150
vt 0.171225 0.454150
vt 0.178436 0.010555
vt 0.178859 0.512455
vt 0.171225 0.512455
vt 0.173058 0.001992
vt 0.009446 0.016263
vt 0.002235 0.010555
vt 0.007614 0.001992
vt 0.177849 0.517298
vt 0.001812 0.016263
vt 0.002823 0.517298
vt 0.009446 0.512455
vt 0.169466 0.527029
vt 0.011205 0.527029
vt 0.009446 0.252482
vt 0.001812 0.252482
vt 0.001812 0.512455
vt 0.146859 0.542444
vt 0.033812 0.542444
vt 0.009446 0.454150
vt 0.001812 0.454150
vt 0.742797 0.238212
vt 0.742797 0.007007
vt 0.894544 0.007007
vt 0.894544 0.238212
vt 0.737781 0.001992
vt 0.737781 0.238212
vt 0.899560 0.001992
vt 0.899560 0.238212
vt 0.885680 0.249992
vt 0.751660 0.249992
vt 0.742797 0.439880
vt 0.737781 0.439880
vt 0.899560 0.439880
vt 0.894544 0.439880
vt 0.885680 0.428100
vt 0.751660 0.428100
vt 0.742797 0.493169
vt 0.737781 0.498185
vt 0.899560 0.498185
vt 0.894544 0.493169
vt 0.376921 0.512367
vt 0.510942 0.512367
vt 0.510942 0.690475
vt 0.376921 0.690475
vt 0.760224 0.578457
vt 0.811414 0.578457
vt 0.811414 0.629647
vt 0.760224 0.629647
vt 0.729295 0.547529
vt 0.842343 0.547529
vt 0.842343 0.660576
vt 0.729295 0.660576
vt 0.706688 0.524922
vt 0.864949 0.524922
vt 0.864949 0.683183
vt 0.706688 0.683183
vt 0.698306 0.516539
vt 0.704930 0.512367
vt 0.866708 0.512367
vt 0.873332 0.516539
vt 0.873332 0.691565
vt 0.866708 0.695738
vt 0.704930 0.695738
vt 0.698306 0.691565
vt 0.549323 0.548752
vt 0.659924 0.548752
vt 0.659924 0.659353
vt 0.549323 0.659353
vt 0.521901 0.521330
vt 0.687346 0.521330
vt 0.687346 0.686775
vt 0.521901 0.686775
vt 0.516523 0.515952
vt 0.523734 0.512367
vt 0.685513 0.512367
vt 0.692724 0.515952
vt 0.523734 0.695738
vt 0.516523 0.692153
vt 0.692724 0.692153
vt 0.685513 0.695738
vt 0.310504 0.546075
vt 0.310504 0.707853
vt 0.298800 0.707853
vt 0.298800 0.546075
vt 0.293219 0.546075
vt 0.293219 0.707853
vt 0.281514 0.707853
vt 0.281514 0.546075
vt 0.251097 0.680095
vt 0.251097 0.546075
vt 0.275933 0.546075
vt 0.275933 0.680095
vt 0.220679 0.680095
vt 0.220679 0.546075
vt 0.245515 0.546075
vt 0.245515 0.680095
vt 0.546046 0.243920
vt 0.538412 0.243920
vt 0.538412 0.007700
vt 0.546046 0.007700
vt 0.546046 0.445587
vt 0.538412 0.445587
vt 0.376633 0.243920
vt 0.376633 0.007700
vt 0.545623 0.001992
vt 0.546046 0.503892
vt 0.538412 0.503892
vt 0.376633 0.445587
vt 0.368999 0.243920
vt 0.368999 0.007700
vt 0.545035 0.508736
vt 0.376633 0.503892
vt 0.368999 0.445587
vt 0.369422 0.001992
vt 0.368999 0.503892
vt 0.370009 0.508736
vt 0.722803 0.266808
vt 0.730437 0.266808
vt 0.730437 0.503028
vt 0.722803 0.503028
vt 0.722803 0.065140
vt 0.730437 0.065140
vt 0.730014 0.508736
vt 0.561024 0.266808
vt 0.561024 0.503028
vt 0.561024 0.065140
vt 0.722803 0.006836
vt 0.730437 0.006836
vt 0.553390 0.266808
vt 0.553390 0.503028
vt 0.553390 0.065140
vt 0.561024 0.006836
vt 0.729427 0.001992
vt 0.553813 0.508736
vt 0.553390 0.006836
vt 0.554400 0.001992
vt 0.907903 0.761788
vt 0.907903 0.998008
vt 0.896199 0.998008
vt 0.896199 0.761788
vt 0.907903 0.560120
vt 0.896199 0.560120
vt 0.907903 0.501816
vt 0.896199 0.501816
vt 0.890618 0.501816
vt 0.890618 0.738036
vt 0.878913 0.738036
vt 0.878913 0.501816
vt 0.890618 0.939703
vt 0.878913 0.939703
vt 0.890618 0.998008
vt 0.878913 0.998008
vt 0.346503 0.724183
vt 0.346503 0.546075
vt 0.371340 0.546075
vt 0.371340 0.724183
vt 0.316086 0.724183
vt 0.316086 0.546075
vt 0.340922 0.546075
vt 0.340922 0.724183
vn 0.000000 1.000000 0.000000
vn 0.000000 1.000000 0.000000
vn 0.000000 1.000000 0.000000
vn 0.000000 1.000000 0.000000
vn -0.846810 -0.531896 0.000000
vn -0.846810 -0.531896 0.000000
vn -0.846810 -0.531896 0.000000
vn -0.846810 -0.531896 0.000000
vn -0.846810 -0.531896 0.000000
vn -0.846810 -0.531896 0.000000
vn 0.000000 -0.531897 -0.846809
vn 0.000000 -0.531897 -0.846809
vn 0.000000 -0.531897 -0.846809
vn 0.000000 -0.531897 -0.846809
vn 0.000000 -0.531897 -0.846809
vn 0.000000 -0.531897 -0.846809
vn 0.000000 -1.000000 0.000000
vn 0.000000 -1.000000 0.000000
vn 0.000000 -1.000000 0.000000
vn 0.000000 -1.000000 0.000000
vn 0.000000 -0.904927 -0.425567
vn 0.000000 -0.904927 -0.425567
vn 0.000000 -0.904927 -0.425567
vn 0.000000 -0.904927 -0.425567
vn 0.425567 -0.904927 0.000000
vn 0.425567 -0.904927 0.000000
vn 0.425567 -0.904927 0.000000
vn 0.425567 -0.904927 0.000000
vn 0.000000 -0.904927 0.425567
vn 0.000000 -0.904927 0.425567
vn 0.000000 -0.904927 0.425567
vn 0.000000 -0.904927 0.425567
vn -0.425567 -0.904927 0.000000
vn -0.425567 -0.904927 0.000000
vn -0.425567 -0.904927 0.000000
vn -0.425567 -0.904927 0.000000
vn 0.000000 0.826207 0.563366
vn 0.000000 0.826207 0.563366
vn 0.000000 0.826207 0.563366
vn 0.000000 0.826207 0.563366
vn 0.563366 0.826207 0.000000
vn 0.563366 0.826207 0.000000
vn 0.563366 0.826207 0.000000
vn 0.563366 0.826207 0.000000
vn 0.000000 0.826207 -0.563366
vn 0.000000 0.826207 -0.563366
vn 0.000000 0.826207 -0.563366
vn 0.000000 0.826207 -0.563366
vn -0.563366 0.826207 0.000000
vn -0.563366 0.826207 0.000000
vn -0.563366 0.826207 0.000000
vn -0.563366 0.826207 0.000000
vn 0.000000 0.915363 0.402630
vn 0.000000 0.915363 0.402630
vn 0.000000 0.915363 0.402630
vn 0.000000 0.915363 0.402630
vn 0.402630 0.915363 0.000000
vn 0.402630 0.915363 0.000000
vn 0.402630 0.915363 0.000000
vn 0.402630 0.915363 0.000000
vn 0.000000 0.915363 -0.402630
vn 0.000000 0.915363 -0.402630
vn 0.000000 0.915363 -0.402630
vn 0.000000 0.915363 -0.402630
vn -0.402630 0.915363 0.000000
vn -0.402630 0.915363 0.000000
vn -0.402630 0.915363 0.000000
vn -0.402630 0.915363 0.000000
vn 0.846810 -0.531896 0.000000
vn 0.846810 -0.531896 0.000000
vn 0.846810 -0.531896 0.000000
vn 0.846810 -0.531896 0.000000
vn 0.846810 -0.531896 0.000000
vn 0.846810 -0.531896 0.000000
vn 0.000000 -0.531896 0.846810
vn 0.000000 -0.531896 0.846809
vn 0.000000 -0.531896 0.846809
vn 0.000000 -0.531896 0.846809
vn 0.000000 -0.531896 0.846809
vn 0.000000 -0.531896 0.846810
vn 0.000000 0.652692 0.757623
vn 0.000000 0.652692 0.757623
vn 0.000000 0.652692 0.757623
vn 0.000000 0.652692 0.757623
vn 0.000000 0.652692 0.757623
vn 0.000000 0.652692 0.757623
vn 0.757623 0.652692 0.000000
vn 0.757623 0.652692 0.000000
vn 0.757623 0.652692 0.000000
vn 0.757623 0.652692 0.000000
vn 0.757623 0.652692 0.000000
vn 0.757623 0.652692 0.000000
vn 0.000000 0.652692 -0.757623
vn 0.000000 0.652692 -0.757623
vn 0.000000 0.652692 -0.757623
vn 0.000000 0.652692 -0.757623
vn 0.000000 0.652692 -0.757623
vn 0.000000 0.652692 -0.757623
vn -0.757623 0.652692 0.000000
vn -0.757623 0.652692 0.000000
vn -0.757623 0.652692 0.000000
vn -0.757623 0.652692 0.000000
vn -0.757623 0.652692 0.000000
vn -0.757623 0.652692 0.000000
vn 0.999826 0.000000 0.018663
vn 0.923880 0.000000 0.382684
vn 0.923879 -0.001126 0.382683
vn 0.999824 -0.000022 0.018747
vn 0.382683 0.000000 0.923880
vn 0.018663 0.000000 0.999826
vn 0.018747 -0.000022 0.999824
vn 0.382683 -0.001126 0.923879
vn -0.018663 0.000000 0.999826
vn -0.382683 0.000000 0.923880
vn -0.382683 -0.001126 0.923879
vn -0.018747 -0.000022 0.999824
vn -0.923880 0.000000 0.382684
vn -0.923880 0.000000 0.382684
vn -0.923879 -0.000459 0.382683
vn -0.923879 -0.001126 0.382683
vn 0.018663 0.000000 -0.999826
vn 0.382683 0.000000 -0.923880
vn 0.382683 -0.001126 -0.923879
vn 0.018747 -0.000022 -0.999824
vn 0.923880 0.000000 -0.382684
vn 0.999826 0.000000 -0.018663
vn 0.999824 -0.000022 -0.018747
vn 0.923879 -0.001126 -0.382683
vn -0.923880 0.000000 -0.382684
vn -0.923880 0.000000 -0.382684
vn -0.923879 -0.001126 -0.382683
vn -0.923879 -0.000459 -0.382683
vn -0.382683 0.000000 -0.923880
vn -0.018663 0.000000 -0.999826
vn -0.018747 -0.000022 -0.999824
vn -0.382683 -0.001126 -0.923879
vn 0.018663 0.000000 0.999826
vn -0.018663 0.000000 0.999826
vn 0.999826 0.000000 -0.018663
vn 0.999826 0.000000 0.018663
vn -0.018663 0.000000 -0.999826
vn 0.018663 0.000000 -0.999826
vn 0.018934 0.000203 0.999821
vn -0.018934 0.000203 0.999821
vn 0.999821 0.000203 -0.018934
vn 0.999821 0.000203 0.018934
vn -0.018934 0.000203 -0.999821
vn 0.018934 0.000203 -0.999821
vn 0.919582 -0.096342 0.380903
vn 0.380905 -0.096344 0.919581
vn -0.380905 -0.096344 0.919581
vn -0.919582 -0.096342 0.380903
vn 0.380905 -0.096344 -0.919581
vn 0.919582 -0.096342 -0.380903
vn -0.919582 -0.096342 -0.380903
vn -0.380905 -0.096344 -0.919581
vn -0.891357 0.262981 0.369221
vn -0.923872 0.004095 0.382680
vn -0.923832 0.010147 0.382664
vn -0.369210 0.262982 0.891361
vn -0.382664 0.010147 0.923832
vn 0.369210 0.262981 0.891361
vn 0.382664 0.010147 0.923832
vn 0.891356 0.262981 0.369222
vn 0.923832 0.010147 0.382664
vn 0.891357 0.262981 -0.369221
vn 0.923832 0.010147 -0.382664
vn 0.369210 0.262982 -0.891361
vn 0.382664 0.010147 -0.923832
vn -0.369210 0.262981 -0.891361
vn -0.382664 0.010147 -0.923832
vn -0.891356 0.262981 -0.369222
vn -0.923832 0.010147 -0.382664
vn -0.923872 0.004095 -0.382680
vn 0.382683 0.000000 0.923880
vn 0.923880 0.000000 0.382684
vn -0.923880 0.000000 0.382684
vn -0.923880 0.000000 0.382684
vn -0.382683 0.000000 0.923880
vn 0.923880 0.000000 -0.382684
vn 0.382683 0.000000 -0.923880
vn -0.382683 0.000000 -0.923880
vn -0.923880 0.000000 -0.382684
vn -0.923880 0.000000 -0.382684
vn -0.707107 -0.707106 0.000000
vn -0.707107 -0.707106 0.000000
vn -0.707107 -0.707106 0.000000
vn -0.707107 -0.707106 0.000000
vn -0.707107 0.000000 -0.707106
vn -0.707107 0.000000 -0.707106
vn -0.707107 0.000000 -0.707106
vn -0.707107 0.000000 -0.707106
vn -0.707107 0.000000 -0.707106
vn -0.707107 0.000000 -0.707106
vn -0.707107 0.000000 0.707106
vn -0.707107 0.000000 0.707106
vn -0.707107 0.000000 0.707106
vn -0.707107 0.000000 0.707106
vn -0.707107 0.000000 0.707106
vn -0.707107 0.000000 0.707106
vn -0.707108 0.000000 0.707106
vn -0.707108 0.000000 0.707106
vn -0.707107 0.000000 -0.707106
vn -0.707107 0.000000 -0.707106
vn -0.707109 0.707105 0.000000
vn -0.707109 0.707105 0.000000
vn -0.707109 0.707105 0.000000
vn -0.707109 0.707105 0.000000
vn -1.000000 0.000000 0.000000
vn -1.000000 0.000000 0.000000
vn -1.000000 0.000000 0.000000
vn -1.000000 0.000000 0.000000
vn -1.000000 0.000000 0.000000
vn -1.000000 0.000000 0.000000
vn -1.000000 0.000000 0.000000
vn -1.000000 0.000000 0.000000
vn -1.000000 0.000000 0.000000
vn -1.000000 0.000000 0.000000
vn -1.000000 0.000000 0.000000
vn -1.000000 0.000000 0.000000
vn 0.000000 0.000000 -1.000000
vn 0.000000 0.000000 -1.000000
vn 0.000000 0.000000 -1.000000
vn 0.000000 0.000000 -1.000000
vn 0.000000 -1.000000 -0.000000
vn 0.000000 -1.000000 -0.000000
vn 0.000000 -1.000000 -0.000000
vn 0.000000 -1.000000 -0.000000
vn -0.000000 0.000000 1.000000
vn -0.000000 0.000000 1.000000
vn -0.000000 0.000000 1.000000
vn -0.000000 0.000000 1.000000
vn 0.000000 0.000000 1.000000
vn 0.000000 0.000000 1.000000
vn 0.000000 0.000000 -1.000000
vn 0.000000 0.000000 -1.000000
vn 0.000000 0.000000 1.000000
vn 0.000000 0.000000 1.000000
vn 0.000000 1.000000 0.000000
vn 0.000000 1.000000 0.000000
vn 0.000000 1.000000 0.000000
vn 0.000000 1.000000 0.000000
vn 0.000000 0.000000 -1.000000
vn 0.000000 0.000000 -1.000000
vn -1.000000 0.000000 0.000000
vn -1.000000 0.000000 0.000000
vn -1.000000 0.000000 0.000000
vn -1.000000 0.000000 0.000000
vn -1.000000 0.000000 0.000000
vn -1.000000 0.000000 0.000000
vn -1.000000 0.000000 0.000000
vn -1.000000 0.000000 0.000000
vn -1.000000 -0.000000 0.000000
vn -1.000000 -0.000000 0.000000
vn -1.000000 -0.000000 0.000000
vn -1.000000 -0.000000 0.000000
vn -1.000000 0.000000 0.000000
vn -1.000000 0.000000 0.000000
vn -1.000000 0.000000 0.000000
vn -1.000000 0.000000 0.000000
vn 0.000000 1.000000 0.000000
vn 0.000000 1.000000 0.000000
vn 0.000000 1.000000 0.000000
vn 0.000000 1.000000 0.000000
vn 0.000000 0.000000 -1.000000
vn 0.000000 0.000000 -1.000000
vn 0.000000 0.000000 -1.000000
vn 0.000000 0.000000 -1.000000
vn 0.000000 -1.000000 0.000000
vn 0.000000 -1.000000 0.000000
vn 0.000000 -1.000000 0.000000
vn 0.000000 -1.000000 0.000000
vn 0.000000 0.000000 1.000000
vn 0.000000 0.000000 1.000000
vn 0.000000 0.000000 1.000000
vn 0.000000 0.000000 1.000000
s off
g pCube1
usemtl initialShadingGroup
f 17/77/1 18/78/2 19/79/3 20/80/4
f 1/36/5 33/33/6 32/29/7 48/37/8 47/38/9 3/39/10
f 3/101/11 47/105/12 46/106/13 41/107/14 40/108/15 4/102/16
f 6/97/17 5/98/18 7/99/19 8/100/20
f 3/101/21 4/102/22 5/98/23 6/97/24
f 4/102/25 2/103/26 7/99/27 5/98/28
f 2/103/29 1/104/30 8/100/31 7/99/32
f 1/104/33 3/101/34 6/97/35 8/100/36
f 9/85/37 10/86/38 14/82/39 13/81/40
f 10/24/41 11/23/42 15/25/43 14/26/44
f 11/87/45 12/88/46 16/84/47 15/83/48
f 12/45/49 9/44/50 13/49/51 16/50/52
f 13/81/53 14/82/54 18/78/55 17/77/56
f 14/82/57 15/83/58 19/79/59 18/78/60
f 15/83/61 16/84/62 20/80/63 19/79/64
f 16/84/65 13/81/66 17/77/67 20/80/68
f 27/4/69 26/7/70 2/13/71 4/14/72 40/15/73 39/8/74
f 34/109/75 33/110/76 1/104/77 2/103/78 26/111/79 25/112/80
f 61/89/81 64/90/82 66/91/83 65/92/84 10/86/85 9/85/86
f 65/20/87 68/11/88 70/19/89 69/22/90 11/23/91 10/24/92
f 69/93/93 72/94/94 74/95/95 73/96/96 12/88/97 11/87/98
f 73/42/99 76/43/100 62/35/101 61/40/102 9/44/103 12/45/104
s 1
f 23/1/105 22/2/106 24/3/107 27/4/108
s 2
f 22/129/109 21/130/110 25/131/111 24/132/112
f 30/135/113 29/141/114 31/142/115 34/136/116
s 4
f 29/27/117 28/28/118 32/29/119 31/30/120
s 5
f 37/149/121 36/150/122 38/151/123 41/152/124
s 1
f 36/16/125 35/9/126 39/8/127 38/17/128
s 7
f 44/46/129 43/47/130 45/41/131 48/37/132
s 5
f 43/161/133 42/156/134 46/157/135 45/162/136
s 2
f 30/135/113 34/136/116 25/131/111 21/130/110
s 5
f 42/156/134 37/149/121 41/152/124 46/157/135
s 1
f 23/1/105 27/4/108 39/8/127 35/9/126
s 2
f 30/135/113 21/130/110 52/134/137 51/140/138
s 1
f 23/1/105 35/9/126 55/10/139 54/5/140
s 5
f 37/149/121 42/156/134 58/158/141 57/153/142
s 2
f 51/140/138 52/134/137 66/139/143 64/144/144
s 1
f 54/5/140 55/10/139 70/19/145 68/11/146
s 5
f 57/153/142 58/158/141 74/164/147 72/159/148
s 1
f 26/7/149 27/4/108 24/3/107
s 2
f 26/137/150 24/132/112 25/131/111
f 33/146/151 34/136/116 31/142/115
s 4
f 33/33/152 31/30/120 32/29/119
s 5
f 40/155/153 41/152/124 38/151/123
s 1
f 40/15/154 38/17/128 39/8/127
s 7
f 47/38/155 48/37/132 45/41/131
s 5
f 47/166/156 45/162/136 46/157/135
s 4
f 61/40/157 62/35/158 63/34/159
s 2
f 61/148/160 63/147/161 64/144/144
f 65/143/162 66/139/143 67/138/163
s 1
f 65/20/164 67/12/165 68/11/146
f 69/22/166 70/19/145 71/21/167
s 5
f 69/165/168 71/160/169 72/159/148
f 73/168/170 74/164/147 75/167/171
s 7
f 73/42/172 75/48/173 76/43/174
s 2
f 21/130/110 22/129/109 53/133/175 52/134/137
s 1
f 22/2/106 23/1/105 54/5/140 53/6/176
s 4
f 28/28/118 29/27/117 50/31/177 49/32/178
s 2
f 29/141/114 30/135/113 51/140/138 50/145/179
s 1
f 35/9/126 36/16/125 56/18/180 55/10/139
s 5
f 36/150/122 37/149/121 57/153/142 56/154/181
f 42/156/134 43/161/133 59/163/182 58/158/141
s 7
f 43/47/130 44/46/129 60/51/183 59/52/184
s 4
f 49/32/178 50/31/177 63/34/159 62/35/158
s 2
f 50/145/179 51/140/138 64/144/144 63/147/161
f 52/134/137 53/133/175 67/138/163 66/139/143
s 1
f 53/6/176 54/5/140 68/11/146 67/12/165
f 55/10/139 56/18/180 71/21/167 70/19/145
s 5
f 56/154/181 57/153/142 72/159/148 71/160/169
f 58/158/141 59/163/182 75/167/171 74/164/147
s 7
f 59/52/184 60/51/183 76/43/174 75/48/173
s off
f 77/54/185 78/57/186 82/59/187 81/55/188
s 11
f 78/57/189 77/54/190 80/53/191 79/58/192
f 79/58/192 80/53/191 88/63/193 87/64/194
s 12
f 81/55/195 82/59/196 84/60/197 83/56/198
f 83/56/198 84/60/197 86/65/199 85/66/200
f 85/66/200 86/65/199 90/71/201 89/72/202
s 11
f 87/64/194 88/63/193 91/69/203 92/70/204
s off
f 89/72/205 90/71/206 92/70/207 91/69/208
f 80/53/209 77/54/210 81/55/211 83/56/212
f 98/73/213 97/74/214 99/75/215 100/76/216
f 88/63/217 85/66/218 89/72/219 91/69/220
s 13
f 44/169/221 48/170/222 78/171/223 79/172/224
s off
f 48/113/225 32/114/226 82/115/227 78/116/228
s 14
f 32/177/229 28/178/230 84/179/231 82/180/232
f 28/178/230 49/181/233 86/182/234 84/179/231
s 13
f 60/173/235 44/169/221 79/172/224 87/174/236
s 14
f 49/181/233 62/183/237 90/184/238 86/182/234
s off
f 62/117/239 76/118/240 92/119/241 90/120/242
s 13
f 76/175/243 60/173/235 87/174/236 92/176/244
s off
f 80/53/245 83/56/246 93/61/247 94/62/248
f 83/56/249 85/66/250 95/67/251 93/61/252
f 85/66/253 88/63/254 96/68/255 95/67/256
f 88/63/257 80/53/258 94/62/259 96/68/260
f 94/121/261 93/122/262 97/123/263 98/124/264
f 93/185/265 95/186/266 99/187/267 97/188/268
f 95/125/269 96/126/270 100/127/271 99/128/272
f 96/189/273 94/190/274 98/191/275 100/192/276
