# Blender v2.93.1 OBJ File: ''
# www.blender.org
mtllib ROCKET_MLRS_01.mtl
o ROCKET_MLRS_01
v 0.031866 -0.031867 2.045785
v 0.072417 -0.072418 1.975368
v 0.102415 -0.000000 1.975365
v 0.043726 -0.000000 2.046864
v -0.031866 0.031867 2.045785
v -0.072417 0.072416 1.975368
v -0.102415 -0.000000 1.975365
v -0.043727 -0.000000 2.046864
v 0.072417 0.072416 1.975368
v 0.031866 0.031867 2.045785
v -0.072417 -0.072417 1.975368
v -0.031867 -0.031867 2.045785
v 0.000000 -0.043727 2.046864
v 0.000000 -0.102414 1.975365
v 0.000000 -0.000000 2.072073
v 0.000000 0.043727 2.046863
v 0.000000 0.102495 -1.885143
v 0.000000 0.136877 -1.667461
v 0.096787 0.096787 -1.667461
v 0.072475 0.072475 -1.885143
v -0.072475 0.072475 -1.885143
v -0.096787 0.096788 -1.667461
v 0.105338 -0.105338 -1.194492
v 0.148972 0.000000 -1.194492
v -0.105339 0.105341 -1.194493
v -0.148971 0.000000 -1.194492
v 0.105339 0.105339 -1.194492
v -0.105339 -0.105338 -1.194492
v 0.000000 -0.148971 -1.194492
v 0.000000 0.148938 1.817387
v 0.000000 0.102414 1.975365
v 0.105315 0.105315 1.817387
v -0.105315 0.105315 1.817387
v 0.105315 -0.105315 1.817387
v 0.148938 -0.000000 1.817387
v -0.148939 -0.000000 1.817387
v -0.105315 -0.105315 1.817387
v 0.000000 -0.148938 1.817387
v 0.000000 0.136808 -1.242272
v 0.096738 0.096739 -1.242272
v -0.096737 0.096739 -1.242272
v 0.096787 -0.096786 -1.667461
v 0.072475 -0.072474 -1.885143
v 0.102495 0.000000 -1.885143
v 0.136878 0.000000 -1.667461
v -0.102494 0.000000 -1.885143
v -0.136878 0.000000 -1.667461
v -0.072475 -0.072474 -1.885143
v -0.096787 -0.096786 -1.667461
v 0.000000 -0.136877 -1.667461
v 0.000000 -0.102495 -1.885143
v 0.000000 -0.074460 -1.884564
v 0.052651 -0.052651 -1.884564
v 0.074460 0.000000 -1.884564
v 0.052651 0.052652 -1.884564
v 0.000000 0.074461 -1.884564
v -0.074461 0.000000 -1.884564
v -0.052651 -0.052651 -1.884564
v -0.052651 0.052652 -1.884564
v 0.000000 -0.074482 -2.072041
v 0.052667 -0.052666 -2.072041
v 0.074482 0.000000 -2.072041
v 0.052667 0.052667 -2.072041
v 0.000000 0.074483 -2.072041
v -0.074482 0.000000 -2.072041
v -0.052667 -0.052666 -2.072041
v -0.052667 0.052667 -2.072041
v 0.000000 -0.030071 -2.072073
v 0.021239 -0.021238 -2.072039
v 0.030073 0.000000 -2.072073
v 0.021238 0.021239 -2.072039
v 0.000000 0.030073 -2.072073
v -0.030072 0.000000 -2.072073
v -0.021239 -0.021238 -2.072039
v -0.021238 0.021239 -2.072039
v 0.000000 -0.030242 -1.995328
v 0.000000 0.000000 -1.989733
v 0.030244 0.000000 -1.995328
v 0.019376 -0.019375 -1.991786
v 0.000000 0.030244 -1.995328
v 0.019376 0.019376 -1.991786
v -0.030243 0.000000 -1.995328
v -0.019376 -0.019375 -1.991787
v -0.019375 0.019376 -1.991786
v 0.096738 -0.096739 -1.242272
v 0.136808 0.000000 -1.242272
v -0.136808 0.000000 -1.242272
v -0.096738 -0.096739 -1.242272
v 0.000000 -0.136807 -1.242272
v 0.000000 0.148973 -1.194493
v -0.077487 -0.030007 -0.919292
v -0.257527 -0.016036 -0.917936
v -0.255960 -0.014351 -1.162261
v -0.077261 -0.026054 -1.164160
v 0.077487 0.030008 -0.919292
v 0.257527 0.016036 -0.917936
v 0.255960 0.014351 -1.162261
v 0.077261 0.026055 -1.164160
v -0.086048 -0.015498 -0.373504
v -0.257527 0.016036 -0.917936
v -0.255960 0.014351 -1.162261
v 0.086048 0.015498 -0.373504
v 0.077487 -0.030007 -0.919292
v 0.077261 -0.026054 -1.164160
v 0.255960 -0.014351 -1.162261
v 0.257527 -0.016036 -0.917936
v 0.086048 -0.015498 -0.373504
v -0.077487 0.030008 -0.919292
v -0.077261 0.026055 -1.164160
v -0.086048 0.015498 -0.373504
v -0.030007 0.077488 -0.919292
v -0.016037 0.257528 -0.917936
v -0.014350 0.255961 -1.162261
v -0.026054 0.077261 -1.164160
v 0.030007 -0.077486 -0.919292
v 0.016037 -0.257527 -0.917936
v 0.014350 -0.255960 -1.162261
v 0.026054 -0.077261 -1.164160
v -0.015498 0.086049 -0.373504
v 0.016037 0.257528 -0.917936
v 0.014350 0.255961 -1.162261
v 0.015498 -0.086046 -0.373504
v -0.030007 -0.077486 -0.919292
v -0.026054 -0.077261 -1.164160
v -0.014350 -0.255960 -1.162261
v -0.016037 -0.257527 -0.917936
v -0.015498 -0.086046 -0.373504
v 0.030007 0.077488 -0.919292
v 0.026054 0.077261 -1.164160
v 0.015498 0.086049 -0.373504
vt 0.080846 0.984830
vt 0.092453 0.959841
vt 0.115677 0.973501
vt 0.088411 0.993684
vt 0.221259 0.984669
vt 0.232869 0.959681
vt 0.256092 0.973343
vt 0.228824 0.993523
vt 0.193082 0.993419
vt 0.166051 0.973170
vt 0.189147 0.959655
vt 0.200671 0.984629
vt 0.052670 0.993582
vt 0.025637 0.973336
vt 0.048732 0.959818
vt 0.060258 0.984792
vt 0.070551 0.982537
vt 0.070580 0.955779
vt 0.070512 0.999604
vt 0.210924 0.999442
vt 0.210964 0.982375
vt 0.391710 0.657019
vt 0.391295 0.545960
vt 0.442848 0.546798
vt 0.432911 0.658956
vt 0.350661 0.658811
vt 0.339895 0.548061
vt 0.142296 0.920701
vt 0.140810 0.016447
vt 0.176615 0.019293
vt 0.176890 0.913202
vt 0.001876 0.920867
vt 0.000396 0.016528
vt 0.036341 0.019419
vt 0.036472 0.913367
vt 0.071227 0.020147
vt 0.070512 0.910260
vt 0.245076 0.912994
vt 0.245710 0.019351
vt 0.280442 0.016431
vt 0.280442 0.920560
vt 0.210929 0.910096
vt 0.210995 0.955617
vt 0.105548 0.019286
vt 0.104657 0.913155
vt 0.140019 0.920718
vt 0.390136 0.333006
vt 0.444413 0.333143
vt 0.335761 0.333553
vt 0.338904 0.215324
vt 0.349581 0.326165
vt 0.309019 0.332215
vt 0.286373 0.219907
vt 0.310512 0.664733
vt 0.287172 0.553138
vt 0.495950 0.550789
vt 0.474023 0.664733
vt 0.494678 0.218864
vt 0.472544 0.332215
vt 0.431639 0.326353
vt 0.441987 0.214506
vt 0.390394 0.213427
vt 0.390563 0.324371
vt 0.309394 0.782073
vt 0.314842 0.795226
vt 0.294385 0.815682
vt 0.281233 0.810235
vt 0.294385 0.844613
vt 0.281233 0.850060
vt 0.314842 0.865070
vt 0.309394 0.878222
vt 0.343772 0.865070
vt 0.349220 0.878222
vt 0.377381 0.810234
vt 0.364229 0.815681
vt 0.343772 0.795225
vt 0.349220 0.782073
vt 0.364229 0.844612
vt 0.377381 0.850060
vt 0.472377 0.694471
vt 0.472376 0.723402
vt 0.377203 0.723402
vt 0.377204 0.694463
vt 0.472381 0.665541
vt 0.377208 0.665524
vt 0.376408 0.752334
vt 0.376411 0.781265
vt 0.281238 0.781282
vt 0.281234 0.752342
vt 0.376406 0.723403
vt 0.281233 0.723403
vt 0.472377 0.752333
vt 0.472381 0.781264
vt 0.377208 0.781281
vt 0.377204 0.752342
vt 0.376408 0.694472
vt 0.281234 0.694463
vt 0.376411 0.665541
vt 0.281238 0.665524
vt 0.402515 0.831475
vt 0.423344 0.822847
vt 0.431614 0.831093
vt 0.422979 0.851938
vt 0.443291 0.831110
vt 0.451918 0.851938
vt 0.451535 0.822840
vt 0.472381 0.831475
vt 0.451553 0.811163
vt 0.472381 0.802535
vt 0.422978 0.782073
vt 0.431606 0.802902
vt 0.423361 0.811170
vt 0.402515 0.802536
vt 0.443283 0.802918
vt 0.451917 0.782072
vt 0.651885 0.804991
vt 0.667498 0.804998
vt 0.667498 0.820612
vt 0.657632 0.814860
vt 0.497318 0.747839
vt 0.485641 0.747839
vt 0.485665 0.708879
vt 0.496942 0.707078
vt 0.401724 0.822833
vt 0.390047 0.822833
vt 0.390423 0.782072
vt 0.401700 0.783873
vt 0.634689 0.804991
vt 0.634689 0.820605
vt 0.619075 0.820612
vt 0.624823 0.810744
vt 0.484849 0.706286
vt 0.473172 0.706179
vt 0.473556 0.667221
vt 0.484849 0.665524
vt 0.484849 0.747839
vt 0.473172 0.747839
vt 0.473548 0.707078
vt 0.484826 0.708879
vt 0.683902 0.804991
vt 0.683902 0.820605
vt 0.668289 0.820611
vt 0.674037 0.810743
vt 0.497318 0.830940
vt 0.485641 0.830940
vt 0.485665 0.791980
vt 0.496942 0.790180
vt 0.484850 0.789390
vt 0.473172 0.789390
vt 0.473548 0.748630
vt 0.484825 0.750430
vt 0.651094 0.804991
vt 0.651094 0.820605
vt 0.635480 0.820612
vt 0.641228 0.810743
vt 0.497318 0.789389
vt 0.485641 0.789389
vt 0.485666 0.750428
vt 0.496943 0.748628
vt 0.497318 0.706285
vt 0.485641 0.706285
vt 0.486016 0.665524
vt 0.497293 0.667324
vt 0.104722 0.004333
vt 0.137272 0.001276
vt 0.140019 0.016701
vt 0.244809 0.003861
vt 0.277701 0.001134
vt 0.143723 0.000396
vt 0.177595 0.003709
vt 0.003309 0.000396
vt 0.037339 0.003706
vt 0.071341 0.004713
vt 0.211202 0.019838
vt 0.211232 0.004727
vt 0.335686 0.000792
vt 0.281233 0.001828
vt 0.281233 0.334771
vt 0.497894 0.333625
vt 0.498581 0.001376
vt 0.444268 0.000656
vt 0.390014 0.000396
vt 0.499372 0.679878
vt 0.591039 0.678652
vt 0.591039 0.802690
vt 0.500135 0.804200
vt 0.684290 0.277580
vt 0.775957 0.276355
vt 0.775957 0.400393
vt 0.685053 0.401902
vt 0.502650 0.402693
vt 0.902562 0.704759
vt 0.901706 0.828794
vt 0.887136 0.828794
vt 0.886280 0.704759
vt 0.687567 0.000396
vt 0.776748 0.124718
vt 0.777511 0.000396
vt 0.868415 0.001905
vt 0.868415 0.125944
vt 0.886280 0.290164
vt 0.886553 0.000396
vt 0.902288 0.000396
vt 0.902562 0.290164
vt 0.780026 0.401902
vt 0.499372 0.804991
vt 0.525825 0.804991
vt 0.519884 0.895714
vt 0.505313 0.895714
vt 0.901706 0.414199
vt 0.887136 0.414199
vt 0.684290 0.527016
vt 0.685053 0.402694
vt 0.775957 0.404203
vt 0.775957 0.528241
vt 0.886553 0.414991
vt 0.902288 0.414991
vt 0.687568 0.804200
vt 0.526616 0.804991
vt 0.553070 0.804991
vt 0.547129 0.895714
vt 0.532558 0.895714
vt 0.776748 0.679878
vt 0.868415 0.678652
vt 0.868415 0.802691
vt 0.777510 0.804200
vt 0.499372 0.277580
vt 0.591040 0.276354
vt 0.591040 0.400393
vt 0.500135 0.401902
vt 0.780026 0.402694
vt 0.885489 0.290164
vt 0.884633 0.414200
vt 0.870063 0.414200
vt 0.869206 0.290164
vt 0.502649 0.000396
vt 0.591831 0.124718
vt 0.592594 0.000396
vt 0.683499 0.001905
vt 0.683499 0.125944
vt 0.869206 0.704760
vt 0.869480 0.414991
vt 0.885215 0.414991
vt 0.885489 0.704760
vt 0.595108 0.401902
vt 0.580314 0.895714
vt 0.553861 0.895714
vt 0.559803 0.804991
vt 0.574372 0.804991
vt 0.884632 0.828795
vt 0.870063 0.828795
vt 0.591831 0.527016
vt 0.592593 0.402693
vt 0.683498 0.404203
vt 0.683498 0.528241
vt 0.869479 0.000396
vt 0.885214 0.000396
vt 0.595109 0.804200
vt 0.618284 0.895714
vt 0.591831 0.895714
vt 0.597773 0.804991
vt 0.612343 0.804991
vn 0.4796 -0.4796 0.7348
vn 0.6321 -0.6321 0.4483
vn 0.8941 0.0000 0.4478
vn 0.6300 0.0000 0.7766
vn -0.4796 0.4796 0.7348
vn -0.6321 0.6321 0.4483
vn -0.8941 0.0000 0.4478
vn -0.6300 0.0000 0.7766
vn 0.6321 0.6321 0.4483
vn 0.4796 0.4796 0.7348
vn -0.6321 -0.6321 0.4483
vn -0.4796 -0.4796 0.7348
vn 0.0000 -0.6300 0.7766
vn -0.0000 -0.8941 0.4478
vn 0.0000 0.0000 1.0000
vn 0.0000 0.6300 0.7766
vn 0.0000 0.9878 -0.1560
vn 0.0000 0.9971 -0.0767
vn 0.7050 0.7050 -0.0767
vn 0.6984 0.6985 -0.1560
vn -0.6984 0.6984 -0.1560
vn -0.7050 0.7050 -0.0767
vn 0.9904 -0.0000 0.1380
vn 0.9927 -0.0000 -0.1207
vn 0.7019 0.7019 -0.1207
vn 0.7003 0.7003 0.1380
vn -0.9904 -0.0000 0.1380
vn -0.9927 -0.0000 -0.1207
vn -0.7019 -0.7019 -0.1207
vn -0.7003 -0.7003 0.1380
vn 0.0000 -0.9927 -0.1207
vn -0.0000 -0.9904 0.1380
vn -0.7003 0.7003 0.1380
vn -0.7019 0.7019 -0.1207
vn 0.0000 0.9904 0.1380
vn 0.0000 0.8941 0.4478
vn 0.7019 -0.7019 -0.1207
vn 0.7003 -0.7003 0.1380
vn 0.0000 0.9918 -0.1282
vn 0.7013 0.7013 -0.1281
vn -0.7013 0.7013 -0.1282
vn 0.7050 -0.7050 -0.0767
vn 0.6984 -0.6984 -0.1560
vn 0.9878 -0.0000 -0.1560
vn 0.9971 -0.0000 -0.0767
vn -0.9878 -0.0000 -0.1560
vn -0.9971 -0.0000 -0.0767
vn -0.6985 -0.6984 -0.1560
vn -0.7050 -0.7050 -0.0767
vn 0.0000 -0.9971 -0.0767
vn 0.0000 -0.9878 -0.1560
vn 0.0000 0.0206 -0.9998
vn -0.0146 0.0146 -0.9998
vn -0.0206 0.0000 -0.9998
vn -0.0146 -0.0146 -0.9998
vn 0.0000 -0.0206 -0.9998
vn 0.0206 0.0000 -0.9998
vn 0.0146 0.0146 -0.9998
vn 0.0146 -0.0146 -0.9998
vn 0.7071 -0.7071 0.0001
vn 0.0000 -1.0000 0.0001
vn 1.0000 -0.0000 0.0001
vn 0.7071 0.7071 0.0001
vn 0.0000 1.0000 0.0001
vn -0.7071 -0.7071 0.0001
vn -1.0000 -0.0000 0.0001
vn -0.7071 0.7071 0.0001
vn 0.0000 -0.0002 -1.0000
vn 0.0004 -0.0004 -1.0000
vn 0.0002 -0.0000 -1.0000
vn 0.0004 0.0004 -1.0000
vn -0.0000 0.0002 -1.0000
vn -0.0002 -0.0000 -1.0000
vn -0.0004 -0.0004 -1.0000
vn -0.0004 0.0004 -1.0000
vn 0.0000 0.0529 -0.9986
vn 0.0000 0.0000 -1.0000
vn -0.0529 0.0000 -0.9986
vn -0.0528 0.0528 -0.9972
vn -0.7070 0.7070 -0.0157
vn 0.0000 0.9999 -0.0165
vn -0.9999 -0.0000 -0.0165
vn -0.0000 -0.0529 -0.9986
vn -0.0528 -0.0528 -0.9972
vn -0.7070 -0.7070 -0.0157
vn 0.0000 -0.9999 -0.0165
vn 0.0529 0.0000 -0.9986
vn 0.0529 0.0529 -0.9972
vn 0.7070 0.7070 -0.0157
vn 0.9999 -0.0000 -0.0165
vn 0.0528 -0.0528 -0.9972
vn 0.7070 -0.7070 -0.0157
vn 0.7013 -0.7013 -0.1281
vn 0.9918 -0.0000 -0.1281
vn -0.9918 -0.0000 -0.1281
vn -0.7013 -0.7013 -0.1281
vn 0.0000 -0.9918 -0.1281
vn 0.0000 0.9927 -0.1207
vn -0.0743 -0.9972 0.0066
vn -0.0740 -0.9972 0.0049
vn -0.0715 -0.9974 -0.0118
vn 0.0743 0.9972 0.0066
vn 0.0741 0.9972 0.0049
vn 0.0715 0.9974 -0.0118
vn -0.0772 -0.9967 0.0253
vn -0.9888 0.0000 0.1491
vn -1.0000 0.0000 -0.0064
vn 0.0772 0.9967 0.0253
vn 0.0743 -0.9972 0.0066
vn 0.0715 -0.9974 -0.0118
vn 0.0740 -0.9972 0.0049
vn 0.9888 0.0000 0.1491
vn 0.9538 0.0000 0.3004
vn 0.0772 -0.9967 0.0253
vn 0.0106 0.0000 -0.9999
vn 1.0000 0.0000 -0.0064
vn -0.0743 0.9972 0.0066
vn -0.0715 0.9974 -0.0118
vn -0.0741 0.9972 0.0049
vn -0.9538 0.0000 0.3004
vn -0.0772 0.9967 0.0253
vn -0.0106 0.0000 -0.9999
vn -0.9972 0.0743 0.0066
vn -0.9972 0.0740 0.0049
vn -0.9974 0.0715 -0.0118
vn 0.9972 -0.0743 0.0066
vn 0.9972 -0.0740 0.0049
vn 0.9974 -0.0715 -0.0118
vn -0.9967 0.0771 0.0253
vn 0.0000 0.9888 0.1491
vn 0.0000 1.0000 -0.0064
vn 0.9967 -0.0771 0.0253
vn -0.9972 -0.0743 0.0066
vn -0.9974 -0.0715 -0.0118
vn -0.9972 -0.0740 0.0049
vn 0.0000 -0.9888 0.1491
vn 0.0000 -0.9538 0.3004
vn -0.9967 -0.0771 0.0253
vn 0.0000 -0.0106 -0.9999
vn 0.0000 -1.0000 -0.0064
vn 0.9972 0.0743 0.0066
vn 0.9974 0.0715 -0.0118
vn 0.9972 0.0740 0.0049
vn 0.0000 0.9538 0.3004
vn 0.9967 0.0771 0.0253
vn 0.0000 0.0106 -0.9999
usemtl Default_OBJ
s 1
f 1/1/1 2/2/2 3/3/3 4/4/4
f 5/5/5 6/6/6 7/7/7 8/8/8
f 4/9/4 3/10/3 9/11/9 10/12/10
f 8/13/8 7/14/7 11/15/11 12/16/12
f 13/17/13 14/18/14 2/2/2 1/1/1
f 8/13/8 12/16/12 13/17/13 15/19/15
f 5/5/5 8/8/8 15/20/15 16/21/16
f 17/22/17 18/23/18 19/24/19 20/25/20
f 16/21/16 15/20/15 4/9/4 10/12/10
f 15/19/15 13/17/13 1/1/1 4/4/4
f 12/16/12 11/15/11 14/18/14 13/17/13
f 21/26/21 22/27/22 18/23/18 17/22/17
f 35/28/23 24/29/24 27/30/25 32/31/26
f 36/32/27 26/33/28 28/34/29 37/35/30
f 37/35/30 28/34/29 29/36/31 38/37/32
f 33/38/33 25/39/34 26/40/28 36/41/27
f 30/42/35 31/43/36 9/11/9 32/31/26
f 38/37/32 29/36/31 23/44/37 34/45/38
f 33/38/33 6/6/6 31/43/36 30/42/35
f 2/2/2 34/45/38 35/46/23 3/3/3
f 6/6/6 33/38/33 36/41/27 7/7/7
f 3/10/3 35/28/23 32/31/26 9/11/9
f 7/14/7 36/32/27 37/35/30 11/15/11
f 14/18/14 38/37/32 34/45/38 2/2/2
f 11/15/11 37/35/30 38/37/32 14/18/14
f 31/43/36 16/21/16 10/12/10 9/11/9
f 6/6/6 5/5/5 16/21/16 31/43/36
f 18/23/18 39/47/39 40/48/40 19/24/19
f 22/27/22 41/49/41 39/47/39 18/23/18
f 42/50/42 43/51/43 44/52/44 45/53/45
f 22/27/22 21/26/21 46/54/46 47/55/47
f 45/56/45 44/57/44 20/25/20 19/24/19
f 47/58/47 46/59/46 48/60/48 49/61/49
f 50/62/50 51/63/51 43/51/43 42/50/42
f 49/61/49 48/60/48 51/63/51 50/62/50
f 51/64/52 52/65/52 53/66/53 43/67/53
f 53/66/53 54/68/54 44/69/54 43/67/53
f 44/69/54 54/68/54 55/70/55 20/71/55
f 55/70/55 56/72/56 17/73/56 20/71/55
f 46/74/57 57/75/57 58/76/58 48/77/58
f 58/76/58 52/65/52 51/64/52 48/77/58
f 17/73/56 56/72/56 59/78/59 21/79/59
f 59/78/59 57/75/57 46/74/57 21/79/59
f 53/80/60 52/81/61 60/82/61 61/83/60
f 54/84/62 53/80/60 61/83/60 62/85/62
f 55/86/63 54/87/62 62/88/62 63/89/63
f 56/90/64 55/86/63 63/89/63 64/91/64
f 58/92/65 57/93/66 65/94/66 66/95/65
f 52/81/61 58/92/65 66/95/65 60/82/61
f 59/96/67 56/90/64 64/91/64 67/97/67
f 57/98/66 59/96/67 67/97/67 65/99/66
f 60/100/68 68/101/68 69/102/69 61/103/69
f 69/102/69 70/104/70 62/105/70 61/103/69
f 62/105/70 70/104/70 71/106/71 63/107/71
f 71/106/71 72/108/72 64/109/72 63/107/71
f 65/110/73 73/111/73 74/112/74 66/113/74
f 74/112/74 68/101/68 60/100/68 66/113/74
f 64/109/72 72/108/72 75/114/75 67/115/75
f 75/114/75 73/111/73 65/110/73 67/115/75
f 76/116/76 77/117/77 78/118/78 79/119/79
f 69/120/80 68/121/81 76/122/81 79/123/80
f 70/124/82 69/125/80 79/126/80 78/127/82
f 78/128/78 77/129/77 80/130/83 81/131/84
f 71/132/85 70/133/82 78/134/82 81/135/85
f 72/136/86 71/137/85 81/138/85 80/139/86
f 82/140/87 77/141/77 76/142/76 83/143/88
f 74/144/89 73/145/90 82/146/90 83/147/89
f 68/148/81 74/149/89 83/150/89 76/151/81
f 80/152/83 77/153/77 82/154/87 84/155/91
f 75/156/92 72/157/86 80/158/86 84/159/92
f 73/160/90 75/161/92 84/162/92 82/163/90
f 23/44/37 85/164/93 86/165/94 24/166/24
f 25/39/34 41/167/41 87/168/95 26/40/28
f 24/29/24 86/169/94 40/170/40 27/30/25
f 26/33/28 87/171/95 88/172/96 28/34/29
f 29/36/31 89/173/97 85/164/93 23/44/37
f 28/34/29 88/172/96 89/173/97 29/36/31
f 25/39/34 33/38/33 30/42/35 90/174/98
f 34/45/38 23/44/37 24/166/24 35/46/23
f 39/175/39 90/174/98 27/30/25 40/170/40
f 41/167/41 25/39/34 90/174/98 39/175/39
f 85/176/93 42/50/42 45/53/45 86/177/94
f 41/49/41 22/27/22 47/55/47 87/178/95
f 86/179/94 45/56/45 19/24/19 40/48/40
f 87/180/95 47/58/47 49/61/49 88/181/96
f 89/182/97 50/62/50 42/50/42 85/176/93
f 88/181/96 49/61/49 50/62/50 89/182/97
f 91/183/99 92/184/100 93/185/101 94/186/101
f 95/187/102 96/188/103 97/189/104 98/190/104
f 92/184/100 91/183/99 99/191/105
f 100/192/106 101/193/107 93/194/107 92/195/106
f 96/188/103 95/187/102 102/196/108
f 103/197/109 104/198/110 105/199/110 106/200/111
f 96/201/112 102/202/113 107/203/113 106/204/112
f 107/205/114 103/197/109 106/200/111
f 104/206/115 98/207/115 97/208/115 105/209/115
f 106/204/112 105/210/116 97/211/116 96/201/112
f 108/212/117 109/213/118 101/214/118 100/215/119
f 92/195/106 99/216/120 110/217/120 100/192/106
f 110/218/121 108/212/117 100/215/119
f 109/219/122 94/220/122 93/221/122 101/222/122
f 111/223/123 112/224/124 113/225/125 114/226/125
f 115/227/126 116/228/127 117/229/128 118/230/128
f 112/224/124 111/223/123 119/231/129
f 120/232/130 121/233/131 113/234/131 112/235/130
f 116/228/127 115/227/126 122/236/132
f 123/237/133 124/238/134 125/239/134 126/240/135
f 116/241/136 122/242/137 127/243/137 126/244/136
f 127/245/138 123/237/133 126/240/135
f 124/246/139 118/247/139 117/248/139 125/249/139
f 126/244/136 125/250/140 117/251/140 116/241/136
f 128/252/141 129/253/142 121/254/142 120/255/143
f 112/235/130 119/256/144 130/257/144 120/232/130
f 130/258/145 128/252/141 120/255/143
f 129/259/146 114/260/146 113/261/146 121/262/146
f 90/174/98 30/42/35 32/31/26 27/30/25
