# Blender v2.93.1 OBJ File: ''
# www.blender.org
mtllib ROCK_SMALL05.mtl
o ROCK_SMALL05_Rock_Small05_high.001
v 2.652380 -2.432094 1.162628
v 0.743814 -1.748410 1.919814
v 0.468522 -2.817999 0.233234
v -2.359329 0.322044 -1.822366
v -0.982116 -1.370170 -2.368063
v -2.850082 -0.415735 -1.937285
v -3.763355 -0.193026 0.896845
v -3.334749 -0.394212 1.314857
v -1.719919 -0.267602 2.078626
v -2.983194 1.203419 0.879388
v -0.850025 0.173217 1.604965
v -1.084342 1.993490 1.455026
v -2.742666 -2.665631 -0.514144
v -3.988362 -1.280211 0.391328
v -3.390343 -1.415858 -1.303160
v 1.969959 -1.609873 -0.664816
v -0.553396 2.637360 0.498674
v 1.180353 2.720158 -0.253602
v 1.083189 2.186077 -1.277097
v 2.829037 -0.042732 -1.151763
v 3.510792 -1.465224 0.288693
v 2.407628 -0.386194 -1.928897
v -2.266365 1.164889 -0.443121
v -2.026909 1.808048 0.372265
v 1.727834 0.971179 -1.845153
v -1.030540 0.904712 -1.700690
v -0.952550 -1.484016 2.476454
v -0.391769 -2.174368 1.538438
v 2.079156 0.808112 1.109910
v 2.260386 0.615139 -1.620090
v -2.037237 -2.725446 -0.964415
v -0.887820 -3.002957 -0.087382
v -2.892860 0.099207 -0.407286
v 1.544797 1.523140 -0.745443
v -1.502528 -2.478377 -1.391096
v -2.683499 -1.997035 -2.268809
v 3.199934 -1.333287 1.376456
v 0.697140 1.263189 1.207808
v 0.510846 2.782799 0.922201
v 2.463943 -1.598962 1.959005
v 1.125211 -0.756372 1.632080
v -2.999692 -2.090875 0.733867
v 3.003647 -1.946178 0.551165
v 1.660699 1.241980 0.841083
v 1.352434 2.182433 0.790517
vt 0.695261 0.557004
vt 0.588546 0.431171
vt 0.729863 0.362393
vt 0.856435 0.647364
vt 0.689407 0.669066
vt 0.827691 0.583770
vt 0.230698 0.269038
vt 0.288144 0.272892
vt 0.403689 0.370894
vt 0.244830 0.374223
vt 0.401574 0.470955
vt 0.268411 0.503403
vt 0.119202 0.034845
vt 0.225437 0.174309
vt 0.077930 0.167183
vt 0.992359 0.277222
vt 0.855367 0.206953
vt 1.000000 0.087003
vt 0.169921 0.563839
vt 0.157622 0.697863
vt 0.062569 0.689162
vt 0.566583 0.847686
vt 0.623568 0.711086
vt 0.620161 0.921678
vt 0.116185 0.403883
vt 0.182686 0.447101
vt 0.739478 0.949456
vt 0.843712 0.761357
vt 0.530204 0.302779
vt 0.619492 0.327151
vt 0.411362 0.756378
vt 0.534393 0.916550
vt 0.945830 0.488002
vt 1.000000 0.388721
vt 0.992682 0.540670
vt 0.793353 0.434883
vt 0.729863 0.161253
vt 0.016489 0.259028
vt 0.126831 0.311076
vt 0.516383 0.975982
vt 0.428713 0.917432
vt 0.894226 0.446662
vt 0.853430 0.565870
vt 0.625966 0.941375
vt 0.004185 0.469735
vt 0.553717 0.667054
vt 0.729863 0.244139
vt 0.349490 0.618706
vt 0.229930 0.624300
vt 0.605701 0.565052
vt 0.499635 0.481171
vt 0.586189 0.130373
vt 0.932899 0.082090
vt 0.893815 0.034845
vt 0.382525 0.802473
vt 0.623568 0.586230
vt 0.530926 0.588998
vt 0.850464 0.958922
vt 0.443558 0.119034
vt 0.522407 0.034845
vt 0.349976 0.722977
vt 0.403689 0.745417
vt 0.403689 0.337579
vt 0.404589 0.588096
vt 0.439916 0.257643
vt 0.263565 0.699914
vt 0.402437 1.000000
vt 0.320407 0.850169
vt 0.327503 0.947050
vt 0.681889 0.085723
vt 0.020972 0.336358
vt 0.717796 0.529076
vt 0.807413 0.483410
vt 0.920868 0.643734
vn 0.4369 -0.8689 0.2326
vn 0.1260 -0.4166 0.9003
vn 0.1946 -0.9796 -0.0509
vn -0.4335 0.5531 -0.7115
vn 0.1305 -0.2762 -0.9522
vn -0.6099 0.3431 -0.7144
vn -0.8959 0.3153 0.3129
vn -0.5577 0.1384 0.8184
vn -0.1621 0.2539 0.9536
vn -0.7483 0.6093 0.2624
vn 0.2619 0.2547 0.9309
vn -0.1805 0.5744 0.7984
vn -0.4996 -0.8658 -0.0274
vn -0.9583 -0.2314 0.1675
vn -0.9092 -0.1536 -0.3869
vn 0.3408 -0.7576 -0.5566
vn -0.3458 0.9362 -0.0624
vn 0.4908 0.8481 -0.1997
vn 0.2915 0.7225 -0.6269
vn 0.9032 0.3465 -0.2534
vn 0.9622 -0.2169 -0.1647
vn 0.5426 -0.1945 -0.8171
vn -0.5924 0.6777 -0.4356
vn -0.5123 0.8297 -0.2220
vn 0.3803 0.4954 -0.7810
vn -0.2061 0.5705 -0.7950
vn -0.0626 -0.2705 0.9607
vn -0.0249 -0.8460 0.5326
vn 0.5702 0.5788 0.5830
vn 0.7257 0.5357 -0.4318
vn -0.1054 -0.9402 -0.3240
vn 0.0157 -0.9995 0.0272
vn -0.7602 0.5749 -0.3025
vn 0.8636 0.4978 -0.0801
vn 0.1942 -0.8110 -0.5518
vn -0.4068 -0.4465 -0.7970
vn 0.8495 0.0536 0.5249
vn 0.2151 0.2083 0.9541
vn 0.1717 0.8146 0.5540
vn 0.3073 -0.1659 0.9370
vn 0.0829 0.2976 0.9511
vn -0.4966 -0.6895 0.5273
vn 0.4566 -0.7866 -0.4158
vn 0.6684 0.5986 0.4415
vn 0.7246 0.4276 0.5405
usemtl Default_OBJ.013
s 1
f 1/1/1 2/2/2 3/3/3
f 4/4/4 5/5/5 6/6/6
f 7/7/7 8/8/8 9/9/9
f 9/9/9 10/10/10 7/7/7
f 11/11/11 12/12/12 9/9/9
f 13/13/13 14/14/14 15/15/15
f 3/16/3 16/17/16 1/18/1
f 17/19/17 18/20/18 19/21/19
f 20/22/20 21/23/21 22/24/22
f 23/25/23 10/10/10 24/26/24
f 25/27/25 5/5/5 26/28/26
f 2/2/2 27/29/27 28/30/28
f 29/31/29 20/22/20 30/32/30
f 31/33/31 32/34/32 13/35/13
f 16/17/16 5/36/5 22/37/22
f 24/26/24 17/19/17 23/25/23
f 23/25/23 6/38/6 33/39/33
f 30/32/30 25/40/25 34/41/34
f 35/42/35 36/43/36 5/36/5
f 25/27/25 22/44/22 5/5/5
f 26/45/26 17/19/17 19/21/19
f 29/31/29 37/46/37 20/22/20
f 21/23/21 20/22/20 37/46/37
f 27/29/27 32/47/32 28/30/28
f 38/48/38 39/49/39 12/12/12
f 31/33/31 36/43/36 35/42/35
f 31/33/31 13/35/13 36/43/36
f 40/50/40 2/2/2 1/1/1
f 27/29/27 2/2/2 41/51/41
f 2/2/2 28/30/28 3/3/3
f 42/52/42 32/47/32 27/29/27
f 33/39/33 7/7/7 10/10/10
f 31/33/31 35/42/35 32/34/32
f 43/53/43 21/54/21 1/18/1
f 30/32/30 44/55/44 29/31/29
f 26/45/26 23/25/23 17/19/17
f 10/10/10 17/19/17 24/26/24
f 32/47/32 3/3/3 28/30/28
f 1/56/1 37/46/37 40/57/40
f 29/31/29 40/57/40 37/46/37
f 21/54/21 43/53/43 16/17/16
f 25/27/25 26/28/26 19/58/19
f 8/59/8 14/60/14 27/29/27
f 38/48/38 12/12/12 11/11/11
f 44/61/44 38/48/38 29/62/29
f 11/63/11 41/51/41 29/64/29
f 9/65/9 27/29/27 11/63/11
f 45/66/45 38/48/38 44/61/44
f 34/41/34 25/40/25 19/67/19
f 27/29/27 9/65/9 8/59/8
f 41/51/41 11/63/11 27/29/27
f 41/51/41 2/2/2 40/50/40
f 1/56/1 21/23/21 37/46/37
f 5/36/5 16/17/16 3/16/3
f 17/19/17 39/49/39 18/20/18
f 17/19/17 10/10/10 12/12/12
f 39/49/39 17/19/17 12/12/12
f 14/60/14 42/52/42 27/29/27
f 29/62/29 38/48/38 11/11/11
f 39/49/39 38/48/38 45/66/45
f 12/12/12 10/10/10 9/9/9
f 39/49/39 45/66/45 18/20/18
f 34/41/34 45/68/45 44/55/44
f 34/41/34 18/69/18 45/68/45
f 19/67/19 18/69/18 34/41/34
f 34/41/34 44/55/44 30/32/30
f 22/37/22 21/54/21 16/17/16
f 16/17/16 43/53/43 1/18/1
f 32/34/32 35/42/35 3/16/3
f 35/42/35 5/36/5 3/16/3
f 13/70/13 32/47/32 42/52/42
f 23/25/23 26/45/26 4/71/4
f 7/7/7 33/39/33 6/38/6
f 23/25/23 33/39/33 10/10/10
f 8/8/8 7/7/7 14/14/14
f 14/14/14 7/7/7 6/38/6
f 36/72/36 15/73/15 6/6/6
f 36/72/36 6/6/6 5/5/5
f 4/4/4 26/28/26 5/5/5
f 23/25/23 4/71/4 6/38/6
f 20/22/20 22/24/22 30/32/30
f 30/32/30 22/24/22 25/40/25
f 15/15/15 14/14/14 6/38/6
f 42/52/42 14/60/14 13/70/13
f 36/43/36 13/35/13 15/74/15
f 40/50/40 29/64/29 41/51/41
