# Blender v2.93.1 OBJ File: ''
# www.blender.org
mtllib ROCK_SMALL02.mtl
o ROCK_SMALL02_Rock_Small02_high.001
v 1.555581 -1.896297 5.527925
v -0.793320 -0.754712 5.799654
v -1.781699 -1.918704 5.873363
v 0.664626 -0.429589 5.027934
v -2.105416 -0.520673 5.393595
v -2.401027 -1.388117 3.434193
v -0.922132 3.742105 4.929687
v -1.853299 2.801432 5.144395
v 0.634980 3.460894 4.876710
v -1.805859 0.738373 4.491047
v 1.703097 -0.476234 4.275394
v 0.375113 0.783418 4.396580
v -2.714514 -0.139730 3.933238
v 0.030010 -2.332958 3.484107
v -1.896830 3.941130 3.944188
v -1.936847 -1.989141 3.262530
v -2.513580 0.721944 3.775435
v 2.311369 -0.373575 2.953889
v -2.689003 3.267068 3.823941
v 2.192798 -2.166056 3.520102
v 1.588019 2.692987 4.565912
v 1.494878 0.563299 3.796849
v 2.138481 1.524521 3.143771
v 1.249460 3.984783 4.045230
v 0.046835 3.925295 2.495408
v 2.081771 3.602013 3.392541
v -2.453292 3.553792 2.103724
v -2.954705 1.281369 1.145181
v -2.852170 0.275073 0.466032
v 2.714075 -0.564448 0.550099
v 2.335737 2.085454 0.477940
v 2.645416 1.059686 -0.060844
v 2.509461 -0.083977 0.620782
v -0.414127 -1.951766 0.087672
v -2.001738 -1.612521 1.780751
v 2.278864 -1.828682 0.566117
v 1.269817 -2.559382 2.497553
v -1.238566 4.209693 0.111877
v 0.753119 4.271760 1.589806
v 2.047443 3.909320 0.886110
v 0.913498 4.117149 0.153303
v -2.903679 3.579751 0.453440
v -2.632004 -0.584618 0.678042
v -3.216899 -1.582710 -0.613737
v -2.012624 -1.721418 0.644470
v -2.631225 1.683990 -0.824469
v -2.150094 0.976197 0.293333
v -2.721527 2.820110 -0.879185
v 1.708032 3.429006 -0.730508
v 1.655511 -0.079181 -0.380908
v -0.420831 -0.004977 -0.468267
v -1.581285 3.705884 -1.136143
v 1.821335 1.025128 -0.906496
v 2.541147 -0.370393 -1.976325
v 2.415510 -2.081014 -2.015284
v -2.925811 -1.945693 -1.779648
v -0.579351 0.690550 -1.505899
v 1.052278 -0.305472 -2.378619
v -0.898157 -0.019226 -2.207851
v 2.437748 -1.568986 -3.278924
v -1.435265 -1.364521 -3.726213
v -0.527114 -1.720508 -2.872113
v 0.781534 -1.807879 -3.744977
v -2.784944 -1.507597 -3.519575
v -2.743157 -0.105973 -3.662467
v -3.021069 0.228866 -0.901835
v 0.692620 -0.136700 -4.281371
v -0.578744 -0.077280 -3.860771
v 1.080910 -2.216791 0.395484
vt 0.253780 0.104361
vt 0.127832 0.166067
vt 0.066982 0.108607
vt 0.211902 0.197679
vt 0.059258 0.199096
vt 0.605147 0.933345
vt 0.640466 0.825796
vt 0.682743 0.954581
vt 0.397482 0.055613
vt 0.339617 0.015266
vt 0.473980 0.034481
vt 0.083261 0.280820
vt 0.282847 0.207442
vt 0.208545 0.428921
vt 0.079584 0.393247
vt 0.205518 0.276868
vt 0.574122 0.854608
vt 0.867717 0.516573
vt 0.801467 0.391976
vt 0.985394 0.401059
vt 0.352230 0.102666
vt 0.973574 0.543791
vt 0.421165 0.944415
vt 0.525707 0.855481
vt 0.527339 0.910415
vt 0.099766 0.856019
vt 0.092255 0.936141
vt 0.010785 1.000000
vt 0.390365 0.869098
vt 0.296183 0.099517
vt 0.750838 0.496935
vt 0.272527 0.950548
vt 0.153145 0.919301
vt 0.205935 0.868751
vt 0.278331 0.270380
vt 0.507655 0.083263
vt 0.456167 0.173828
vt 0.563967 0.107033
vt 0.545519 0.018282
vt 0.313074 0.201318
vt 0.476689 0.701126
vt 0.537767 0.651746
vt -0.000000 0.885519
vt 0.089330 0.723279
vt 0.237112 0.720473
vt 0.179209 0.690109
vt 0.117284 0.728026
vt 0.865097 0.704770
vt 0.968319 0.627029
vt 0.716497 0.653613
vt 0.794310 0.560095
vt 0.398114 0.311416
vt 0.500284 0.222071
vt 0.338152 0.745146
vt 0.320051 0.881042
vt 0.516120 0.298972
vt 0.338630 0.698624
vt 0.358189 0.784189
vt 0.295151 0.300746
vt 0.593140 0.668476
vt 0.641405 0.593999
vt 0.668759 0.672526
vt 0.411376 0.602942
vt 0.481953 0.629295
vt 0.296722 0.391676
vt 0.318477 0.654139
vt 0.665441 0.412414
vt 0.588220 0.414636
vt 0.610819 0.342201
vt 0.620000 0.219995
vt 0.655918 0.106373
vt 0.734571 0.112558
vt 0.382677 0.388415
vt 0.570146 0.356375
vt 0.679071 0.348973
vt 0.807280 0.372568
vt 0.104543 0.587599
vt 0.017240 0.723610
vt 0.010362 0.582360
vt 0.177676 0.528941
vt 0.229647 0.615723
vt 0.184341 0.671773
vt 0.985394 0.829069
vt 0.958078 0.688627
vt 0.677755 0.547341
vt 0.803725 0.109686
vt 0.688428 0.224589
vt 0.853948 0.188097
vt 0.258516 0.504822
vt 0.343321 0.607030
vt 0.366598 0.510989
vt 0.908132 0.318531
vt 0.949575 0.392890
vt 0.855544 0.357451
vt 0.919297 0.111383
vt 0.857337 0.156723
vt 0.810815 0.009043
vt 0.891379 0.241385
vt 0.913764 0.029861
vt 0.765861 0.903630
vt 0.845110 0.867987
vt 0.607802 0.424245
vt 0.554716 0.569003
vt 0.275839 0.400185
vt 0.346164 0.421051
vt 0.465040 0.427868
vt 0.995757 0.035338
vt 0.995756 0.162610
vt 0.992580 0.240043
vt 0.262371 0.391110
vt 0.681204 0.816314
vt 0.661998 0.734807
vt 0.580348 0.254216
vt 0.784613 0.673118
vt 0.354667 0.621316
vt 0.566337 0.081921
vt 0.485692 0.579368
vt 0.691361 0.795079
vt 0.682743 0.452874
vn 0.5582 -0.3824 0.7364
vn 0.0444 0.5140 0.8567
vn -0.4714 -0.5300 0.7048
vn 0.3368 0.5360 0.7741
vn -0.6308 0.2999 0.7157
vn -0.8959 -0.4414 0.0500
vn -0.0825 0.7143 0.6950
vn -0.4274 0.1007 0.8984
vn 0.2738 0.3428 0.8986
vn -0.3640 0.1887 0.9121
vn 0.7314 0.3938 0.5567
vn 0.2525 0.1023 0.9622
vn -0.9659 -0.0242 0.2576
vn -0.0929 -0.9939 0.0597
vn -0.3598 0.9027 0.2360
vn -0.5013 -0.8614 -0.0818
vn -0.9077 0.1333 0.3978
vn 0.9529 0.1014 0.2860
vn -0.8795 0.3748 0.2933
vn 0.7382 -0.6357 0.2256
vn 0.6271 0.0059 0.7789
vn 0.6953 0.0901 0.7130
vn 0.9449 -0.0289 0.3261
vn 0.3734 0.8702 0.3214
vn -0.0657 0.9900 0.1244
vn 0.7944 0.5566 0.2432
vn -0.6899 0.7217 0.0561
vn -0.9943 -0.0436 -0.0970
vn -0.9801 0.1971 -0.0225
vn 0.9969 0.0674 0.0402
vn 0.9727 0.2304 -0.0286
vn 0.9409 -0.0464 -0.3354
vn 0.9737 0.2211 -0.0553
vn -0.1352 -0.9899 -0.0421
vn -0.5712 -0.8173 -0.0757
vn 0.7250 -0.6887 0.0039
vn 0.1203 -0.9927 0.0042
vn -0.1796 0.9700 -0.1637
vn 0.0684 0.9899 0.1245
vn 0.7313 0.6735 -0.1079
vn 0.1577 0.9290 -0.3347
vn -0.8044 0.5874 -0.0885
vn -0.9137 -0.3076 0.2656
vn -0.8535 -0.4770 0.2096
vn -0.4484 -0.8661 0.2209
vn -0.7263 -0.3694 -0.5797
vn -0.7634 -0.1105 -0.6365
vn -0.7361 0.2397 -0.6330
vn 0.5311 0.4822 -0.6968
vn 0.3842 0.5752 -0.7222
vn -0.0227 0.4257 -0.9046
vn -0.2550 0.6363 -0.7281
vn 0.4493 -0.1887 -0.8732
vn 0.7543 0.6310 -0.1814
vn 0.6435 -0.7582 -0.1047
vn -0.5501 -0.8268 -0.1174
vn -0.0866 -0.4534 -0.8871
vn 0.0796 0.9968 -0.0060
vn 0.0793 0.9960 -0.0409
vn 0.7594 -0.3033 -0.5756
vn -0.1192 -0.5915 -0.7975
vn -0.0958 -0.9825 -0.1598
vn 0.0437 -0.7563 -0.6528
vn -0.5673 -0.5564 -0.6072
vn -0.5535 0.5456 -0.6293
vn -0.7099 0.6889 -0.1464
vn 0.1914 0.5639 -0.8033
vn -0.1437 0.7491 -0.6467
vn 0.0489 -0.9946 -0.0913
usemtl Default_OBJ.007
s 1
f 1/1/1 2/2/2 3/3/3
f 2/2/2 4/4/4 5/5/5
f 5/6/5 6/7/6 3/8/3
f 7/9/7 8/10/8 9/11/9
f 4/4/4 10/12/10 5/5/5
f 11/13/11 4/4/4 1/1/1
f 9/14/9 8/15/8 12/16/12
f 13/17/13 6/7/6 5/6/5
f 14/18/14 1/19/1 3/20/3
f 7/9/7 15/21/15 8/10/8
f 10/12/10 4/4/4 12/16/12
f 16/22/16 14/18/14 3/20/3
f 8/23/8 17/24/17 10/25/10
f 18/26/18 11/27/11 1/28/1
f 8/23/8 19/29/19 17/24/17
f 5/6/5 17/24/17 13/17/13
f 15/21/15 19/30/19 8/10/8
f 14/18/14 20/31/20 1/19/1
f 21/32/21 22/33/22 23/34/23
f 4/4/4 11/13/11 22/35/22
f 7/9/7 24/36/24 25/37/25
f 26/38/26 24/36/24 21/39/21
f 19/30/19 15/21/15 27/40/27
f 19/29/19 28/41/28 17/24/17
f 13/17/13 17/24/17 28/41/28
f 22/33/22 18/26/18 23/34/23
f 29/42/29 6/7/6 13/17/13
f 18/26/18 20/43/20 30/44/30
f 31/45/31 23/34/23 32/46/32
f 32/46/32 23/34/23 33/47/33
f 34/48/34 14/18/14 35/49/35
f 36/50/36 20/31/20 37/51/37
f 30/44/30 33/47/33 18/26/18
f 38/52/38 25/37/25 39/53/39
f 40/54/40 26/55/26 31/45/31
f 41/56/41 38/52/38 39/53/39
f 42/57/42 28/41/28 27/58/27
f 42/59/42 27/40/27 38/52/38
f 43/60/43 44/61/44 45/62/45
f 28/41/28 46/63/46 47/64/47
f 38/52/38 48/65/48 42/59/42
f 49/66/49 40/54/40 31/45/31
f 32/67/32 33/68/33 50/69/50
f 51/70/51 47/71/47 46/72/46
f 52/73/52 38/52/38 49/74/49
f 32/67/32 53/75/53 49/76/49
f 30/44/30 54/77/54 33/47/33
f 30/44/30 36/78/36 55/79/55
f 54/80/54 50/81/50 33/82/33
f 56/83/56 34/48/34 45/84/45
f 44/61/44 56/85/56 45/62/45
f 53/75/53 50/69/50 51/70/51
f 46/72/46 48/86/48 57/87/57
f 52/88/52 53/75/53 57/87/57
f 52/88/52 57/87/57 48/86/48
f 50/81/50 58/89/58 51/90/51
f 58/89/58 59/91/59 51/90/51
f 60/92/60 54/93/54 55/94/55
f 61/95/61 62/96/62 56/97/56
f 60/92/60 55/94/55 63/98/63
f 61/95/61 56/97/56 64/99/64
f 63/100/63 34/48/34 62/101/62
f 65/102/65 44/61/44 66/103/66
f 67/104/67 59/91/59 58/89/58
f 68/105/68 65/106/65 59/91/59
f 67/104/67 58/89/58 54/80/54
f 63/98/63 62/96/62 61/95/61
f 65/107/65 68/108/68 61/95/61
f 64/99/64 65/107/65 61/95/61
f 67/109/67 61/95/61 68/108/68
f 67/109/67 60/92/60 63/98/63
f 63/98/63 61/95/61 67/109/67
f 2/2/2 5/5/5 3/3/3
f 1/1/1 4/4/4 2/2/2
f 12/16/12 8/15/8 10/12/10
f 12/16/12 21/110/21 9/14/9
f 9/11/9 24/36/24 7/9/7
f 5/6/5 10/25/10 17/24/17
f 4/4/4 22/35/22 12/16/12
f 20/43/20 18/26/18 1/28/1
f 16/111/16 3/8/3 6/7/6
f 24/36/24 9/11/9 21/39/21
f 21/110/21 12/16/12 22/35/22
f 25/37/25 15/21/15 7/9/7
f 21/32/21 23/34/23 26/55/26
f 22/33/22 11/27/11 18/26/18
f 27/40/27 15/21/15 25/37/25
f 37/51/37 20/31/20 14/18/14
f 26/38/26 25/37/25 24/36/24
f 16/22/16 35/49/35 14/18/14
f 28/41/28 29/42/29 13/17/13
f 6/7/6 35/112/35 16/111/16
f 26/38/26 39/53/39 25/37/25
f 6/7/6 29/42/29 43/60/43
f 40/113/40 39/53/39 26/38/26
f 43/60/43 35/112/35 6/7/6
f 38/52/38 27/40/27 25/37/25
f 26/55/26 23/34/23 31/45/31
f 33/47/33 23/34/23 18/26/18
f 35/112/35 43/60/43 45/62/45
f 35/49/35 45/84/45 34/48/34
f 30/44/30 20/43/20 36/78/36
f 27/58/27 28/41/28 19/29/19
f 34/48/34 37/51/37 14/18/14
f 69/114/69 36/50/36 37/51/37
f 34/48/34 69/114/69 37/51/37
f 40/113/40 41/56/41 39/53/39
f 28/41/28 47/64/47 29/42/29
f 49/74/49 41/56/41 40/113/40
f 42/57/42 48/115/48 28/41/28
f 43/60/43 29/42/29 44/61/44
f 28/41/28 48/115/48 46/63/46
f 38/52/38 52/73/52 48/65/48
f 66/103/66 44/61/44 29/42/29
f 49/66/49 31/45/31 32/46/32
f 50/69/50 53/75/53 32/67/32
f 29/42/29 47/64/47 66/103/66
f 49/74/49 38/52/38 41/56/41
f 51/70/51 66/116/66 47/71/47
f 51/70/51 46/72/46 57/87/57
f 54/77/54 30/44/30 55/79/55
f 53/75/53 52/88/52 49/76/49
f 57/87/57 53/75/53 51/70/51
f 59/91/59 66/117/66 51/90/51
f 50/81/50 54/80/54 58/89/58
f 55/118/55 36/50/36 69/114/69
f 34/48/34 63/100/63 69/114/69
f 56/83/56 62/101/62 34/48/34
f 63/100/63 55/118/55 69/114/69
f 59/91/59 65/106/65 66/117/66
f 65/102/65 64/119/64 44/61/44
f 67/104/67 68/105/68 59/91/59
f 44/61/44 64/119/64 56/85/56
f 54/93/54 60/92/60 67/109/67
