# Blender v2.93.1 OBJ File: ''
# www.blender.org
mtllib ROCK_SMALL01.mtl
o Rock_Small01_high.001
v -0.480874 0.297294 2.249564
v 0.007320 -0.129173 1.026741
v -2.190396 -0.140772 1.835189
v -1.457085 -0.181747 0.732326
v -0.327331 0.010159 0.362769
v 0.095492 0.044924 -1.387338
v -1.222280 -0.172707 -1.181747
v 0.135832 0.433648 1.832294
v -0.016540 0.056452 -2.414669
v 1.373726 0.163502 1.364332
v 1.937710 0.279177 -0.291223
v 2.091985 0.231489 -1.595542
v 1.266586 0.138585 2.740699
v 2.278954 0.455835 2.270552
v 1.159208 0.861700 -2.452654
v 2.433473 0.853903 -2.005716
v -0.836235 0.592188 -2.843907
v 1.810411 1.880309 -2.273019
v -1.223566 1.870798 -2.954448
v -0.083347 1.743485 -2.724332
v 0.877552 2.220357 -2.509012
v -0.664355 2.723413 -2.535213
v 1.460423 3.423790 -2.223881
v 2.692736 2.985682 -1.683892
v 0.158157 3.399055 -2.369877
v -2.120156 0.898030 0.513392
v -1.642755 2.040025 -2.488852
v -1.973134 1.293611 -1.226760
v -2.800550 2.177318 1.044481
v -2.248949 1.109132 -0.311885
v -1.871759 2.584883 -0.121731
v -1.776252 3.068535 -1.942432
v -2.148928 3.167158 -0.604796
v -2.357052 3.220190 0.391646
v -2.587573 0.544962 1.644717
v -2.275216 1.316685 1.902686
v 0.817214 1.747755 2.644975
v 1.767278 1.122921 2.778152
v -1.017519 1.943611 2.079436
v -2.232636 3.008611 1.571617
v -1.041907 3.241594 1.797835
v 0.290347 2.639009 2.661088
v 1.798735 2.761835 2.976753
v 0.605449 3.445395 2.636890
v 2.571693 1.142952 -0.605106
v 2.427207 1.022015 1.439127
v 2.332819 1.416877 0.412867
v 2.053446 1.586456 2.342503
v 1.974362 2.399572 1.251272
v 2.536846 2.533571 -0.229363
v 1.799560 2.478598 0.945929
v 1.936905 3.076952 2.366566
v 1.974373 3.501987 -1.028924
v 0.850645 3.312006 0.545396
v 0.452983 3.391487 1.464042
v 0.766477 3.675818 -0.364068
v -0.696372 3.581109 -0.451867
v -1.529490 3.649520 -1.581302
v 0.412618 3.631338 -1.271491
vt 0.505372 0.981569
vt 0.342643 0.984880
vt 0.518514 0.852137
vt 0.376363 0.871640
vt 0.464086 0.808579
vt 0.470893 0.650810
vt 0.348750 0.692543
vt 0.561611 0.928556
vt 0.428986 0.555278
vt 0.653157 0.697671
vt 0.646174 0.847855
vt 0.635875 0.578327
vt 0.665881 0.984880
vt 0.747930 0.917207
vt 0.999369 0.293817
vt 0.926320 0.186282
vt 0.999369 0.081796
vt 0.924111 0.062051
vt 0.942579 0.376687
vt 0.824964 0.116527
vt 0.837995 0.383480
vt 0.852342 0.286865
vt 0.795504 0.206287
vt 0.758775 0.345549
vt 0.683076 0.157459
vt 0.722139 0.028606
vt 0.687418 0.282465
vt 0.237551 0.834567
vt 0.331315 0.894331
vt 0.273965 0.992188
vt 0.118223 0.571317
vt 0.261895 0.523253
vt 0.184651 0.673390
vt 0.099896 0.892112
vt 0.076535 0.775511
vt 0.201748 0.764411
vt 0.024980 0.615979
vt 0.009781 0.737753
vt 0.003906 0.832442
vt 0.325409 0.678265
vt 0.214618 0.947689
vt 0.811495 0.443579
vt 0.400557 0.815454
vt 0.831589 0.462841
vt 0.962788 0.444546
vt 0.953008 0.608561
vt 1.000000 0.766928
vt 0.921573 0.829151
vt 0.856207 0.745794
vt 0.803601 0.584278
vt 0.152795 0.992188
vt 0.677684 0.488011
vt 0.675677 0.599452
vt 0.767361 0.714931
vt 0.776205 0.864349
vt 0.693824 0.766111
vt 0.009707 0.943116
vt 0.523648 0.140626
vt 0.505524 0.331759
vt 0.448935 0.408265
vt 0.553808 0.239322
vt 0.555017 0.422476
vt 0.506749 0.473717
vt 0.627663 0.342403
vt 0.696642 0.055944
vt 0.654128 0.185902
vt 0.654688 0.309288
vt 0.686294 0.445683
vt 0.653708 0.498682
vt 0.440225 0.057431
vt 0.430950 0.174959
vt 0.505299 0.023437
vt 0.394317 0.461064
vt 0.338270 0.381038
vt 0.438277 0.333072
vt 0.293269 0.217146
vt 0.412245 0.213249
vt 0.276902 0.127298
vt 0.429511 0.075951
vt 0.253327 0.294817
vt 0.707621 0.462111
vt 0.312057 0.029287
vt 0.131243 0.248667
vt 0.148558 0.074033
vt 0.005112 0.171516
vt 0.037555 0.067917
vt 0.065001 0.339925
vt 0.269038 0.478314
vt 0.151589 0.457922
vt 0.202315 0.366769
vt 0.000000 0.260322
vt 0.001779 0.378101
vt 0.357642 0.525791
vt 0.413686 0.505246
vt 0.438277 0.013672
vn -0.0537 -0.5989 0.7990
vn -0.5448 -0.7233 0.4243
vn 0.1216 -0.9802 0.1565
vn -0.2890 -0.8142 -0.5035
vn -0.1587 -0.9791 -0.1275
vn 0.1421 -0.9895 -0.0266
vn -0.4429 -0.8872 -0.1295
vn 0.1280 -0.9752 0.1807
vn 0.0961 -0.8207 -0.5633
vn 0.5006 -0.8657 0.0016
vn 0.1526 -0.9857 0.0709
vn 0.5092 -0.8250 -0.2451
vn 0.0297 -0.7240 0.6892
vn 0.7733 -0.4991 0.3910
vn 0.2906 -0.2697 -0.9180
vn 0.7365 -0.3442 -0.5823
vn -0.3270 -0.4486 -0.8318
vn 0.3689 0.0493 -0.9282
vn -0.3710 0.1380 -0.9183
vn 0.1796 0.1017 -0.9785
vn 0.1870 0.1018 -0.9771
vn -0.2692 0.5902 -0.7610
vn 0.2657 0.6822 -0.6812
vn 0.8327 0.4235 -0.3567
vn -0.0056 0.6758 -0.7371
vn -0.7909 -0.5615 -0.2434
vn -0.7928 0.0972 -0.6017
vn -0.9335 -0.2005 -0.2972
vn -0.9936 0.1074 0.0358
vn -0.9706 -0.1042 -0.2172
vn -0.9429 -0.2482 -0.2222
vn -0.7135 0.3716 -0.5940
vn -0.9706 0.1928 -0.1440
vn -0.7679 0.6274 -0.1289
vn -0.9231 -0.3089 0.2292
vn -0.5013 0.0839 0.8612
vn 0.3827 -0.0547 0.9223
vn -0.1947 -0.0872 0.9770
vn -0.3088 0.0993 0.9459
vn -0.5381 0.5963 0.5957
vn -0.2819 0.7694 0.5732
vn -0.3275 0.0513 0.9435
vn 0.4784 0.2661 0.8369
vn -0.0986 0.7884 0.6072
vn 0.9638 -0.2603 0.0583
vn 0.9875 0.0991 0.1223
vn 0.9417 0.2865 0.1762
vn 0.9342 0.1061 0.3406
vn 0.8960 0.4175 -0.1513
vn 0.8659 0.3594 0.3479
vn 0.7256 0.6878 0.0208
vn 0.7448 0.6611 0.0901
vn 0.4428 0.8887 0.1189
vn 0.3606 0.9006 0.2427
vn 0.1672 0.9856 -0.0260
vn 0.0865 0.9786 0.1867
vn -0.0640 0.9900 0.1253
vn -0.3967 0.8611 -0.3180
vn 0.0260 0.9943 -0.1032
usemtl Default_OBJ.002
s 1
f 1/1/1 3/2/2 2/3/3
f 3/2/2 4/4/4 2/3/3
f 5/5/5 6/6/6 2/3/3
f 7/7/7 6/6/6 5/5/5
f 1/1/1 2/3/3 8/8/8
f 7/7/7 9/9/9 6/6/6
f 2/3/3 4/4/4 5/5/5
f 2/3/3 11/10/10 10/11/11
f 2/3/3 6/6/6 11/10/10
f 11/10/10 6/6/6 9/9/9
f 8/8/8 2/3/3 10/11/11
f 11/10/10 9/9/9 12/12/12
f 13/13/13 8/8/8 10/11/11
f 8/8/8 13/13/13 1/1/1
f 14/14/14 13/13/13 10/11/11
f 10/11/11 11/10/10 14/14/14
f 9/15/9 15/16/15 12/17/12
f 15/16/15 16/18/16 12/17/12
f 9/15/9 17/19/17 15/16/15
f 18/20/18 16/18/16 15/16/15
f 19/21/19 20/22/20 17/19/17
f 21/23/21 15/16/15 20/22/20
f 18/20/18 15/16/15 21/23/21
f 19/21/19 22/24/22 20/22/20
f 21/23/21 20/22/20 22/24/22
f 23/25/23 18/20/18 21/23/21
f 23/25/23 24/26/24 18/20/18
f 21/23/21 22/24/22 25/27/25
f 15/16/15 17/19/17 20/22/20
f 24/26/24 16/18/16 18/20/18
f 25/27/25 23/25/23 21/23/21
f 26/28/26 4/29/4 3/30/2
f 27/31/27 17/32/17 28/33/28
f 29/34/29 31/35/30 30/36/31
f 32/37/32 27/31/27 28/33/28
f 33/38/33 32/37/32 28/33/28
f 33/38/33 31/35/30 34/39/34
f 7/40/7 28/33/28 17/32/17
f 26/28/26 3/30/2 35/41/35
f 7/40/7 26/28/26 30/36/31
f 30/36/31 28/33/28 7/40/7
f 27/42/27 19/21/19 17/19/17
f 30/36/31 26/28/26 29/34/29
f 26/28/26 35/41/35 29/34/29
f 30/36/31 31/35/30 28/33/28
f 28/33/28 31/35/30 33/38/33
f 29/34/29 34/39/34 31/35/30
f 4/29/4 26/28/26 5/43/5
f 36/44/36 3/45/2 1/46/1
f 13/47/13 38/48/37 37/49/38
f 36/44/36 1/46/1 39/50/39
f 29/34/29 35/41/35 36/51/36
f 36/44/36 39/50/39 40/52/40
f 40/52/40 39/50/39 41/53/41
f 41/53/41 39/50/39 42/54/42
f 43/55/43 44/56/44 42/54/42
f 35/41/35 3/30/2 36/51/36
f 13/47/13 37/49/38 1/46/1
f 42/54/42 39/50/39 1/46/1
f 42/54/42 1/46/1 37/49/38
f 37/49/38 38/48/37 43/55/43
f 29/34/29 36/51/36 40/57/40
f 37/49/38 43/55/43 42/54/42
f 41/53/41 42/54/42 44/56/44
f 45/58/45 46/59/46 14/60/14
f 45/58/45 47/61/47 46/59/46
f 48/62/48 38/63/37 14/60/14
f 48/62/48 46/59/46 49/64/49
f 45/58/45 24/65/24 50/66/50
f 49/64/49 47/61/47 51/67/51
f 51/67/51 47/61/47 50/66/50
f 49/64/49 52/68/52 48/62/48
f 43/69/43 48/62/48 52/68/52
f 12/70/12 45/58/45 11/71/10
f 11/71/10 45/58/45 14/60/14
f 45/58/45 12/70/12 16/72/16
f 48/62/48 14/60/14 46/59/46
f 47/61/47 49/64/49 46/59/46
f 47/61/47 45/58/45 50/66/50
f 45/58/45 16/72/16 24/65/24
f 43/69/43 38/63/37 48/62/48
f 24/73/24 53/74/53 50/75/50
f 54/76/54 51/77/51 50/75/50
f 51/77/51 55/78/55 52/79/52
f 27/42/27 22/24/22 19/21/19
f 40/57/40 34/39/34 29/34/29
f 56/80/56 54/76/54 53/74/53
f 27/42/27 25/27/25 22/24/22
f 32/81/32 25/27/25 27/42/27
f 44/82/44 52/79/52 55/78/55
f 54/76/54 57/83/57 55/78/55
f 41/84/41 34/85/34 40/86/40
f 34/85/34 41/84/41 55/78/55
f 55/78/55 57/83/57 34/85/34
f 34/85/34 57/83/57 58/87/58
f 23/88/23 25/89/25 59/90/59
f 59/90/59 58/87/58 57/83/57
f 53/74/53 54/76/54 50/75/50
f 52/68/52 49/64/49 51/67/51
f 55/78/55 51/77/51 54/76/54
f 53/74/53 24/73/24 23/88/23
f 54/76/54 56/80/56 57/83/57
f 33/91/33 58/87/58 32/92/32
f 41/84/41 44/82/44 55/78/55
f 33/91/33 34/85/34 58/87/58
f 56/80/56 59/90/59 57/83/57
f 56/80/56 53/74/53 59/90/59
f 32/92/32 58/87/58 25/89/25
f 59/90/59 53/74/53 23/88/23
f 58/87/58 59/90/59 25/89/25
f 7/40/7 17/32/17 9/93/9
f 26/28/26 7/40/7 5/43/5
f 13/94/13 14/60/14 38/63/37
f 44/82/44 43/95/43 52/79/52
