# Blender v2.93.1 OBJ File: ''
# www.blender.org
mtllib ROCK_SMALL03.mtl
o Rock_Small03_high.001
v 1.924523 -1.373602 5.300609
v 1.058589 -2.575903 4.527192
v 2.987010 -1.254671 4.289432
v 3.687291 -0.955875 3.149338
v 2.403018 -0.494397 3.030406
v 1.938570 -2.478389 3.200577
v 3.854475 -1.586207 3.619832
v 4.018225 -0.565409 -1.230199
v 2.640716 -0.273555 1.451205
v 4.657566 -1.419257 1.366907
v 1.634186 -0.291193 2.986382
v 0.885567 -0.380549 4.919244
v 3.083042 2.264340 0.801654
v 2.547776 0.820168 1.810318
v 3.709673 1.382507 -0.083764
v 3.251251 -0.197373 0.055277
v 0.147696 -2.322778 5.432055
v 2.445364 2.362281 1.579790
v 2.057920 1.517148 2.560117
v 1.524791 2.800236 1.013759
v 2.949231 2.788226 -0.431824
v 3.696657 1.679970 -1.315562
v 3.204049 0.592182 -0.927629
v 3.721204 -0.616192 -2.803221
v 4.629304 -1.356023 -1.100400
v 1.271086 0.828679 2.569124
v 1.055628 2.504350 2.466426
v 0.488610 -0.151622 2.652323
v 0.192703 -2.472239 2.259356
v -0.159610 -0.359078 4.292319
v 3.059648 -1.468033 -3.322720
v 2.557830 -2.620032 -3.417619
v 1.622992 -2.608982 0.783221
v 3.095470 -0.007180 -1.858322
v 2.604862 2.549131 -1.998208
v -0.100093 2.562077 -0.716120
v 2.387815 -2.676784 -1.884858
v 3.416408 -2.595723 0.093769
v 0.031099 0.527863 1.278172
v 2.411218 -0.518474 -4.211602
v 1.301539 1.472032 -2.747350
v 2.326037 -1.566470 -4.051512
v -1.544227 -0.389840 3.430144
v -1.588658 -1.643717 3.469834
v -0.381269 -1.226857 3.994191
v -0.159001 1.209860 1.708807
v -0.374552 2.437123 1.478478
v 1.224946 2.585456 -1.641780
v -1.653053 -0.205928 1.749349
v 1.121670 -0.122713 -3.453064
v 2.416123 -0.302723 -2.238057
v -2.441255 -1.451149 3.339167
v -1.152654 -2.429188 4.588562
v -0.876988 -2.608709 -1.357736
v -0.447219 -0.219758 1.920812
v -0.830715 0.135271 0.932358
v 1.399854 -0.080208 -2.717452
v -0.712652 2.338127 0.770112
v 0.325505 -2.529480 -3.526517
v 0.790211 -2.657707 -2.258236
v -1.449021 2.507972 1.083174
v 0.315318 2.213459 -3.300237
v -2.713873 -2.554573 3.046535
v -2.503022 -2.585623 0.494667
v -2.000642 -2.837533 2.268132
v -0.406810 2.423805 -2.386395
v -0.265463 0.543518 -3.374718
v 0.189494 1.555197 -3.222930
v -2.159812 -0.389389 0.401289
v -0.012308 -0.011433 -2.921887
v -3.248872 -0.552198 2.054709
v -2.330139 0.567200 0.440582
v -2.160062 2.263492 -2.006680
v -3.590056 -1.255635 1.905296
v -1.292003 -0.550905 -3.716770
v 0.637512 -0.398947 -5.095336
v -0.265299 -0.211498 -4.239196
v -1.272184 2.367495 -3.211921
v -2.743420 1.639446 0.100567
v -2.775609 0.161863 0.027021
v -1.342455 -0.354421 -0.911484
v -2.978665 -0.973651 0.045831
v -1.357824 1.223517 -3.128257
v -2.069701 0.216678 -2.386113
v -1.116446 -0.480852 -2.223506
v -3.989619 -1.993477 1.124474
v 0.250622 -2.400454 -4.730813
v -1.138715 -2.690896 -3.562371
v -2.751140 0.471290 -0.807945
v -0.270034 -0.694419 -5.444587
v -3.667146 -2.343152 0.011840
v -2.331832 -0.970413 -2.080904
v -3.576770 -2.465332 -1.753161
v -2.621329 1.432967 -0.997673
v -1.046422 -0.843595 -4.920516
v -3.981655 -1.500454 -0.056550
v -1.153821 -2.434697 -4.873108
v -2.188821 -1.075646 -3.629503
v -4.594694 -1.162565 -1.919486
v -2.482651 -0.920787 -3.708052
v -1.521271 -1.653713 -4.742562
v -1.440090 -1.074825 -3.805882
v -3.242514 -0.967388 -1.624102
v -2.950526 -2.096365 -4.359372
v -3.056267 -1.265116 -4.419328
v -4.543998 -1.636764 -1.693555
v -4.621250 -2.183317 -1.511288
v -3.741682 -2.300407 -3.300763
v -1.938079 -2.386508 -2.474170
v 3.865710 -2.310230 2.808119
v 3.468337 -2.401288 1.456258
v 3.880153 -1.856145 0.364234
v -0.695006 -2.635906 3.720808
v -2.615594 2.582686 -0.631729
vt 0.459733 0.128451
vt 0.534271 0.091831
vt 0.472550 0.207227
vt 0.462810 0.289013
vt 0.408602 0.263704
vt 0.570831 0.186384
vt 0.502356 0.268202
vt 0.428143 0.533472
vt 0.385868 0.359610
vt 0.472579 0.399333
vt 0.369580 0.249134
vt 0.387490 0.116903
vt 0.843554 0.802511
vt 0.921087 0.750611
vt 0.884736 0.861058
vt 0.973809 0.770871
vt 0.963380 0.861519
vt 0.482679 0.019686
vt 0.843489 0.742098
vt 0.895072 0.695864
vt 0.980404 0.661243
vt 0.361569 0.580650
vt 0.325476 0.668635
vt 0.313276 0.593668
vt 0.804425 0.869505
vt 0.863237 0.935853
vt 0.923170 0.917346
vt 0.652999 0.204586
vt 0.611896 0.124157
vt 0.656971 0.083137
vt 0.919644 0.642342
vt 0.243518 0.641881
vt 0.484155 0.873902
vt 0.583812 0.962269
vt 0.472809 0.949503
vt 0.160598 0.101332
vt 0.225987 0.049440
vt 0.212174 0.201110
vt 0.412497 0.630816
vt 0.571442 0.888489
vt 0.707837 0.232445
vt 0.770196 0.251038
vt 0.127195 0.243679
vt 0.586060 0.200407
vt 0.679514 0.642193
vt 0.713039 0.561369
vt 0.800087 0.594121
vt 0.349198 0.793022
vt 0.051818 0.358382
vt 0.035190 0.235756
vt 0.828814 0.057718
vt 0.837687 0.154735
vt 0.776372 0.104134
vt 0.672462 0.304280
vt 0.742575 0.708702
vt 0.726940 0.297451
vt 0.559574 0.795653
vt 0.637604 0.790076
vt 0.624991 0.870645
vt 0.878308 0.137222
vt 0.912456 0.042732
vt 0.932905 0.142715
vt 0.419533 0.751573
vt 0.470744 0.694701
vt 0.502939 0.726353
vt 0.616886 0.350549
vt 0.588149 0.253697
vt 0.614430 0.744134
vt 0.696325 0.834519
vt 0.206150 0.385383
vt 0.786811 0.175221
vt 0.842647 0.220489
vt 0.584030 0.322951
vt 0.282256 0.782536
vt 0.103964 0.493212
vt 0.117151 0.410897
vt 0.239301 0.807896
vt 0.249922 0.742692
vt 0.712370 0.791413
vt 0.778136 0.246993
vt 0.669758 0.701329
vt 0.296226 0.344227
vt 0.313559 0.242820
vt 0.407257 0.854907
vt 0.470744 0.849308
vt 0.797351 0.810603
vt 0.745269 0.791041
vt 0.815788 0.702855
vt 0.830534 0.305222
vt 0.570831 0.409026
vt 0.556895 0.682100
vt 0.877004 0.295553
vt 0.353712 0.936105
vt 0.589273 0.656271
vt 0.952222 0.203559
vt 0.604193 0.501250
vt 0.690022 0.390970
vt 0.638095 0.433271
vt 0.426699 0.926252
vt 0.934204 0.307575
vt 0.825741 0.348341
vt 0.784001 0.335236
vt 0.839517 0.306089
vt 0.226987 0.635143
vt 0.231133 0.740975
vt 0.165777 0.628644
vt 0.943660 0.631978
vt 0.899774 0.527560
vt 0.954077 0.534514
vt 0.853779 0.478058
vt 0.802112 0.507172
vt 0.778009 0.430262
vt 0.607714 0.600825
vt 0.857987 0.592140
vt 0.817557 0.589893
vt 0.087925 0.567063
vt 0.176693 0.526347
vt 0.850599 0.397115
vt 0.700024 0.442889
vt 0.369580 0.213629
vt 0.355178 0.398390
vt 0.617257 0.534343
vt 0.164271 0.762353
vt 0.310441 0.483586
vt 0.900068 0.392602
vt 0.944345 0.446204
vt 0.671379 0.485376
vt 0.565049 0.547409
vt 0.149176 0.605327
vt 0.200829 0.822225
vt 0.114675 0.842225
vt 0.099247 0.608374
vt 0.076731 0.706435
vt 0.099009 0.822185
vt 0.691504 0.534343
vt 0.623104 0.533844
vt 0.743282 0.528854
vt 0.131329 0.717860
vt 0.018908 0.855414
vt 0.065982 0.925492
vt 0.037689 0.963408
vt 0.241021 0.620380
vt 0.055469 0.840708
vt 0.051830 0.691834
vt 0.024710 0.674548
vt 0.063909 0.571816
vt 0.295453 0.577139
vt 0.228513 0.481167
vt 0.369580 0.501703
vt 0.008087 0.784887
vt 0.539085 0.305783
vt 0.563499 0.387375
vt 0.520479 0.451705
vt 0.479470 0.531505
vt 0.570831 0.470365
vt 0.395222 0.450089
vt 0.058056 0.160174
vt 0.065736 0.078332
vt 0.836803 0.645073
vt 0.634907 0.564510
vt 0.950788 0.975520
vt 0.369988 0.561408
vt 0.696325 0.934219
vt 0.768022 0.030505
vt 0.280893 0.137846
vt 0.757242 0.019686
vt 0.285320 0.019686
vt 0.328136 0.095030
vt 0.008087 0.444003
vt 0.819447 0.636562
vt 0.476711 0.798048
vt 0.827250 0.784578
vt 0.282924 0.916962
vt 0.770196 0.428682
vt 0.992213 0.313317
vt 0.145815 0.892421
vt 0.231133 0.903054
vt 0.482275 0.638562
vt 0.515213 0.584810
vt 0.910282 0.622453
vt 0.902025 0.317293
vt 0.954077 0.357532
vt 0.117535 0.895461
vn 0.5000 -0.6937 0.5185
vn 0.4896 -0.7187 0.4937
vn 0.3900 -0.7536 0.5292
vn 0.4415 0.7892 0.4270
vn 0.5623 0.7824 0.2676
vn 0.3369 0.9185 0.2069
vn 0.4202 -0.7753 0.4716
vn 0.2019 -0.7368 0.6453
vn 0.6624 0.7483 -0.0366
vn 0.4586 0.8704 0.1793
vn 0.5174 0.8483 0.1121
vn 0.1952 0.9723 0.1283
vn 0.2360 0.9368 0.2582
vn 0.8336 0.1066 0.5420
vn 0.8530 -0.0466 0.5199
vn 0.8604 -0.0861 0.5023
vn 0.8873 -0.0531 0.4581
vn 0.8862 0.1813 0.4263
vn -0.0804 0.2829 0.9558
vn 0.6836 0.3970 0.6124
vn 0.7481 0.2200 0.6261
vn 0.8229 -0.0813 0.5624
vn 0.3460 0.8965 0.2766
vn 0.0580 0.9902 0.1274
vn 0.3135 0.9267 0.2072
vn 0.8619 0.4943 0.1131
vn 0.8199 0.5721 -0.0209
vn 0.8612 0.4948 0.1167
vn 0.8025 0.5931 -0.0650
vn 0.9597 -0.1947 -0.2025
vn 0.9595 -0.2719 -0.0731
vn 0.9066 -0.3767 -0.1903
vn 0.6640 0.7328 -0.1490
vn 0.7942 0.6054 -0.0517
vn -0.2683 0.1678 0.9486
vn -0.2357 0.2713 0.9332
vn -0.0968 0.1235 0.9876
vn 0.0031 0.9797 0.2006
vn -0.0090 0.9967 0.0803
vn 0.0356 -0.9992 0.0165
vn -0.0001 -0.9987 0.0509
vn 0.0425 -0.9990 -0.0117
vn 0.3469 0.8762 0.3345
vn -0.0605 0.9930 0.1017
vn 0.7720 -0.2408 -0.5882
vn 0.7887 -0.2894 -0.5424
vn 0.7474 -0.2311 -0.6229
vn 0.6352 -0.3277 -0.6994
vn -0.0081 -0.9990 0.0433
vn 0.5474 0.8345 -0.0625
vn 0.5070 0.0422 -0.8609
vn 0.5649 0.0634 -0.8227
vn 0.4879 0.0497 -0.8715
vn -0.0482 0.9939 -0.0990
vn -0.0775 0.9968 -0.0197
vn 0.0427 -0.9990 -0.0147
vn 0.0597 -0.9970 0.0484
vn -0.6564 0.5662 0.4985
vn -0.5377 0.6865 0.4895
vn -0.5885 0.6296 0.5072
vn 0.5726 -0.1653 -0.8030
vn 0.4431 -0.0048 -0.8965
vn 0.5504 -0.2551 -0.7950
vn -0.1076 0.9882 0.1090
vn -0.2227 -0.2971 0.9285
vn -0.3655 -0.2176 0.9050
vn -0.4463 -0.1944 0.8735
vn -0.6566 0.0067 0.7542
vn -0.4091 0.0269 0.9121
vn -0.5184 -0.0424 0.8541
vn -0.0407 0.9899 -0.1358
vn -0.0173 0.9857 -0.1674
vn -0.1817 0.9795 0.0875
vn 0.2101 0.9723 -0.1022
vn 0.0956 0.9847 -0.1459
vn 0.2147 0.9730 -0.0846
vn -0.2011 -0.2473 0.9478
vn -0.5131 0.5886 0.6248
vn -0.5693 0.5446 0.6159
vn -0.5716 0.5500 0.6089
vn 0.2007 0.9660 -0.1627
vn -0.0408 -0.9983 -0.0420
vn -0.4767 0.7282 0.4924
vn -0.5143 0.7241 0.4596
vn 0.2146 0.9671 -0.1370
vn -0.0052 0.9996 -0.0280
vn 0.0490 -0.9926 -0.1116
vn -0.0086 -0.9993 -0.0359
vn -0.0839 -0.5486 0.8318
vn -0.2678 -0.5667 0.7792
vn -0.3972 -0.5666 0.7220
vn 0.1740 0.9773 -0.1209
vn -0.1102 0.9934 -0.0320
vn 0.2183 -0.1030 -0.9704
vn 0.0099 0.9999 0.0109
vn -0.2114 0.9592 0.1878
vn -0.1936 -0.2065 0.9591
vn -0.0717 -0.9963 -0.0466
vn -0.0622 -0.9980 0.0069
vn -0.0281 0.9938 -0.1076
vn 0.0248 0.9801 -0.1969
vn 0.3783 -0.0130 -0.9256
vn 0.1873 -0.0609 -0.9804
vn 0.4194 0.0175 -0.9076
vn -0.4185 0.8913 -0.1741
vn -0.1694 0.9506 -0.2601
vn -0.7001 0.2981 0.6488
vn -0.6777 0.2654 0.6858
vn -0.5278 0.3810 0.7591
vn -0.4677 -0.1003 0.8782
vn -0.4386 -0.1147 0.8913
vn -0.4233 -0.1148 0.8987
vn -0.0510 0.9917 -0.1182
vn -0.8078 0.0353 0.5885
vn -0.4109 -0.1143 0.9045
vn -0.4175 0.9069 -0.0565
vn -0.0013 0.9650 -0.2624
vn -0.2193 0.9701 -0.1043
vn -0.0234 0.9988 -0.0436
vn -0.6111 0.0154 0.7914
vn -0.6025 -0.1396 0.7858
vn -0.4184 0.8932 -0.1650
vn -0.4098 0.9039 -0.1225
vn -0.0734 0.0232 -0.9970
vn -0.0620 -0.0682 -0.9957
vn -0.5467 -0.8356 -0.0540
vn -0.5878 -0.8087 -0.0233
vn -0.5297 -0.8333 -0.1582
vn -0.8424 -0.1035 0.5289
vn -0.8000 -0.0125 0.5999
vn -0.3233 -0.5003 -0.8032
vn -0.2139 -0.5913 -0.7776
vn -0.0804 -0.6336 -0.7695
vn 0.0382 -0.9903 -0.1336
vn -0.0743 -0.9964 -0.0397
vn -0.5099 -0.8309 -0.2227
vn -0.5037 -0.8009 -0.3238
vn -0.2765 0.8925 -0.3565
vn -0.2406 -0.9594 0.1473
vn -0.2847 -0.9576 0.0441
vn -0.5333 -0.8389 0.1091
vn -0.1930 0.9795 -0.0575
vn -0.8660 0.4276 0.2592
vn -0.9103 0.3015 0.2838
vn -0.7567 0.6199 0.2075
vn -0.5228 -0.7942 -0.3097
vn -0.1539 -0.9870 -0.0456
vn -0.9490 -0.0038 -0.3152
vn -0.8760 -0.0367 -0.4809
vn -0.8351 0.0532 -0.5476
vn -0.4320 0.8522 -0.2953
vn -0.4110 0.8534 -0.3206
vn -0.9086 0.3964 0.1319
vn -0.9027 0.4104 0.1290
vn -0.9176 0.3732 0.1366
vn -0.0897 -0.9777 -0.1901
vn -0.8560 0.1694 -0.4885
vn -0.9146 0.0441 -0.4020
vn -0.4042 0.9119 -0.0708
vn -0.4503 0.8922 -0.0340
vn -0.4671 0.8302 0.3043
vn -0.2293 0.9731 0.0234
vn 0.0188 0.9946 -0.1024
vn 0.4697 0.8827 -0.0166
vn -0.8630 0.4598 -0.2094
vn -0.8999 0.3625 -0.2426
vn -0.8818 0.4143 -0.2255
vn -0.3653 -0.0163 -0.9307
vn -0.3681 -0.0072 -0.9298
vn -0.5166 0.0483 -0.8548
vn -0.0797 0.9968 0.0052
vn -0.2395 -0.0653 -0.9687
vn -0.1889 -0.9430 -0.2739
vn -0.2290 -0.0990 -0.9684
vn -0.7973 0.2894 0.5298
vn -0.9458 0.0516 0.3206
vn -0.9452 -0.0163 0.3261
vn -0.9391 -0.3058 0.1567
vn -0.1276 -0.9857 -0.1099
vn -0.0741 -0.9972 0.0023
vn -0.2605 -0.9655 0.0007
vn -0.8129 -0.3190 -0.4872
vn -0.8260 -0.0881 -0.5567
vn -0.8767 -0.1134 -0.4675
vn -0.8687 0.0266 -0.4947
vn -0.7793 -0.1431 -0.6100
vn -0.8978 -0.0198 -0.4400
vn 0.8999 -0.3192 0.2971
vn 0.8234 0.4631 0.3278
vn 0.7137 0.5306 0.4573
vn 0.5945 -0.7969 -0.1077
vn 0.6815 -0.7252 -0.0976
vn 0.7038 -0.7097 0.0320
vn 0.6253 -0.7692 -0.1320
vn 0.6458 -0.7615 -0.0557
vn 0.4557 0.6918 0.5601
vn 0.1969 -0.7303 0.6541
vn 0.7660 -0.6424 0.0236
vn 0.4099 -0.6836 0.6038
vn 0.8355 0.3904 0.3867
vn 0.1677 -0.9804 0.1038
vn 0.0948 -0.9947 0.0391
vn 0.9072 -0.4199 -0.0254
vn 0.4863 0.5575 0.6728
vn 0.6949 0.6723 -0.2554
vn 0.9757 -0.2174 0.0262
vn 0.4939 0.8683 0.0461
vn -0.5897 0.5229 0.6155
vn -0.7011 0.4187 0.5771
vn -0.2391 0.2700 0.9327
vn -0.5102 -0.1600 0.8451
vn 0.0020 -0.9953 0.0965
vn 0.6312 -0.7612 -0.1491
vn -0.0599 -0.9763 0.2081
vn -0.0732 -0.9782 0.1944
vn -0.0135 -0.9986 -0.0513
vn -0.0451 0.8258 -0.5621
vn -0.5328 -0.5530 0.6406
vn 0.4447 0.1184 -0.8878
vn -0.4999 0.3548 0.7901
vn -0.6287 0.4997 0.5959
vn 0.4068 -0.2270 -0.8849
vn -0.3089 0.9486 -0.0691
vn 0.0849 -0.6064 -0.7906
vn 0.0338 0.9952 -0.0917
vn 0.2929 -0.3104 -0.9043
vn -0.1947 0.9521 0.2359
vn -0.7114 0.4886 0.5052
vn 0.3156 -0.2827 -0.9058
vn -0.2671 -0.5495 -0.7916
vn -0.1008 0.1918 -0.9762
vn -0.9754 -0.2095 -0.0690
vn -0.9691 0.0792 -0.2336
vn -0.9289 -0.3688 -0.0339
vn -0.9353 0.1857 0.3011
vn 0.1028 -0.3571 -0.9284
vn -0.4036 -0.3406 -0.8492
vn -0.4320 0.8692 -0.2405
vn -0.8057 0.0170 -0.5921
vn -0.2237 0.2245 -0.9484
vn -0.9165 0.3034 -0.2607
vn -0.9253 0.3521 0.1408
vn -0.9367 -0.3446 0.0617
vn -0.9214 -0.3564 -0.1550
vn -0.5732 0.1594 -0.8038
vn -0.1220 0.8490 -0.5141
vn 0.0371 0.8958 -0.4430
vn 0.0419 0.8967 -0.4406
vn 0.1500 0.9113 -0.3834
vn 0.4797 0.5732 -0.6643
vn -0.2904 0.9320 -0.2170
usemtl Default_OBJ.009
s 1
f 1/1/1 2/2/2 3/3/3
f 3/3/4 4/4/5 5/5/6
f 3/3/3 6/6/7 7/7/8
f 8/8/9 9/9/10 10/10/11
f 10/10/11 9/9/10 5/5/6
f 5/5/6 11/11/12 12/12/13
f 13/13/14 14/14/15 15/15/16
f 9/16/17 16/17/18 14/14/15
f 1/1/19 12/12/19 17/18/19
f 18/19/20 19/20/21 13/13/14
f 19/20/21 14/14/15 13/13/14
f 11/21/22 9/16/17 14/14/15
f 13/22/23 20/23/24 18/24/25
f 15/15/26 21/25/27 13/13/28
f 22/26/29 21/25/27 15/15/26
f 16/17/30 23/27/31 15/15/32
f 24/28/33 8/29/9 25/30/34
f 26/31/35 11/21/36 19/20/37
f 27/32/38 18/24/25 20/23/24
f 28/33/39 12/34/13 11/35/12
f 6/36/40 2/37/41 29/38/42
f 20/23/24 13/22/23 21/39/43
f 30/40/44 12/34/13 28/33/39
f 24/28/45 25/30/46 31/41/47
f 25/30/46 32/42/48 31/41/47
f 33/43/49 6/36/40 29/38/42
f 8/29/9 24/28/33 34/44/50
f 35/45/51 22/46/52 34/47/53
f 20/23/24 21/39/54 36/48/55
f 37/49/56 38/50/57 33/43/49
f 26/51/58 39/52/59 28/53/60
f 24/28/45 31/41/47 40/54/61
f 35/45/51 34/47/53 41/55/62
f 32/42/48 42/56/63 31/41/47
f 43/57/64 30/40/44 28/33/39
f 44/58/65 45/59/66 30/40/67
f 46/60/68 27/61/69 47/62/70
f 36/48/55 21/39/54 48/63/71
f 48/63/71 21/39/54 35/64/72
f 28/33/39 49/65/73 43/57/64
f 24/28/74 50/66/75 51/67/76
f 30/40/67 52/68/77 44/58/65
f 53/69/78 45/59/79 44/58/80
f 50/66/75 24/28/74 40/54/81
f 33/43/49 29/38/42 54/70/82
f 54/70/82 37/49/56 33/43/49
f 55/71/83 39/52/59 56/72/84
f 50/66/75 57/73/85 51/67/76
f 36/48/55 58/74/86 20/23/24
f 59/75/87 37/49/56 60/76/88
f 56/72/89 39/52/90 46/60/91
f 61/77/92 47/78/93 58/74/86
f 62/79/94 35/45/51 41/55/62
f 49/80/73 55/71/95 56/72/96
f 63/81/97 44/58/65 52/68/77
f 64/82/98 29/38/42 65/83/99
f 54/70/82 60/76/88 37/49/56
f 64/82/98 54/70/82 29/38/42
f 66/84/100 48/63/71 62/85/101
f 41/55/62 67/86/102 68/87/103
f 41/55/62 57/88/104 67/86/102
f 69/89/105 49/80/73 56/72/96
f 50/66/75 70/90/106 57/73/85
f 71/91/107 52/68/108 43/57/109
f 62/79/94 41/55/62 68/87/103
f 72/92/110 69/89/111 56/72/112
f 66/84/100 73/93/113 36/48/55
f 71/91/107 74/94/114 52/68/108
f 61/95/115 72/92/110 56/72/112
f 75/96/116 70/90/106 50/66/75
f 76/97/117 77/98/118 50/66/75
f 78/99/119 66/84/100 62/85/101
f 61/95/115 79/100/120 72/92/110
f 80/101/121 69/102/111 72/103/110
f 69/104/105 81/105/122 82/106/123
f 62/107/94 83/108/124 78/109/125
f 84/110/126 85/111/127 81/112/128
f 86/113/129 63/81/130 74/94/114
f 84/110/131 67/114/132 70/115/133
f 87/116/134 59/75/87 88/117/135
f 89/118/136 81/112/128 69/102/137
f 89/118/136 84/110/126 81/112/128
f 90/119/138 77/98/118 76/97/117
f 63/120/139 91/121/140 65/83/99
f 86/113/141 91/122/140 63/81/139
f 64/82/98 65/83/99 91/121/140
f 82/106/123 81/105/122 92/123/142
f 72/103/143 89/118/144 80/101/145
f 80/101/146 89/118/136 69/102/137
f 91/121/140 93/124/147 64/82/98
f 94/125/148 73/126/149 83/108/150
f 75/96/151 77/98/118 95/127/152
f 74/94/153 71/91/154 96/128/155
f 97/129/156 87/116/134 88/117/135
f 94/125/148 84/110/157 89/118/158
f 92/123/142 85/130/159 98/131/160
f 96/132/161 82/106/123 99/133/162
f 100/134/163 92/123/142 98/131/164
f 101/135/165 102/136/166 95/127/167
f 97/137/168 101/135/169 90/119/170
f 99/133/162 82/106/123 103/138/171
f 104/139/172 101/140/169 97/141/168
f 104/142/173 97/129/156 88/117/135
f 105/143/174 101/140/169 104/139/172
f 106/144/175 107/145/175 91/146/175
f 99/133/176 106/144/177 96/132/178
f 99/133/162 103/138/171 100/134/163
f 108/147/179 109/148/180 93/124/147
f 108/147/179 93/124/147 107/149/181
f 99/133/182 105/143/183 106/144/184
f 105/143/183 108/150/185 106/144/184
f 105/143/183 104/139/186 108/150/185
f 106/144/184 108/150/185 107/145/187
f 10/10/188 7/7/188 110/151/188
f 10/10/189 4/4/5 7/7/190
f 4/4/5 3/3/4 7/7/190
f 4/4/5 10/10/11 5/5/6
f 10/10/191 111/152/192 112/153/193
f 111/152/192 10/10/191 110/151/194
f 10/10/191 112/153/193 25/154/195
f 1/1/196 3/3/4 12/12/13
f 110/151/197 7/7/8 6/6/7
f 10/10/11 25/154/34 8/8/9
f 6/6/7 3/3/3 2/2/2
f 111/152/192 38/155/198 112/153/193
f 12/12/13 3/3/4 5/5/6
f 2/2/2 1/1/1 17/18/199
f 16/156/18 9/9/17 8/8/200
f 6/36/40 111/157/201 110/158/202
f 15/15/16 14/14/15 16/17/18
f 5/5/6 9/9/10 11/11/12
f 19/20/21 11/21/22 14/14/15
f 15/15/32 23/27/31 22/26/203
f 18/19/20 27/159/204 19/20/21
f 6/36/40 38/50/57 111/157/201
f 33/43/49 38/50/57 6/36/40
f 22/46/29 35/45/205 21/160/27
f 16/17/30 34/161/206 23/27/31
f 26/31/35 19/20/37 27/159/69
f 16/156/207 8/8/9 34/162/50
f 45/59/79 17/163/208 12/34/209
f 38/155/198 25/154/195 112/153/193
f 26/51/35 28/53/210 11/164/36
f 23/27/31 34/161/206 22/26/203
f 45/59/66 12/34/211 30/40/67
f 113/165/212 29/38/42 2/37/41
f 32/42/213 25/30/195 38/166/198
f 47/78/93 27/32/38 20/23/24
f 113/165/212 2/37/41 17/167/214
f 17/163/208 45/59/79 53/69/78
f 113/165/212 17/167/214 53/168/215
f 27/61/69 46/60/68 26/51/35
f 38/50/57 37/49/56 32/169/216
f 51/67/217 34/44/217 24/28/217
f 46/60/91 39/52/90 26/51/218
f 55/71/83 28/53/60 39/52/59
f 57/88/104 34/47/53 51/170/219
f 41/55/62 34/47/53 57/88/104
f 58/74/86 47/78/93 20/23/24
f 49/65/73 28/33/39 55/171/95
f 32/169/216 37/49/56 59/75/87
f 62/85/101 48/63/71 35/64/72
f 52/68/108 30/40/220 43/57/109
f 31/41/47 42/56/63 40/54/61
f 63/81/221 53/69/78 44/58/80
f 65/83/99 29/38/42 113/165/212
f 63/120/139 113/165/212 53/168/215
f 48/63/71 66/84/100 36/48/55
f 113/165/212 63/120/139 65/83/99
f 76/97/222 40/54/61 42/56/63
f 43/57/64 49/65/73 71/91/223
f 47/62/70 56/72/112 46/60/68
f 70/172/133 67/86/132 57/88/224
f 47/62/70 61/95/115 56/72/112
f 36/48/55 114/173/225 58/74/86
f 76/97/117 50/66/75 40/54/81
f 58/74/86 114/173/225 61/77/92
f 87/116/134 32/169/216 59/75/87
f 52/68/108 74/94/114 63/81/130
f 42/56/63 32/42/48 87/174/226
f 87/174/226 76/97/222 42/56/63
f 73/93/113 114/173/225 36/48/55
f 77/98/118 75/96/227 50/66/75
f 61/95/228 114/175/228 79/100/228
f 75/176/116 85/130/159 70/177/106
f 87/174/226 90/119/229 76/97/222
f 69/178/105 71/91/223 49/65/73
f 82/179/123 71/91/223 69/178/105
f 60/76/88 88/117/135 59/75/87
f 83/108/124 62/107/94 68/180/103
f 54/70/82 109/148/180 60/76/88
f 84/110/131 70/115/133 85/111/230
f 109/148/180 88/117/135 60/76/88
f 83/108/124 68/180/103 67/114/231
f 92/123/142 81/105/122 85/130/159
f 64/82/98 93/124/147 54/70/82
f 78/99/119 73/93/113 66/84/100
f 79/181/232 114/182/233 94/125/148
f 72/103/234 79/181/232 94/125/148
f 72/103/143 94/125/235 89/118/144
f 95/127/152 77/98/118 90/119/138
f 87/174/226 97/137/236 90/119/229
f 114/182/233 73/126/149 94/125/148
f 83/108/237 67/114/132 84/110/131
f 96/128/238 71/91/223 82/179/123
f 73/126/149 78/109/239 83/108/150
f 94/125/148 83/108/150 84/110/157
f 103/138/171 82/106/123 92/123/142
f 102/183/240 98/131/240 75/176/240
f 95/127/167 102/136/166 75/96/241
f 98/131/160 85/130/159 75/176/116
f 74/94/153 96/128/155 86/113/242
f 91/122/243 86/113/244 96/128/178
f 103/138/171 92/123/142 100/134/163
f 95/127/245 90/119/170 101/135/169
f 93/124/147 109/148/180 54/70/82
f 102/183/246 101/140/247 98/131/248
f 101/140/247 105/143/249 98/131/248
f 91/121/140 107/149/181 93/124/147
f 109/148/180 108/147/179 88/117/135
f 108/147/179 104/142/173 88/117/135
f 96/132/178 106/144/177 91/146/243
f 100/134/250 98/131/250 105/143/250
f 105/143/251 99/133/162 100/134/163
