# Blender v2.93.1 OBJ File: ''
# www.blender.org
mtllib ROCK_TALL02.mtl
o ROCK_SMALL06.001
v -2.886975 -2.941545 -1.266430
v -2.175756 -4.116129 -2.476856
v -3.378078 -3.616198 0.497675
v -2.529135 0.048235 -1.165114
v -2.379874 -1.065262 -2.189620
v -3.156864 -2.230526 -0.564351
v -2.385302 -2.643226 -2.173774
v -3.125831 -2.869940 0.336477
v -2.991800 -0.282627 0.543115
v -0.952711 0.462825 -2.454852
v -1.362944 -0.768468 -2.972281
v -0.349347 -1.497678 -2.855316
v -1.359549 -2.519089 -2.422337
v -2.404120 -5.137740 -0.926420
v -1.933975 -2.843467 1.438985
v -1.617586 1.032181 -1.287421
v -2.207960 0.286890 -0.153840
v -0.942038 4.338707 -2.324928
v -0.855936 3.570172 -2.165369
v -1.878890 3.934283 -1.365411
v -1.284238 2.175568 -2.070210
v -1.812865 3.471527 -0.894326
v -2.058752 1.052146 0.638252
v -2.188421 1.873836 0.024965
v -0.331056 0.233986 -2.559241
v -2.015557 6.786687 -0.685467
v -2.283041 5.816248 0.358141
v -2.165879 4.237154 -0.164568
v -1.926983 3.333603 0.638987
v -2.431583 -0.572726 1.443514
v -1.859936 0.343849 1.804585
v -3.058549 -4.534157 0.221060
v -1.830690 -3.427427 1.773920
v -1.569047 4.147931 0.957581
v -1.903965 1.698736 1.257795
v -2.172374 -5.529822 0.711453
v -1.677542 -4.715816 1.756516
v -0.343493 -3.564916 -2.176971
v -0.324246 -4.280101 -2.322503
v 0.612102 3.553026 -1.824265
v 0.266266 -5.548186 -1.684198
v -1.663778 -5.141366 -2.219152
v -1.428158 6.632326 1.313139
v -1.706349 7.257180 0.494411
v 0.700317 -2.774199 -2.445931
v -0.347747 7.149026 -0.071824
v -1.476496 5.750395 -1.996042
v 0.944807 5.124623 -1.680718
v -1.614312 1.230443 1.307343
v 1.085859 1.763236 -1.924445
v -0.491040 1.922583 -2.586465
v 1.270372 -0.846929 -2.185925
v -1.689701 -5.695384 -0.105989
v -0.690209 -5.709211 2.176193
v 0.080438 6.893989 -1.691490
v -0.650829 -1.202139 2.177066
v -2.735366 -1.998732 1.427067
v -0.686344 -2.082692 2.415037
v 1.446753 -4.254017 -2.055089
v -0.488706 -5.671422 0.392487
v 0.363580 7.233949 1.460890
v -1.029732 -2.759696 1.980065
v -0.061864 -4.581346 2.842281
v -0.457900 6.841098 1.790471
v -0.447690 3.585226 1.540931
v -1.177560 4.870673 1.503717
v -0.665339 -3.178539 2.818770
v 2.007206 3.823658 -1.228566
v 0.805475 -5.404810 1.512485
v 1.099253 7.368387 0.975911
v 1.104517 5.034580 1.893741
v 1.819186 6.644163 -0.720132
v 1.816414 3.145275 -0.876318
v 2.155430 1.486116 -1.251931
v -0.077125 -3.424356 2.957591
v 2.682209 -3.992289 -1.876889
v 2.515913 0.478910 -1.692251
v 1.781531 5.165304 0.707508
v 2.029351 2.257391 -0.431665
v 2.928833 -1.617851 -1.644997
v 1.061291 -1.871419 3.397898
v 0.014311 0.078759 2.758211
v 0.950620 5.931755 1.978697
v 2.213749 -5.330678 -0.479109
v 1.416151 -5.694041 -0.951599
v 1.419591 0.144649 2.933121
v -0.381924 1.193499 1.928476
v 0.981124 -4.570635 2.421544
v 2.065221 -4.873725 0.663451
v 1.929848 1.224021 1.563216
v 3.385923 -0.160924 -1.282735
v 1.629014 -5.221224 1.678459
v 1.147808 3.809933 1.704044
v 1.690665 3.363881 0.748587
v 1.268252 2.565886 1.747172
v 2.570920 0.986465 1.314894
v 2.899755 0.766869 -0.271315
v 1.553031 -3.398153 2.433741
v 1.137777 0.794442 2.436909
v 3.045238 -4.408744 -0.276217
v 2.227691 -4.187738 1.673643
v 1.833859 -1.125981 2.792783
v 2.437330 -0.902953 0.737362
v 3.157639 -1.810853 -1.054467
v 3.186018 -3.323789 -0.716836
v 2.382554 -2.940711 1.101387
vt 0.159793 0.588193
vt 0.205272 0.655876
vt 0.085247 0.611603
vt 0.178127 0.445295
vt 0.220641 0.504111
vt 0.132991 0.549890
vt 0.207025 0.584167
vt 0.089912 0.576268
vt 0.101301 0.446938
vt 0.356252 0.395332
vt 0.337252 0.454845
vt 0.282810 0.459581
vt 0.367709 0.498338
vt 0.256356 0.590167
vt 0.133749 0.702861
vt 0.015892 0.570912
vt 0.202258 0.370811
vt 0.262211 0.402585
vt 0.141761 0.408042
vt 0.282421 0.205425
vt 0.274573 0.245856
vt 0.217758 0.215577
vt 0.245641 0.314884
vt 0.193765 0.237973
vt 0.104989 0.360014
vt 0.139887 0.317814
vt 0.383136 0.413441
vt 0.207347 0.061720
vt 0.150567 0.102778
vt 0.162907 0.189479
vt 0.118935 0.234286
vt 0.053203 0.445148
vt 0.041099 0.387486
vt 0.086900 0.654999
vt 0.001334 0.605101
vt 0.103529 0.186871
vt 0.080063 0.317430
vt 0.054841 0.712457
vt 0.000000 0.672968
vt 0.353313 0.600699
vt 0.346935 0.636393
vt 0.315924 0.540510
vt 0.379053 0.235164
vt 0.375940 0.193094
vt 0.452439 0.242594
vt 0.282421 0.777433
vt 0.204660 0.713262
vt 0.278293 0.695809
vt 0.554380 0.650557
vt 0.613829 0.686539
vt 0.581778 0.726167
vt 0.403402 0.568609
vt 0.324027 0.772071
vt 0.399842 0.755752
vt 0.405394 0.844120
vt 0.360034 0.111610
vt 0.473511 0.157520
vt 0.067023 0.341398
vt 0.462221 0.344404
vt 0.385512 0.324215
vt 0.447925 0.481309
vt 0.767870 0.832118
vt 0.836741 0.853663
vt 0.718441 0.972201
vt 0.653443 0.034938
vt 0.597733 0.079669
vt 0.556347 0.021484
vt 0.440676 0.058070
vt 0.638920 0.269802
vt 0.535669 0.230584
vt 0.642523 0.223253
vt 0.425526 0.647754
vt 0.370104 0.712009
vt 0.691984 0.841679
vt 0.651384 0.740963
vt 0.506784 0.840409
vt 0.617236 0.188571
vt 0.570150 0.180808
vt 0.585845 0.147263
vt 0.682390 0.099554
vt 0.661825 0.699345
vt 0.595749 0.563002
vt 0.653833 0.530306
vt 0.625799 0.600207
vt 0.654480 0.165965
vt 0.526273 0.229543
vt 0.589690 0.819920
vt 0.501563 0.893028
vt 0.730507 0.602853
vt 0.424404 0.981642
vt 0.535280 0.075508
vt 0.524913 0.271358
vt 0.521371 0.364119
vt 0.681721 0.156786
vt 0.476215 0.642801
vt 0.519640 0.425097
vt 0.870687 0.140544
vt 0.805951 0.072296
vt 0.883281 0.028493
vt 0.809031 0.244681
vt 0.829670 0.289059
vt 0.794713 0.327533
vt 0.519277 0.538817
vt 0.725940 0.234116
vt 0.681382 0.330376
vt 0.731228 0.028559
vt 0.932039 0.095427
vt 0.475676 0.736341
vt 0.428833 0.738807
vt 0.790785 0.211951
vt 0.746623 0.332902
vt 0.656111 0.400085
vt 0.731676 0.094909
vt 0.576898 0.969758
vt 0.542501 0.903953
vt 0.636519 0.970606
vt 0.922550 0.340533
vt 0.772836 0.384084
vt 0.800455 0.425850
vt 0.768340 0.488009
vt 0.767950 0.048703
vt 0.926267 0.201290
vt 0.879750 0.228106
vt 0.930504 0.262737
vt 0.902736 0.368704
vt 0.839397 0.382953
vt 0.759064 0.154540
vt 0.981615 0.341178
vt 0.540353 0.834622
vt 0.524777 0.699959
vt 0.999611 0.667450
vt 0.947664 0.699851
vt 0.931385 0.637311
vt 0.891197 0.686524
vt 0.767950 0.267550
vt 0.887767 0.461190
vt 0.797702 0.502343
vt 0.992206 0.463853
vt 0.999611 0.386432
vt 0.807177 0.585802
vt 0.905477 0.568350
vt 0.982514 0.595921
vt 0.828741 0.647907
vt 0.044347 0.521422
vt 0.158099 0.021484
vt 0.264895 0.127050
vt 0.345364 0.302896
vt 0.772451 0.775492
vt 0.836741 0.942595
vt 0.334140 0.021484
vt 0.328678 0.910676
vt 0.552413 0.308467
vt 0.591455 0.407904
vt 0.586990 0.353572
vt 0.580237 0.433620
vt 0.506784 0.782576
vt 0.728932 0.539049
vt 0.734212 0.473831
vt 0.700837 0.723356
vt 0.725611 0.649849
vt 0.921720 0.021484
vt 0.730414 0.373838
vt 0.929634 0.140383
vt 0.535280 0.639365
vt 0.836288 0.717803
vn -0.9218 -0.0974 -0.3753
vn -0.8702 -0.2824 -0.4038
vn -0.9074 -0.2311 -0.3510
vn -0.9441 0.1888 -0.2702
vn -0.9208 0.1114 -0.3738
vn -0.9904 0.0098 -0.1378
vn -0.8735 -0.0115 -0.4867
vn -0.9457 0.2865 -0.1537
vn -0.9394 0.2203 0.2628
vn -0.6243 0.4754 -0.6199
vn -0.6203 0.4704 -0.6276
vn -0.6250 0.4763 -0.6185
vn -0.3609 -0.6142 -0.7018
vn -0.2437 0.0778 -0.9667
vn -0.2845 -0.0464 -0.9576
vn -0.1381 -0.0689 -0.9880
vn -0.8748 -0.3243 -0.3598
vn -0.6372 0.3623 0.6802
vn -0.6353 0.3469 0.6899
vn -0.5835 0.3330 0.7407
vn -0.9098 -0.0178 -0.4147
vn -0.8790 -0.0554 -0.4736
vn -0.7457 0.6303 -0.2158
vn -0.4099 0.9082 -0.0842
vn -0.6937 0.6860 -0.2196
vn -0.6737 -0.1540 -0.7227
vn -0.6072 -0.0129 -0.7944
vn -0.8915 -0.1184 -0.4373
vn -0.9180 -0.0565 -0.3926
vn -0.9697 -0.1641 -0.1810
vn -0.9295 -0.3033 -0.2098
vn -0.9954 -0.0360 -0.0893
vn 0.1691 0.2217 -0.9604
vn -0.0107 0.3909 -0.9204
vn 0.1406 0.2684 -0.9530
vn -0.9740 0.1686 -0.1512
vn -0.9642 0.0581 0.2587
vn -0.9715 -0.1554 -0.1792
vn -0.9364 -0.3365 -0.1000
vn -0.9237 0.1764 0.3400
vn -0.8280 0.4730 -0.3010
vn -0.7961 0.2167 0.5651
vn -0.7777 0.4233 0.4648
vn -0.5498 -0.4106 0.7274
vn -0.6586 -0.3166 0.6826
vn -0.6408 -0.1710 0.7484
vn -0.7275 -0.0312 0.6854
vn -0.8831 -0.0689 0.4642
vn -0.9620 0.0639 0.2655
vn -0.7030 -0.3600 0.6133
vn -0.6562 -0.2164 0.7229
vn -0.7708 0.4777 0.4215
vn 0.3156 0.1068 -0.9429
vn 0.1714 -0.0076 -0.9852
vn 0.1622 -0.1173 -0.9798
vn 0.2266 0.0333 -0.9734
vn 0.2394 0.0879 -0.9669
vn 0.3934 0.1041 -0.9135
vn 0.2473 -0.4589 -0.8534
vn 0.1032 -0.2753 -0.9558
vn -0.6721 0.0956 0.7343
vn -0.8909 0.3267 0.3156
vn 0.1506 -0.1385 -0.9788
vn -0.1049 0.9547 -0.2786
vn -0.0287 0.9669 -0.2535
vn 0.0057 0.9840 -0.1780
vn 0.1745 0.1882 -0.9665
vn 0.4003 0.1372 -0.9061
vn -0.7190 -0.3834 0.5797
vn -0.5685 -0.2694 0.7773
vn -0.5184 -0.0856 0.8508
vn 0.5164 0.1996 -0.8328
vn 0.3626 -0.1968 -0.9109
vn 0.3487 0.0114 -0.9372
vn -0.7948 0.4491 0.4082
vn 0.3211 0.0666 -0.9447
vn -0.2410 -0.9603 -0.1403
vn -0.4260 -0.8831 -0.1968
vn -0.0996 -0.9866 -0.1293
vn -0.5879 -0.2608 0.7657
vn 0.3045 0.1430 -0.9417
vn -0.4189 0.0113 0.9080
vn -0.3760 0.1186 0.9190
vn -0.4117 0.2532 0.8754
vn 0.1935 -0.3638 -0.9112
vn 0.1022 -0.9947 0.0073
vn 0.0762 -0.9970 0.0123
vn -0.0962 0.9953 -0.0105
vn -0.4210 -0.3295 0.8451
vn -0.5203 -0.4732 0.7110
vn -0.4259 -0.3477 0.8353
vn -0.4864 -0.4509 0.7484
vn -0.5254 -0.1681 0.8341
vn -0.2710 0.8094 0.5209
vn -0.3527 0.7371 0.5764
vn -0.4475 0.6310 0.6337
vn -0.2646 0.0318 0.9638
vn -0.4923 -0.1061 0.8640
vn -0.7135 0.3962 0.5779
vn -0.5821 0.3861 0.7156
vn -0.7780 0.3576 0.5166
vn -0.3408 0.0436 0.9391
vn 0.4706 0.0789 -0.8788
vn -0.8767 0.1514 0.4565
vn 0.2661 -0.9577 -0.1096
vn -0.0206 0.9839 -0.1775
vn -0.2926 -0.0402 0.9554
vn -0.1486 -0.1080 0.9830
vn 0.1544 0.9604 -0.2320
vn 0.5255 0.2176 -0.8225
vn 0.6151 0.2435 -0.7499
vn 0.6473 0.5416 -0.5364
vn -0.5118 0.1259 0.8498
vn -0.3109 0.0538 0.9489
vn 0.6247 -0.3117 -0.7160
vn 0.6184 0.4899 -0.6144
vn 0.9466 0.0739 0.3139
vn 0.9661 0.1663 0.1977
vn 0.9039 0.2365 0.3563
vn 0.9982 0.0107 0.0588
vn 0.9818 0.1722 0.0803
vn 0.9912 0.1289 0.0312
vn 0.3412 0.0838 -0.9362
vn 0.3451 0.0503 -0.9372
vn -0.4099 0.1111 0.9054
vn -0.2836 0.3786 0.8811
vn 0.3681 -0.4145 0.8323
vn 0.4196 -0.6234 0.6597
vn 0.1885 -0.7752 0.6030
vn 0.8688 0.1715 0.4645
vn 0.6417 -0.6499 -0.4073
vn 0.4366 -0.6249 -0.6472
vn 0.9909 -0.0750 0.1119
vn -0.1306 0.4000 0.9072
vn -0.2679 0.3472 0.8987
vn 0.4017 -0.3552 0.8441
vn 0.3192 -0.2585 0.9118
vn 0.1836 -0.9043 0.3855
vn 0.2607 -0.9563 0.1322
vn 0.2250 -0.9023 0.3679
vn 0.9195 0.3284 0.2160
vn 0.4678 0.0723 -0.8809
vn 0.3751 -0.5641 0.7356
vn 0.8745 0.0121 0.4849
vn 0.9496 -0.0079 0.3135
vn 0.9194 0.1814 0.3491
vn 0.3843 0.9159 0.1161
vn 0.4524 0.8863 0.0993
vn 0.7279 0.6838 -0.0510
vn 0.7510 0.5674 -0.3377
vn 0.3911 -0.3008 0.8698
vn 0.6625 0.2289 0.7132
vn 0.5054 0.5291 0.6816
vn 0.5555 0.4269 0.7135
vn 0.2534 -0.9434 -0.2141
vn 0.2803 -0.4464 0.8498
vn 0.4440 0.5960 0.6691
vn 0.8340 -0.4576 -0.3082
vn 0.5568 -0.2985 0.7752
vn 0.7767 -0.5721 0.2636
vn 0.8488 -0.4908 0.1968
vn 0.7137 -0.6271 0.3121
vn 0.7931 -0.0115 0.6089
vn 0.7110 0.1561 0.6857
vn 0.6791 -0.1153 0.7250
vn 0.9092 -0.0325 0.4150
vn 0.9473 -0.0463 0.3171
vn 0.9229 0.0116 0.3848
vn 0.9390 -0.0551 0.3394
vn 0.9608 -0.1409 0.2388
vn 0.7561 0.1769 0.6300
vn 0.9196 0.0771 0.3851
vn 0.9112 0.0290 0.4109
vn 0.8314 -0.0729 0.5508
vn 0.8705 0.1080 0.4802
vn 0.9231 0.0358 0.3830
vn -0.9630 -0.2342 -0.1330
vn -0.6277 0.4798 -0.6130
vn 0.0009 -0.0450 -0.9990
vn -0.7583 -0.4875 -0.4329
vn -0.1662 -0.2410 -0.9562
vn -0.9516 0.0731 0.2985
vn -0.8924 -0.1869 -0.4107
vn -0.3382 0.9343 -0.1131
vn -0.9619 0.2063 0.1796
vn -0.5690 -0.5310 0.6279
vn -0.5354 0.1029 -0.8383
vn -0.7310 -0.6798 -0.0593
vn -0.4282 -0.9037 -0.0040
vn -0.8564 0.0105 -0.5163
vn -0.5218 0.0941 -0.8479
vn -0.5232 0.0891 -0.8475
vn -0.9738 0.0157 0.2269
vn -0.1787 -0.9788 -0.0996
vn -0.3530 0.6578 -0.6653
vn 0.0637 0.9883 -0.1388
vn 0.2401 0.1740 -0.9550
vn -0.4023 -0.0177 0.9153
vn -0.3688 0.5303 0.7634
vn -0.3577 0.5081 0.7835
vn -0.0718 -0.9938 -0.0851
vn -0.2144 0.8508 0.4797
vn -0.4390 -0.1422 0.8872
vn -0.4596 -0.0624 0.8859
vn -0.0621 -0.0293 0.9976
vn 0.4197 -0.5085 -0.7519
vn -0.0032 0.1347 0.9909
vn 0.2939 0.4646 0.8353
vn 0.1549 0.4245 0.8921
vn 0.2796 0.4610 0.8422
vn -0.2122 -0.1281 0.9688
vn -0.8204 0.1798 0.5428
vn 0.4149 0.4915 0.7657
vn -0.1542 0.4991 0.8527
vn 0.8667 0.0302 0.4980
vn 0.9344 -0.1356 -0.3293
vn 0.9116 -0.1250 -0.3916
vn 0.8959 -0.1801 -0.4060
vn 0.9144 -0.1089 -0.3899
vn 0.4067 0.6593 0.6324
vn 0.6550 -0.6683 0.3525
vn 0.6546 -0.6692 0.3516
usemtl Default_OBJ.001
s 1
f 1/1/1 2/2/2 3/3/3
f 4/4/4 5/5/5 6/6/6
f 5/5/5 7/7/7 1/1/1
f 8/8/8 1/1/8 3/3/8
f 4/4/4 6/6/6 9/9/9
f 10/10/10 11/11/11 5/12/12
f 5/12/13 11/11/13 12/13/13
f 7/7/14 5/5/15 13/14/16
f 2/2/2 14/15/17 3/3/3
f 8/8/18 3/3/19 15/16/20
f 16/17/21 10/18/22 17/19/23
f 17/19/23 4/4/24 9/9/25
f 18/20/26 19/21/27 20/22/28
f 20/22/28 21/23/29 22/24/30
f 23/25/31 24/26/32 16/17/21
f 11/11/33 10/10/34 25/27/35
f 26/28/36 20/22/28 27/29/37
f 27/29/37 20/22/28 28/30/38
f 22/24/30 29/31/39 28/30/38
f 24/26/32 29/31/40 22/24/30
f 17/19/23 23/25/41 16/17/21
f 30/32/42 31/33/43 9/9/9
f 3/3/44 32/34/45 33/35/46
f 29/31/40 34/36/47 28/30/48
f 29/31/40 24/26/32 35/37/49
f 36/38/50 37/39/51 32/34/45
f 31/33/43 23/25/52 9/9/9
f 12/13/53 11/11/33 25/27/35
f 38/40/54 39/41/55 13/42/16
f 19/43/56 18/44/57 40/45/58
f 41/46/59 42/47/60 39/48/55
f 27/49/37 43/50/61 44/51/62
f 38/40/54 13/42/16 45/52/63
f 26/53/64 44/54/65 46/55/66
f 47/56/67 48/57/68 18/44/57
f 23/25/69 49/58/70 35/37/71
f 50/59/72 10/10/73 51/60/74
f 31/33/43 49/58/75 23/25/52
f 25/27/35 52/61/76 12/13/53
f 53/62/77 14/63/78 41/64/79
f 54/65/80 37/66/51 36/67/50
f 40/45/58 50/59/72 51/60/74
f 47/56/67 55/68/81 48/57/68
f 56/69/82 57/70/83 58/71/84
f 39/41/55 59/72/85 41/73/59
f 60/74/86 54/75/87 53/62/77
f 40/45/58 18/44/57 48/57/68
f 46/55/66 44/54/65 61/76/88
f 58/71/89 57/70/90 62/77/91
f 57/70/90 15/78/92 62/77/91
f 33/79/46 37/66/51 63/80/93
f 64/81/94 44/51/95 43/50/96
f 34/82/47 65/83/97 66/84/98
f 62/77/99 33/79/100 67/85/101
f 67/85/102 33/79/46 63/80/93
f 63/80/93 37/66/51 54/65/80
f 68/86/103 40/45/58 48/57/68
f 58/71/104 62/77/99 67/85/101
f 69/87/105 54/75/87 60/74/86
f 70/88/106 46/55/66 61/76/88
f 64/81/107 66/84/98 71/89/108
f 70/88/106 72/90/109 46/55/66
f 48/57/68 55/68/81 72/91/110
f 73/92/111 74/93/112 50/59/72
f 58/71/113 67/85/102 75/94/114
f 48/57/68 72/91/110 68/86/103
f 76/95/115 59/72/85 45/52/63
f 74/93/112 77/96/116 50/59/72
f 78/97/117 72/98/118 70/99/119
f 73/100/120 79/101/121 74/102/122
f 77/96/123 80/103/124 52/61/76
f 58/71/113 81/104/125 82/105/126
f 63/80/127 54/65/128 69/106/129
f 78/97/117 70/99/119 83/107/130
f 80/103/124 76/95/115 45/52/63
f 76/95/115 84/108/131 85/109/132
f 72/98/118 78/97/117 68/110/133
f 86/111/134 87/112/135 82/105/126
f 88/113/136 75/94/137 63/80/127
f 84/114/138 89/115/139 85/116/140
f 79/101/121 90/117/141 74/102/122
f 77/118/123 91/119/142 80/120/124
f 92/121/143 88/113/136 63/80/127
f 93/122/144 94/123/145 78/97/117
f 93/122/144 95/124/146 94/123/145
f 74/102/112 90/117/147 96/125/148
f 74/102/112 97/126/149 91/119/150
f 98/127/151 75/94/137 88/113/136
f 95/124/152 99/128/153 90/117/154
f 91/119/150 77/118/116 74/102/112
f 92/129/155 69/87/105 89/115/139
f 98/127/151 81/104/156 75/94/137
f 96/125/157 90/117/154 99/128/153
f 100/130/158 84/108/131 76/95/115
f 88/131/136 92/132/143 101/133/159
f 101/133/160 92/132/161 89/134/162
f 102/135/163 86/111/164 81/104/165
f 91/119/166 103/136/167 104/137/168
f 103/136/167 97/126/169 96/125/170
f 102/138/163 96/125/171 86/139/164
f 105/140/172 104/137/168 106/141/173
f 104/137/168 103/136/167 106/141/173
f 98/142/174 101/133/175 106/141/173
f 101/133/175 100/143/176 105/140/172
f 103/136/167 102/138/163 106/141/173
f 2/2/2 1/1/1 7/7/7
f 6/6/6 5/5/5 1/1/1
f 6/6/6 1/1/1 8/8/177
f 10/18/10 5/5/12 4/4/178
f 2/2/179 7/7/14 13/14/16
f 14/15/17 2/2/2 42/47/180
f 13/42/16 5/12/15 12/13/181
f 9/9/9 6/6/6 57/144/182
f 32/34/183 3/3/3 14/15/17
f 10/18/184 4/4/24 17/19/23
f 6/6/6 8/8/185 57/144/182
f 2/2/179 13/14/16 39/48/55
f 9/9/9 57/144/182 30/32/42
f 2/2/179 39/48/55 42/47/60
f 20/22/28 22/24/30 28/30/38
f 21/23/29 16/17/21 24/26/32
f 8/8/186 15/16/92 57/144/90
f 19/21/27 21/23/187 20/22/28
f 24/26/32 22/24/30 21/23/29
f 32/34/188 14/15/78 36/38/189
f 27/29/37 44/145/62 26/28/36
f 26/28/36 47/146/190 20/22/28
f 34/36/47 27/29/37 28/30/48
f 21/147/187 51/60/191 10/10/192
f 16/17/21 21/23/29 10/18/22
f 15/16/20 3/3/19 33/35/100
f 18/20/26 20/22/28 47/146/190
f 21/147/187 19/43/27 51/60/191
f 35/37/49 24/26/32 23/25/193
f 9/9/25 23/25/41 17/19/23
f 32/34/45 37/39/51 33/35/46
f 53/62/77 36/148/189 14/63/78
f 42/149/194 41/64/79 14/63/78
f 34/82/47 66/84/98 27/49/37
f 29/31/40 35/37/49 34/36/47
f 55/68/195 47/56/195 26/150/195
f 13/42/16 12/13/181 45/52/63
f 19/43/56 40/45/58 51/60/74
f 53/62/77 54/75/87 36/148/189
f 55/151/196 26/53/64 46/55/66
f 43/50/61 27/49/37 66/84/98
f 25/27/35 10/10/34 50/59/197
f 30/152/198 57/70/83 56/69/82
f 41/64/79 60/74/86 53/62/77
f 43/50/61 66/84/98 64/81/107
f 62/77/99 15/78/20 33/79/100
f 25/27/35 77/96/123 52/61/76
f 38/40/54 59/72/85 39/41/55
f 87/112/135 49/153/199 31/154/200
f 35/155/71 49/153/70 87/112/135
f 25/27/35 50/59/197 77/96/123
f 85/116/201 60/74/86 41/64/79
f 44/54/95 64/156/94 61/76/202
f 65/83/97 34/82/47 35/155/71
f 12/13/53 52/61/76 45/52/63
f 65/83/97 35/155/71 87/112/135
f 82/105/203 30/152/198 56/69/82
f 59/72/85 38/40/54 45/52/63
f 82/105/203 31/154/204 30/152/198
f 41/73/59 59/72/85 85/109/132
f 72/90/109 55/151/196 46/55/66
f 71/89/108 66/84/98 65/83/97
f 93/157/205 65/83/97 87/112/135
f 40/45/206 68/86/206 73/92/206
f 40/45/58 73/92/111 50/59/72
f 82/105/126 87/112/135 31/154/200
f 45/52/63 52/61/76 80/103/124
f 89/115/139 60/74/86 85/116/140
f 89/115/139 69/87/105 60/74/86
f 87/112/135 95/158/207 93/157/205
f 61/159/208 64/81/209 83/160/210
f 71/89/108 83/160/211 64/81/107
f 71/89/108 65/83/97 93/157/205
f 82/105/126 56/69/212 58/71/113
f 75/94/114 67/85/102 63/80/93
f 76/95/115 85/109/132 59/72/85
f 61/161/208 83/107/210 70/99/213
f 99/162/214 95/158/207 87/112/135
f 81/104/125 58/71/113 75/94/114
f 83/107/130 71/163/215 78/97/117
f 68/110/133 94/123/145 73/100/120
f 79/101/121 73/100/120 94/123/145
f 86/111/134 99/162/214 87/112/135
f 92/121/143 63/80/127 69/106/129
f 78/97/117 94/123/145 68/110/133
f 79/101/121 94/123/145 95/124/146
f 78/97/117 71/163/215 93/122/144
f 79/101/121 95/124/146 90/117/141
f 76/95/115 105/164/216 100/130/158
f 74/102/112 96/125/148 97/126/149
f 81/104/125 86/111/134 82/105/126
f 80/120/217 91/119/218 104/137/219
f 76/95/115 80/103/217 105/164/216
f 86/139/220 96/125/157 99/128/153
f 105/140/216 80/120/217 104/137/219
f 84/165/221 100/143/222 89/134/162
f 91/119/166 97/126/169 103/136/167
f 101/133/159 98/142/151 88/131/136
f 102/135/163 81/104/165 98/127/174
f 103/136/167 96/125/170 102/138/163
f 106/141/173 102/138/163 98/142/174
f 106/141/173 101/133/175 105/140/172
f 101/133/160 89/134/162 100/143/222
