# Blender v2.93.1 OBJ File: ''
# www.blender.org
mtllib ROCK_SMALL01.mtl
o Rock_Small01_high.008
v -0.480874 0.297294 2.249564
v -2.190396 -0.140772 1.835189
v 0.007320 -0.129173 1.026741
v -1.457085 -0.181747 0.732326
v -0.327331 0.010159 0.362769
v 0.095492 0.044924 -1.387338
v -1.222280 -0.172707 -1.181747
v 0.135832 0.433648 1.832294
v -0.016540 0.056452 -2.414669
v 1.937710 0.279177 -0.291223
v 1.373726 0.163502 1.364332
v 2.091985 0.231489 -1.595542
v 1.266586 0.138585 2.740699
v 2.278954 0.455835 2.270552
v 1.159208 0.861700 -2.452654
v 2.433473 0.853903 -2.005716
v -0.836235 0.592188 -2.843907
v 1.810411 1.880309 -2.273019
v -1.223566 1.870798 -2.954448
v -0.083347 1.743485 -2.724332
v 0.877552 2.220357 -2.509012
v -0.664355 2.723413 -2.535213
v 1.460423 3.423790 -2.223881
v 2.692736 2.985682 -1.683892
v 0.158157 3.399055 -2.369877
v -2.120156 0.898030 0.513392
v -1.642755 2.040025 -2.488852
v -1.973134 1.293611 -1.226760
v -2.800550 2.177318 1.044481
v -1.871759 2.584883 -0.121731
v -2.248949 1.109132 -0.311885
v -1.776252 3.068535 -1.942432
v -2.148928 3.167158 -0.604797
v -2.357052 3.220190 0.391645
v -2.587573 0.544962 1.644717
v -2.275216 1.316685 1.902686
v 1.767278 1.122921 2.778152
v 0.817214 1.747755 2.644975
v -1.017519 1.943611 2.079436
v -2.232636 3.008611 1.571617
v -1.041907 3.241594 1.797835
v 0.290347 2.639009 2.661088
v 1.798735 2.761835 2.976753
v 0.605449 3.445395 2.636890
v 2.571693 1.142952 -0.605106
v 2.427207 1.022015 1.439127
v 2.332819 1.416877 0.412867
v 2.053446 1.586456 2.342503
v 1.974362 2.399572 1.251272
v 2.536846 2.533571 -0.229363
v 1.799560 2.478598 0.945929
v 1.936905 3.076952 2.366566
v 1.974373 3.501987 -1.028925
v 0.850645 3.312006 0.545395
v 0.452983 3.391487 1.464041
v 0.766477 3.675818 -0.364069
v -0.696372 3.581109 -0.451868
v -1.529490 3.649520 -1.581303
v 0.412618 3.631338 -1.271492
vt 0.505372 0.981569
vt 0.342643 0.984880
vt 0.518514 0.852137
vt 0.376363 0.871640
vt 0.464086 0.808579
vt 0.470893 0.650810
vt 0.348750 0.692543
vt 0.561611 0.928556
vt 0.428986 0.555278
vt 0.653157 0.697671
vt 0.646174 0.847855
vt 0.635875 0.578327
vt 0.665881 0.984880
vt 0.747930 0.917207
vt 0.999369 0.293817
vt 0.926320 0.186282
vt 0.999369 0.081796
vt 0.924111 0.062051
vt 0.942579 0.376687
vt 0.824964 0.116527
vt 0.837995 0.383480
vt 0.852342 0.286865
vt 0.795504 0.206287
vt 0.758775 0.345549
vt 0.683076 0.157459
vt 0.722139 0.028606
vt 0.687418 0.282465
vt 0.237551 0.834567
vt 0.331315 0.894331
vt 0.273965 0.992188
vt 0.118223 0.571317
vt 0.261895 0.523253
vt 0.184651 0.673390
vt 0.099896 0.892112
vt 0.076535 0.775511
vt 0.201748 0.764411
vt 0.024980 0.615979
vt 0.009781 0.737753
vt 0.003906 0.832442
vt 0.325409 0.678265
vt 0.214618 0.947689
vt 0.811495 0.443579
vt 0.400557 0.815454
vt 0.831589 0.462841
vt 0.962788 0.444546
vt 0.953008 0.608561
vt 1.000000 0.766928
vt 0.921573 0.829151
vt 0.856207 0.745794
vt 0.803601 0.584278
vt 0.152795 0.992188
vt 0.677684 0.488011
vt 0.675677 0.599452
vt 0.767361 0.714931
vt 0.776205 0.864349
vt 0.693824 0.766111
vt 0.009707 0.943116
vt 0.523648 0.140626
vt 0.505524 0.331759
vt 0.448935 0.408265
vt 0.553808 0.239322
vt 0.555017 0.422476
vt 0.506749 0.473717
vt 0.627663 0.342403
vt 0.696642 0.055944
vt 0.654128 0.185902
vt 0.654688 0.309288
vt 0.686294 0.445683
vt 0.653708 0.498682
vt 0.440225 0.057431
vt 0.430950 0.174959
vt 0.505299 0.023437
vt 0.394317 0.461064
vt 0.338270 0.381038
vt 0.438277 0.333072
vt 0.293269 0.217146
vt 0.412245 0.213249
vt 0.276902 0.127298
vt 0.429511 0.075951
vt 0.253327 0.294817
vt 0.707621 0.462111
vt 0.312057 0.029287
vt 0.131243 0.248667
vt 0.148558 0.074033
vt 0.005112 0.171516
vt 0.037555 0.067917
vt 0.065001 0.339925
vt 0.269038 0.478314
vt 0.151589 0.457922
vt 0.202315 0.366769
vt 0.000000 0.260322
vt 0.001779 0.378101
vt 0.357642 0.525791
vt 0.413686 0.505246
vt 0.438277 0.013672
vn 0.2531 -0.8776 0.4071
vn 0.0855 -0.9721 0.2184
vn 0.1216 -0.9802 0.1565
vn 0.0378 -0.9992 -0.0097
vn -0.0684 -0.9900 -0.1231
vn 0.1421 -0.9895 -0.0266
vn 0.1635 -0.9865 0.0035
vn 0.2990 -0.8040 0.5140
vn 0.1319 -0.9912 -0.0112
vn 0.1627 -0.9866 -0.0080
vn 0.2588 -0.9658 0.0148
vn 0.0356 -0.8219 0.5686
vn 0.0656 -0.9969 0.0442
vn -0.1607 -0.9799 -0.1183
vn -0.0816 -0.9733 -0.2146
vn -0.2258 -0.9735 -0.0352
vn 0.0007 -0.9508 -0.3097
vn 0.2943 -0.9556 0.0143
vn 0.3017 -0.9534 0.0062
vn 0.2576 -0.4172 -0.8716
vn 0.2906 -0.2697 -0.9180
vn 0.2866 -0.5960 -0.7501
vn 0.2548 -0.6257 -0.7373
vn 0.2073 -0.1286 -0.9698
vn 0.3689 0.0493 -0.9282
vn 0.4023 0.0058 -0.9155
vn 0.2106 0.1369 -0.9679
vn 0.1796 0.1017 -0.9785
vn 0.1870 0.1018 -0.9771
vn 0.1348 0.2395 -0.9615
vn 0.2741 0.1408 -0.9513
vn 0.4546 0.1083 -0.8841
vn 0.0845 0.1675 -0.9822
vn -0.8437 -0.4813 -0.2376
vn -0.7145 -0.5311 -0.4554
vn -0.7109 -0.5341 -0.4575
vn -0.8963 -0.1953 -0.3981
vn -0.8151 -0.3758 -0.4410
vn -0.8865 -0.3011 -0.3514
vn -0.7974 0.1327 -0.5887
vn -0.8386 0.1555 -0.5220
vn -0.8931 0.2742 -0.3566
vn -0.9655 0.0021 -0.2604
vn -0.9633 -0.0013 -0.2683
vn -0.8399 -0.5223 -0.1476
vn -0.8248 -0.4690 -0.3157
vn -0.7687 -0.4473 -0.4572
vn -0.8384 -0.5343 -0.1076
vn -0.7618 -0.2812 -0.5836
vn -0.8919 -0.3618 -0.2711
vn -0.9359 0.2686 -0.2280
vn -0.9327 -0.1894 0.3069
vn -0.7678 -0.0720 -0.6366
vn -0.2415 -0.3331 -0.9114
vn -0.5013 0.0839 0.8612
vn -0.3112 -0.0620 0.9483
vn -0.2505 -0.0273 0.9677
vn -0.2156 -0.0021 0.9765
vn -0.1569 -0.0281 0.9872
vn -0.1947 -0.0872 0.9770
vn -0.3088 0.0993 0.9459
vn -0.7793 0.1346 0.6120
vn -0.6113 -0.0171 0.7913
vn -0.2254 0.1978 0.9540
vn -0.3555 0.1963 0.9138
vn -0.3275 0.0513 0.9435
vn -0.2062 -0.0550 0.9770
vn -0.3283 0.1562 0.9316
vn -0.7758 0.1399 0.6152
vn 0.9638 -0.2603 0.0583
vn 0.9875 0.0991 0.1223
vn 0.9507 -0.0149 0.3097
vn 0.9417 0.2865 0.1762
vn 0.9342 0.1061 0.3406
vn 0.8147 0.0407 0.5784
vn 0.8960 0.4175 -0.1513
vn 0.9983 -0.0545 0.0190
vn 0.9628 0.0347 0.2680
vn 0.6739 0.6552 -0.3413
vn 0.8340 0.1526 0.5303
vn 0.9887 0.0752 0.1299
vn 0.9503 0.0393 0.3089
vn 0.8587 -0.5097 0.0531
vn 0.8082 -0.5887 0.0124
vn 0.9526 -0.3027 -0.0315
vn 0.7142 0.6430 0.2764
vn 0.4428 0.8887 0.1189
vn 0.5900 0.7081 0.3879
vn 0.3606 0.9006 0.2427
vn 0.5461 0.7748 0.3185
vn 0.1672 0.9856 -0.0260
vn 0.3985 0.8754 -0.2737
vn -0.4689 0.6292 -0.6199
vn -0.5333 0.7352 -0.4184
vn -0.4607 0.6162 -0.6388
vn -0.8613 0.4766 0.1763
vn 0.0865 0.9786 0.1867
vn -0.5432 0.7524 -0.3725
vn -0.2675 0.5004 -0.8235
vn -0.2672 0.4937 -0.8276
vn -0.2640 0.4256 -0.8656
vn 0.1120 0.9919 -0.0602
vn -0.0640 0.9900 0.1253
vn -0.1163 0.9907 0.0703
vn -0.1455 0.9770 0.1557
vn -0.2239 0.9549 0.1948
vn -0.0466 0.9984 0.0330
vn 0.1636 0.9706 -0.1764
vn 0.0250 0.9769 -0.2124
vn 0.0260 0.9943 -0.1032
vn 0.4158 0.8782 -0.2363
vn -0.7828 0.5870 -0.2066
vn -0.8115 0.5257 -0.2551
vn -0.8170 0.5120 -0.2654
vn -0.7745 0.6022 -0.1938
vn -0.2690 0.5883 -0.7626
vn -0.3073 -0.8354 -0.4558
vn -0.3963 -0.8564 0.3310
vn 0.4743 -0.2731 0.8370
vn 0.3235 0.8089 0.4910
usemtl Default_OBJ.015
s 1
f 1/1/1 2/2/2 3/3/3
f 2/2/2 4/4/4 3/3/3
f 5/5/5 6/6/6 3/3/3
f 7/7/7 6/6/6 5/5/5
f 1/1/1 3/3/3 8/8/8
f 7/7/7 9/9/9 6/6/6
f 3/3/3 4/4/4 5/5/5
f 3/3/3 10/10/10 11/11/11
f 3/3/3 6/6/6 10/10/10
f 10/10/10 6/6/6 9/9/9
f 8/8/8 3/3/3 11/11/12
f 10/10/10 9/9/9 12/12/13
f 13/13/14 8/8/15 11/11/16
f 8/8/15 13/13/14 1/1/17
f 14/14/18 13/13/19 11/11/11
f 11/11/11 10/10/10 14/14/18
f 9/15/20 15/16/21 12/17/22
f 15/16/21 16/18/23 12/17/22
f 9/15/20 17/19/24 15/16/21
f 18/20/25 16/18/26 15/16/21
f 19/21/27 20/22/28 17/19/24
f 21/23/29 15/16/21 20/22/28
f 18/20/25 15/16/21 21/23/29
f 19/21/27 22/24/30 20/22/28
f 21/23/29 20/22/28 22/24/30
f 23/25/31 18/20/25 21/23/29
f 23/25/31 24/26/32 18/20/25
f 21/23/29 22/24/30 25/27/33
f 15/16/21 17/19/24 20/22/28
f 24/26/32 16/18/26 18/20/25
f 25/27/33 23/25/31 21/23/29
f 26/28/34 4/29/35 2/30/36
f 27/31/37 17/32/38 28/33/39
f 29/34/40 30/35/41 31/36/42
f 32/37/43 27/31/37 28/33/39
f 33/38/44 32/37/43 28/33/39
f 33/38/45 30/35/45 34/39/45
f 7/40/46 28/33/39 17/32/38
f 26/28/34 2/30/36 35/41/47
f 7/40/46 26/28/34 31/36/48
f 31/36/48 28/33/39 7/40/46
f 27/42/37 19/21/49 17/19/38
f 31/36/48 26/28/34 29/34/50
f 26/28/34 35/41/47 29/34/50
f 31/36/42 30/35/41 28/33/51
f 28/33/52 30/35/52 33/38/52
f 29/34/40 34/39/53 30/35/41
f 4/29/54 26/28/54 5/43/54
f 36/44/55 2/45/56 1/46/57
f 13/47/58 37/48/59 38/49/60
f 36/44/55 1/46/57 39/50/61
f 29/34/62 35/41/63 36/51/55
f 36/44/55 39/50/61 40/52/64
f 40/52/64 39/50/61 41/53/65
f 41/53/65 39/50/61 42/54/66
f 43/55/67 44/56/68 42/54/66
f 35/41/63 2/30/56 36/51/55
f 13/47/58 38/49/60 1/46/57
f 42/54/66 39/50/61 1/46/57
f 42/54/66 1/46/57 38/49/60
f 38/49/60 37/48/59 43/55/67
f 29/34/62 36/51/55 40/57/69
f 38/49/60 43/55/67 42/54/66
f 41/53/65 42/54/66 44/56/68
f 45/58/70 46/59/71 14/60/72
f 45/58/70 47/61/73 46/59/71
f 48/62/74 37/63/75 14/60/72
f 48/62/74 46/59/71 49/64/76
f 45/58/70 24/65/77 50/66/78
f 49/64/76 47/61/73 51/67/79
f 51/67/80 47/61/73 50/66/78
f 49/64/76 52/68/81 48/62/74
f 43/69/82 48/62/74 52/68/81
f 12/70/83 45/58/70 10/71/84
f 10/71/84 45/58/70 14/60/72
f 45/58/70 12/70/83 16/72/85
f 48/62/74 14/60/72 46/59/71
f 47/61/73 49/64/76 46/59/71
f 47/61/73 45/58/70 50/66/78
f 45/58/70 16/72/85 24/65/77
f 43/69/82 37/63/75 48/62/74
f 24/73/86 53/74/87 50/75/88
f 54/76/89 51/77/90 50/75/88
f 51/77/79 55/78/91 52/79/92
f 27/42/93 22/24/94 19/21/95
f 40/57/96 34/39/96 29/34/96
f 56/80/97 54/76/89 53/74/87
f 27/42/93 25/27/98 22/24/94
f 32/81/99 25/27/100 27/42/101
f 44/82/102 52/79/92 55/78/91
f 54/76/89 57/83/103 55/78/91
f 41/84/104 34/85/105 40/86/106
f 34/85/105 41/84/104 55/78/91
f 55/78/91 57/83/103 34/85/105
f 34/85/105 57/83/103 58/87/107
f 23/88/108 25/89/109 59/90/110
f 59/90/110 58/87/107 57/83/103
f 53/74/87 54/76/89 50/75/88
f 52/68/92 49/64/76 51/67/79
f 55/78/91 51/77/90 54/76/89
f 53/74/87 24/73/111 23/88/108
f 54/76/89 56/80/97 57/83/103
f 33/91/112 58/87/113 32/92/114
f 41/84/104 44/82/102 55/78/91
f 33/91/112 34/85/115 58/87/113
f 56/80/97 59/90/110 57/83/103
f 56/80/97 53/74/87 59/90/110
f 32/92/99 58/87/116 25/89/100
f 59/90/110 53/74/87 23/88/108
f 58/87/107 59/90/110 25/89/109
f 7/40/117 17/32/117 9/93/117
f 26/28/118 7/40/118 5/43/118
f 13/94/119 14/60/119 37/63/119
f 44/82/120 43/95/120 52/79/120
