# Blender v2.93.1 OBJ File: ''
# www.blender.org
mtllib ROCK_SMALL04.mtl
o Rock_Small04_high.001
v -2.098467 0.196265 0.566689
v -1.355181 1.220633 0.209114
v -1.918668 -0.589349 -2.115847
v -0.972886 -1.624728 2.598900
v 0.736274 -0.645214 1.633324
v -0.069009 -0.214522 2.407895
v -0.048549 -1.541706 1.577537
v 0.991495 -1.414259 1.610359
v 2.066295 -0.625997 -0.416339
v 2.302346 -0.371308 -0.774061
v 1.958992 1.230642 -0.878597
v -2.038778 -1.576725 2.766770
v -1.837178 -1.584940 1.209872
v -1.071455 -0.536676 2.836828
v 0.711213 0.512278 1.452260
v -1.387260 -1.797997 -1.156194
v -0.883516 -1.469826 0.618090
v -1.640543 0.778354 1.466442
v -1.015742 1.363400 0.606975
v 1.303042 -0.576196 -1.169614
v 1.520794 0.220337 -1.856246
v -2.243166 -0.370409 2.201714
v 0.031072 1.336798 -2.843165
v 0.379683 -0.132585 -2.914891
v -0.636720 -0.770894 -2.822035
v 1.247073 2.272463 -0.060342
v -0.124157 2.512675 -0.720842
v 0.426996 1.428315 1.046299
v -0.498980 -2.039620 -2.096931
v 0.478292 -2.138257 -1.101275
v 0.720635 2.445557 -1.955708
v -1.779068 -1.440540 0.029674
v -1.742411 -1.224526 0.804778
v -2.217330 -0.261104 1.072653
v -1.265484 0.757604 -2.292554
v -0.228720 2.173001 -1.958366
v 1.669643 -2.182017 -0.204559
v -1.560732 -1.538358 -1.723707
v -0.311978 2.100068 -1.155499
v -0.874522 1.884756 -0.716277
vt 0.676122 0.710236
vt 0.611082 0.615127
vt 0.818556 0.557194
vt 0.125096 0.047889
vt 0.311979 0.136352
vt 0.218448 0.186961
vt 0.248080 0.035576
vt 0.340237 0.057984
vt 0.540561 0.728514
vt 0.487471 0.709998
vt 0.463057 0.584634
vt 0.960832 0.302489
vt 0.955853 0.400103
vt 0.823663 0.353177
vt 0.119860 0.159465
vt 0.343075 0.246423
vt 0.633158 0.230408
vt 0.888414 0.201495
vt 0.791393 0.248546
vt 0.556039 0.746973
vt 0.537625 0.627191
vt 0.443597 0.798942
vt 0.373214 0.692099
vt 0.100331 0.323815
vt 0.016107 0.202712
vt 0.206103 0.676680
vt 0.291372 0.788767
vt 0.242958 0.880063
vt 0.410966 0.418366
vt 0.327838 0.524358
vt 0.305118 0.338508
vt 0.553226 0.156491
vt 0.660082 0.086499
vt 0.021042 0.068812
vt 0.475743 0.567827
vt 0.827915 0.748625
vt 0.776051 0.808938
vt 0.672809 0.784876
vt 0.691969 0.992587
vt 0.621017 0.879612
vt 0.779360 0.863402
vt 0.341494 0.983549
vt 0.898777 0.444914
vt 0.752942 0.465231
vt 0.265605 0.527294
vt 0.639010 0.376774
vt 0.520133 0.435329
vt 0.577098 0.301319
vt 0.603355 0.873549
vt 0.477331 0.943848
vt 0.536939 0.182677
vt 0.536939 0.025567
vt 0.184996 0.403673
vt 0.725767 0.327989
vt 0.921867 0.110613
vt 0.766135 0.000000
vt 0.777054 0.340571
vt 0.523641 0.366249
vt 0.565733 0.267641
vt 0.709784 0.318808
vt 0.901912 0.598733
vt 0.588324 0.439115
vt 0.602230 0.513935
vt 1.000000 0.538221
vn -0.8247 0.5254 -0.2092
vn -0.8624 0.4809 -0.1582
vn -0.8723 0.4675 -0.1433
vn 0.3808 -0.2745 0.8830
vn 0.6087 -0.0042 0.7934
vn 0.6001 -0.0761 0.7963
vn 0.6265 -0.5808 0.5198
vn -0.0268 -0.0387 0.9989
vn 0.8497 0.0920 0.5193
vn 0.7456 0.2013 0.6353
vn 0.8355 0.1790 0.5195
vn -0.0006 -0.9992 -0.0403
vn -0.0451 -0.9990 -0.0006
vn 0.0140 -0.9985 -0.0532
vn 0.3381 -0.1717 0.9253
vn 0.6783 0.3075 0.6673
vn -0.4854 -0.8743 0.0070
vn -0.1024 -0.9524 0.2873
vn -0.3196 -0.9093 0.2665
vn -0.8283 0.5471 0.1210
vn -0.8159 0.5781 0.0083
vn -0.6757 0.7111 0.1943
vn 0.6033 -0.5337 -0.5926
vn 0.5605 -0.6233 -0.5453
vn 0.3583 -0.7913 -0.4954
vn -0.2209 0.5705 0.7910
vn -0.1229 0.7217 0.6813
vn -0.3546 0.5056 0.7865
vn -0.3940 0.4043 -0.8254
vn -0.1056 0.0235 -0.9941
vn -0.3577 0.0928 -0.9292
vn -0.1175 0.8297 0.5458
vn -0.1591 0.8186 0.5519
vn -0.1264 0.7925 0.5966
vn -0.2609 -0.9654 0.0016
vn -0.1787 -0.9713 0.1573
vn 0.4881 0.4757 0.7317
vn -0.4139 0.3277 0.8493
vn -0.0764 0.9914 -0.1061
vn 0.0105 0.9988 -0.0471
vn 0.1496 0.9876 0.0486
vn -0.8635 -0.4737 0.1729
vn -0.9511 -0.2577 -0.1703
vn -0.9653 -0.2455 -0.0889
vn -0.9819 -0.1853 -0.0404
vn -0.9262 -0.2908 -0.2400
vn -0.8426 -0.2891 -0.4543
vn 0.2149 -0.4669 -0.8578
vn 0.5687 -0.5152 -0.6412
vn 0.4997 -0.5256 -0.6885
vn -0.4673 0.1116 -0.8770
vn -0.7259 0.3876 -0.5682
vn 0.7949 0.2070 -0.5703
vn 0.7431 0.1945 -0.6403
vn 0.6895 0.2150 -0.6916
vn -0.2677 0.9347 -0.2339
vn 0.5759 -0.2526 -0.7775
vn 0.6440 -0.4110 -0.6453
vn 0.6134 -0.3163 -0.7237
vn 0.8510 0.0519 0.5227
vn 0.8964 -0.1730 0.4081
vn -0.6578 0.6899 0.3022
vn 0.1437 -0.1990 0.9694
vn -0.1907 0.8439 0.5015
vn -0.8853 0.4549 0.0960
vn -0.8783 0.4774 0.0261
vn -0.4944 0.6566 -0.5696
vn 0.0975 -0.9030 0.4184
vn -0.1185 -0.9646 0.2356
vn -0.9619 -0.2627 -0.0763
vn -0.9496 -0.0865 -0.3013
vn -0.9757 -0.1334 -0.1737
vn 0.8381 0.1453 -0.5258
vn -0.3349 -0.6637 -0.6688
vn 0.7564 0.6362 -0.1520
vn 0.3312 -0.8581 -0.3924
vn -0.1943 0.6838 -0.7033
vn -0.7679 -0.6232 -0.1481
vn 0.7927 0.2391 0.5607
vn -0.0116 0.6783 0.7347
vn -0.1912 -0.9508 0.2436
vn -0.2092 -0.9394 0.2717
vn -0.9528 -0.2984 -0.0564
vn -0.5870 0.6985 -0.4094
vn -0.3209 0.9457 0.0526
vn -0.8878 0.4574 -0.0505
vn -0.8458 0.5073 -0.1654
vn -0.6160 0.7531 0.2310
vn -0.4785 -0.4780 -0.7366
vn 0.0397 -0.9963 -0.0761
vn 0.6383 0.1929 -0.7453
usemtl Default_OBJ.011
s 1
f 1/1/1 2/2/2 3/3/3
f 4/4/4 5/5/5 6/6/6
f 5/5/5 4/4/4 7/7/7
f 5/5/8 7/7/8 8/8/8
f 9/9/9 10/10/10 11/11/11
f 4/12/12 12/13/13 13/14/14
f 6/6/6 14/15/15 4/4/4
f 15/16/16 6/6/6 5/5/5
f 16/17/17 7/18/18 17/19/19
f 1/1/20 18/20/21 19/21/22
f 20/22/23 21/23/24 10/10/25
f 14/15/26 18/24/27 22/25/28
f 23/26/29 24/27/30 25/28/31
f 26/29/32 27/30/33 28/31/34
f 16/17/17 29/32/35 30/33/36
f 6/6/6 15/16/16 28/31/37
f 14/15/26 22/25/28 12/34/38
f 31/35/39 27/30/40 26/29/41
f 32/36/42 33/37/42 34/38/42
f 34/38/43 12/39/44 22/40/45
f 13/41/46 34/38/43 33/37/47
f 34/38/43 13/41/46 12/39/44
f 25/28/48 24/27/49 29/42/50
f 25/43/31 3/3/51 35/44/52
f 11/11/53 21/23/54 31/45/55
f 36/46/56 27/47/40 31/48/39
f 37/49/57 30/50/58 9/9/59
f 9/51/9 8/8/60 37/52/61
f 19/21/22 2/2/62 1/1/20
f 12/34/63 4/4/4 14/15/15
f 28/31/34 19/53/64 18/24/27
f 18/20/21 34/38/65 22/40/66
f 8/8/60 15/16/16 5/5/5
f 23/54/29 35/44/52 36/46/67
f 8/55/68 7/18/18 37/56/69
f 9/51/9 15/16/16 8/8/60
f 32/36/70 34/38/71 1/1/72
f 11/11/53 10/10/73 21/23/54
f 17/19/74 13/14/74 33/57/74
f 31/35/75 26/29/75 11/58/75
f 30/50/58 29/42/50 24/27/49
f 30/50/58 24/27/49 20/22/23
f 20/22/23 10/10/25 9/9/76
f 18/20/21 1/1/20 34/38/65
f 35/44/52 23/54/29 25/43/31
f 31/48/77 23/54/29 36/46/67
f 16/17/17 38/59/78 29/32/35
f 28/31/37 15/16/16 26/29/79
f 18/24/27 14/15/26 6/6/80 28/31/34
f 16/17/17 17/19/19 32/60/81
f 32/60/81 17/19/19 33/57/82
f 38/59/78 16/17/17 32/60/70
f 32/36/70 3/3/83 38/61/78
f 27/47/84 39/62/84 40/63/84
f 40/63/85 39/62/85 36/46/85
f 39/62/86 27/47/86 36/46/86
f 40/63/87 36/46/67 35/44/52
f 20/22/23 9/9/59 30/50/58
f 24/27/49 21/23/24 20/22/23
f 7/18/18 16/17/17 30/33/36 37/56/69
f 40/63/88 2/2/62 19/21/22 27/47/88
f 27/30/33 19/53/64 28/31/34
f 15/16/16 9/51/9 11/58/11 26/29/79
f 25/43/89 29/64/89 38/61/89 3/3/89
f 7/18/90 4/12/12 13/14/14 17/19/90
f 35/44/52 3/3/3 2/2/2 40/63/87
f 1/1/72 3/3/83 32/36/70
f 21/23/54 24/27/91 23/26/91 31/45/55
