# Blender v2.93.1 OBJ File: ''
# www.blender.org
mtllib ROCK_SMALL02.mtl
o Rock_Small02_high.001
v 1.555581 -1.896296 5.527926
v -0.793320 -0.754711 5.799654
v -1.781699 -1.918703 5.873363
v 0.664626 -0.429588 5.027934
v -2.105416 -0.520672 5.393595
v -2.401027 -1.388116 3.434193
v -0.922132 3.742106 4.929686
v -1.853299 2.801433 5.144395
v 0.634980 3.460895 4.876710
v -1.805859 0.738374 4.491047
v 1.703097 -0.476233 4.275394
v 0.375113 0.783419 4.396580
v -2.714514 -0.139729 3.933238
v 0.030010 -2.332958 3.484107
v -1.896830 3.941131 3.944187
v -1.936847 -1.989141 3.262530
v -2.513580 0.721945 3.775435
v 2.311369 -0.373575 2.953889
v -2.689003 3.267069 3.823941
v 2.192798 -2.166056 3.520102
v 1.588019 2.692988 4.565912
v 1.494878 0.563300 3.796849
v 2.138481 1.524521 3.143771
v 1.249460 3.984784 4.045230
v 0.046835 3.925295 2.495407
v 2.081771 3.602013 3.392541
v -2.453292 3.553792 2.103723
v -2.954705 1.281369 1.145181
v -2.852170 0.275073 0.466032
v 2.714075 -0.564448 0.550099
v 2.335737 2.085454 0.477940
v 2.645416 1.059686 -0.060844
v 2.509461 -0.083977 0.620782
v -0.414127 -1.951766 0.087672
v -2.001738 -1.612521 1.780751
v 2.278864 -1.828682 0.566117
v 1.269817 -2.559382 2.497553
v -1.238566 4.209693 0.111876
v 0.753119 4.271761 1.589805
v 2.047443 3.909320 0.886109
v 0.913498 4.117149 0.153302
v -2.903679 3.579751 0.453439
v -2.632004 -0.584618 0.678042
v -3.216899 -1.582710 -0.613737
v -2.012624 -1.721418 0.644470
v -2.631225 1.683990 -0.824469
v -2.150094 0.976197 0.293333
v -2.721527 2.820110 -0.879185
v 1.708032 3.429006 -0.730509
v 1.655511 -0.079181 -0.380908
v -0.420831 -0.004977 -0.468267
v -1.581285 3.705884 -1.136144
v 1.821335 1.025128 -0.906496
v 2.541147 -0.370393 -1.976325
v 2.415510 -2.081014 -2.015284
v -2.925811 -1.945693 -1.779648
v -0.579351 0.690550 -1.505899
v 1.052278 -0.305472 -2.378619
v -0.898157 -0.019226 -2.207851
v 2.437748 -1.568986 -3.278924
v -1.435265 -1.364522 -3.726213
v -0.527114 -1.720508 -2.872113
v 0.781534 -1.807880 -3.744977
v -2.784944 -1.507598 -3.519575
v -2.743157 -0.105974 -3.662467
v -3.021069 0.228866 -0.901835
v 0.692620 -0.136701 -4.281371
v -0.578744 -0.077281 -3.860771
v 1.080910 -2.216791 0.395484
vt 0.253780 0.104361
vt 0.127832 0.166067
vt 0.066982 0.108607
vt 0.211902 0.197679
vt 0.059258 0.199096
vt 0.605147 0.933345
vt 0.640466 0.825796
vt 0.682743 0.954581
vt 0.397482 0.055613
vt 0.339617 0.015266
vt 0.473980 0.034481
vt 0.083261 0.280820
vt 0.282847 0.207442
vt 0.208545 0.428921
vt 0.079584 0.393247
vt 0.205518 0.276868
vt 0.574122 0.854608
vt 0.867717 0.516573
vt 0.801467 0.391976
vt 0.985394 0.401059
vt 0.352230 0.102666
vt 0.973574 0.543791
vt 0.421165 0.944415
vt 0.525707 0.855481
vt 0.527339 0.910415
vt 0.099766 0.856019
vt 0.092255 0.936141
vt 0.010785 1.000000
vt 0.390365 0.869098
vt 0.296183 0.099517
vt 0.750838 0.496935
vt 0.272527 0.950548
vt 0.153145 0.919301
vt 0.205935 0.868751
vt 0.278331 0.270380
vt 0.507655 0.083263
vt 0.456167 0.173828
vt 0.563967 0.107033
vt 0.545519 0.018282
vt 0.313074 0.201318
vt 0.476689 0.701126
vt 0.537767 0.651746
vt -0.000000 0.885519
vt 0.089330 0.723279
vt 0.237112 0.720473
vt 0.179209 0.690109
vt 0.117284 0.728026
vt 0.865097 0.704770
vt 0.968319 0.627029
vt 0.716497 0.653613
vt 0.794310 0.560095
vt 0.398114 0.311416
vt 0.500284 0.222071
vt 0.338152 0.745146
vt 0.320051 0.881042
vt 0.516120 0.298972
vt 0.338630 0.698624
vt 0.358189 0.784189
vt 0.295151 0.300746
vt 0.593140 0.668476
vt 0.641405 0.593999
vt 0.668759 0.672526
vt 0.411376 0.602942
vt 0.481953 0.629295
vt 0.296722 0.391676
vt 0.318477 0.654139
vt 0.665441 0.412414
vt 0.588220 0.414636
vt 0.610819 0.342201
vt 0.620000 0.219995
vt 0.655918 0.106373
vt 0.734571 0.112558
vt 0.382677 0.388415
vt 0.570146 0.356375
vt 0.679071 0.348973
vt 0.807280 0.372568
vt 0.104543 0.587599
vt 0.017240 0.723610
vt 0.010362 0.582360
vt 0.177676 0.528941
vt 0.229647 0.615723
vt 0.184341 0.671773
vt 0.985394 0.829069
vt 0.958078 0.688627
vt 0.677755 0.547341
vt 0.803725 0.109686
vt 0.688428 0.224589
vt 0.853948 0.188097
vt 0.258516 0.504822
vt 0.343321 0.607030
vt 0.366598 0.510989
vt 0.908132 0.318531
vt 0.949575 0.392890
vt 0.855544 0.357451
vt 0.919297 0.111383
vt 0.857337 0.156723
vt 0.810815 0.009043
vt 0.891379 0.241385
vt 0.913764 0.029861
vt 0.765861 0.903630
vt 0.845110 0.867987
vt 0.607802 0.424245
vt 0.554716 0.569003
vt 0.275839 0.400185
vt 0.346164 0.421051
vt 0.465040 0.427868
vt 0.995757 0.035338
vt 0.995756 0.162610
vt 0.992580 0.240043
vt 0.262371 0.391110
vt 0.681204 0.816314
vt 0.661998 0.734807
vt 0.580348 0.254216
vt 0.784613 0.673118
vt 0.354667 0.621316
vt 0.566337 0.081921
vt 0.485692 0.579368
vt 0.691361 0.795079
vt 0.682743 0.452874
vn 0.1031 -0.0246 0.9944
vn -0.0261 0.0852 0.9960
vn -0.0802 0.1307 0.9882
vn 0.0273 0.9017 0.4315
vn 0.3368 0.5360 0.7741
vn 0.0747 0.6750 0.7340
vn -0.9485 -0.2108 0.2364
vn -0.8959 -0.4414 0.0500
vn -0.9655 -0.1507 0.2124
vn 0.0629 0.1625 0.9847
vn 0.0986 -0.1484 0.9840
vn 0.1436 -0.1317 0.9808
vn 0.0723 0.5387 0.8394
vn 0.7314 0.3938 0.5567
vn 0.6837 0.3761 0.6253
vn 0.2242 -0.2691 0.9367
vn -0.9659 -0.0242 0.2576
vn -0.0929 -0.9939 0.0597
vn 0.0487 -0.9836 0.1738
vn -0.0679 -0.9904 0.1202
vn -0.4893 0.6235 0.6098
vn -0.5426 0.5992 0.5887
vn -0.5269 0.6067 0.5952
vn 0.2430 0.4929 0.8355
vn -0.1582 -0.9804 -0.1171
vn -0.8203 -0.1092 0.5615
vn -0.9077 0.1333 0.3978
vn -0.6887 -0.2332 0.6865
vn 0.9529 0.1014 0.2860
vn -0.9685 0.0194 0.2484
vn -0.7344 0.4361 0.5201
vn -0.5803 0.5800 0.5718
vn 0.0716 -0.9742 0.2142
vn 0.9035 -0.0856 0.4200
vn 0.7407 0.1928 0.6436
vn 0.9449 -0.0289 0.3261
vn 0.0139 0.9967 0.0805
vn 0.0956 0.9891 -0.1121
vn -0.0657 0.9900 0.1244
vn 0.6716 0.4216 0.6092
vn 0.6306 0.4266 0.6483
vn 0.6209 0.4276 0.6571
vn -0.6509 0.7583 0.0372
vn -0.9991 -0.0060 0.0408
vn -0.9854 -0.0971 0.1400
vn 0.9740 -0.0294 0.2246
vn 0.9969 0.0674 0.0402
vn 0.9727 0.2304 -0.0286
vn 0.9846 0.1562 0.0787
vn 0.9695 0.2268 0.0927
vn -0.1352 -0.9899 -0.0421
vn -0.2029 -0.9764 -0.0740
vn 0.3368 -0.9411 -0.0306
vn 0.4702 -0.8783 -0.0866
vn 0.1203 -0.9927 0.0042
vn -0.1761 0.9773 0.1176
vn 0.0684 0.9899 0.1245
vn 0.9789 0.1775 -0.1016
vn 0.9823 0.0348 0.1841
vn 0.1577 0.9290 -0.3347
vn -0.9970 0.0416 0.0647
vn -0.9795 0.1950 0.0501
vn -0.3328 0.9371 0.1056
vn -0.2017 0.9783 0.0471
vn -0.9137 -0.3076 0.2656
vn -0.9838 -0.0793 0.1607
vn -0.6859 -0.3918 0.6133
vn -0.5658 -0.7847 -0.2533
vn -0.5503 -0.7800 -0.2978
vn -0.5630 -0.7860 -0.2554
vn -0.5168 0.7888 -0.3326
vn -0.5003 0.7887 -0.3572
vn -0.3944 0.7741 -0.4952
vn 0.9446 0.2455 -0.2177
vn 0.7118 -0.2304 -0.6635
vn 0.6856 -0.4311 -0.5866
vn 0.6760 -0.4168 -0.6078
vn -0.5255 -0.7659 -0.3706
vn 0.1258 0.9075 -0.4009
vn 0.1106 0.8915 -0.4393
vn 0.2219 0.8724 -0.4356
vn 0.7111 -0.1510 -0.6867
vn 0.7119 0.0846 -0.6972
vn 0.9981 -0.0347 -0.0512
vn 0.9451 -0.3249 0.0351
vn 0.9930 -0.1163 -0.0192
vn 0.0753 0.9944 -0.0737
vn 0.0926 0.9886 -0.1185
vn 0.1312 0.9856 -0.1071
vn -0.0592 -0.9967 -0.0556
vn -0.1286 -0.9842 0.1216
vn -0.3226 -0.9236 0.2070
vn 0.0225 -0.4324 -0.9014
vn -0.3458 -0.0725 -0.9355
vn -0.2818 -0.0011 -0.9595
vn 0.0555 0.1300 -0.9900
vn -0.0446 0.0863 -0.9953
vn 0.1700 0.1322 -0.9765
vn 0.0796 0.9968 -0.0060
vn 0.0922 0.9935 -0.0668
vn 0.0793 0.9960 -0.0409
vn 0.9973 -0.0730 -0.0120
vn -0.0620 -0.9602 -0.2723
vn -0.0958 -0.9825 -0.1598
vn 0.2320 -0.9029 -0.3618
vn 0.0639 -0.9889 -0.1339
vn -0.0559 -0.9846 -0.1654
vn 0.0662 -0.9689 -0.2386
vn -0.9901 0.0414 -0.1338
vn -0.9942 0.1071 -0.0023
vn 0.0830 0.9958 0.0388
vn 0.0167 0.9994 -0.0319
vn 0.0182 0.9964 -0.0826
vn -0.1167 -0.0711 -0.9906
vn -0.2415 0.0594 -0.9686
vn -0.1296 -0.0941 -0.9871
vn -0.1407 -0.0963 -0.9854
vn -0.0059 -0.2108 -0.9775
vn 0.2971 -0.2774 -0.9136
vn 0.1308 -0.2967 -0.9460
vn -0.2418 0.2644 0.9336
vn 0.3260 0.4764 0.8166
vn 0.0475 -0.3006 0.9526
vn 0.2238 -0.2262 0.9480
vn 0.1610 0.7770 0.6086
vn -0.5972 0.5563 0.5778
vn -0.7954 -0.6052 -0.0317
vn -0.7811 -0.6213 0.0632
vn 0.5743 0.4310 0.6960
vn 0.3954 -0.3272 0.8583
vn -0.0063 0.9998 -0.0194
vn 0.2512 0.9400 -0.2310
vn -0.8187 -0.5703 -0.0672
vn 0.1765 0.9580 0.2258
vn 0.3121 0.9462 -0.0850
vn -0.8762 -0.4790 0.0543
vn 0.0489 -0.9946 -0.0913
vn -0.5839 0.4124 -0.6993
vn -0.9877 -0.0466 -0.1492
vn -0.9801 -0.0865 -0.1786
vn -0.6268 0.7670 -0.1375
vn -0.6976 0.7138 0.0620
vn 0.1712 0.7745 -0.6090
vn -0.5049 -0.7507 -0.4260
vn 0.1285 0.0784 -0.9886
vn 0.2506 -0.7860 -0.5651
vn 0.0669 0.9945 -0.0802
vn -0.9888 -0.0211 -0.1475
vn -0.9474 -0.2838 -0.1482
vn 0.7012 0.4960 -0.5121
usemtl Default_OBJ.007
s 1
f 1/1/1 2/2/2 3/3/3
f 2/2/4 4/4/5 5/5/6
f 5/6/7 6/7/8 3/8/9
f 7/9/10 8/10/11 9/11/12
f 4/4/5 10/12/13 5/5/6
f 11/13/14 4/4/5 1/1/15
f 9/14/12 8/15/11 12/16/16
f 13/17/17 6/7/8 5/6/7
f 14/18/18 1/19/19 3/20/20
f 7/9/21 15/21/22 8/10/23
f 10/12/13 4/4/5 12/16/24
f 16/22/25 14/18/18 3/20/20
f 8/23/26 17/24/27 10/25/28
f 18/26/29 11/27/14 1/28/15
f 8/23/26 19/29/30 17/24/27
f 5/6/31 17/24/27 13/17/17
f 15/21/22 19/30/32 8/10/23
f 14/18/18 20/31/33 1/19/19
f 21/32/34 22/33/35 23/34/36
f 4/4/5 11/13/14 22/35/35
f 7/9/37 24/36/38 25/37/39
f 26/38/40 24/36/41 21/39/42
f 19/30/43 15/21/43 27/40/43
f 19/29/30 28/41/44 17/24/27
f 13/17/17 17/24/27 28/41/44
f 22/33/35 18/26/29 23/34/36
f 29/42/45 6/7/8 13/17/17
f 18/26/29 20/43/46 30/44/47
f 31/45/48 23/34/36 32/46/49
f 32/46/49 23/34/36 33/47/50
f 34/48/51 14/18/18 35/49/52
f 36/50/53 20/31/54 37/51/55
f 30/44/47 33/47/50 18/26/29
f 38/52/56 25/37/39 39/53/57
f 40/54/58 26/55/59 31/45/48
f 41/56/60 38/52/56 39/53/57
f 42/57/61 28/41/44 27/58/62
f 42/59/63 27/40/64 38/52/56
f 43/60/65 44/61/66 45/62/67
f 28/41/68 46/63/69 47/64/70
f 38/52/71 48/65/72 42/59/73
f 49/66/74 40/54/58 31/45/48
f 32/67/75 33/68/76 50/69/77
f 51/70/78 47/71/70 46/72/69
f 52/73/79 38/52/80 49/74/81
f 32/67/75 53/75/82 49/76/83
f 30/44/47 54/77/84 33/47/50
f 30/44/47 36/78/85 55/79/86
f 54/80/87 50/81/88 33/82/89
f 56/83/90 34/48/51 45/84/91
f 44/61/92 56/85/90 45/62/91
f 53/75/93 50/69/93 51/70/93
f 46/72/94 48/86/95 57/87/96
f 52/88/97 53/75/98 57/87/96
f 52/88/97 57/87/96 48/86/95
f 50/81/88 58/89/99 51/90/100
f 58/89/99 59/91/101 51/90/100
f 60/92/102 54/93/84 55/94/86
f 61/95/103 62/96/104 56/97/90
f 60/92/105 55/94/106 63/98/107
f 61/95/103 56/97/90 64/99/108
f 63/100/107 34/48/51 62/101/104
f 65/102/109 44/61/66 66/103/110
f 67/104/111 59/91/101 58/89/99
f 68/105/112 65/106/113 59/91/101
f 67/104/111 58/89/99 54/80/87
f 63/98/107 62/96/104 61/95/103
f 65/107/114 68/108/115 61/95/116
f 64/99/117 65/107/114 61/95/116
f 67/109/118 61/95/116 68/108/115
f 67/109/118 60/92/119 63/98/120
f 63/98/120 61/95/116 67/109/118
f 2/2/2 5/5/121 3/3/3
f 1/1/15 4/4/5 2/2/122
f 12/16/16 8/15/11 10/12/123
f 12/16/16 21/110/124 9/14/12
f 9/11/125 24/36/125 7/9/125
f 5/6/31 10/25/126 17/24/27
f 4/4/5 22/35/35 12/16/24
f 20/43/46 18/26/29 1/28/15
f 16/111/127 3/8/128 6/7/8
f 24/36/41 9/11/129 21/39/42
f 21/110/124 12/16/16 22/35/130
f 25/37/39 15/21/131 7/9/37
f 21/32/34 23/34/36 26/55/59
f 22/33/35 11/27/14 18/26/29
f 27/40/64 15/21/131 25/37/39
f 37/51/55 20/31/33 14/18/18
f 26/38/132 25/37/39 24/36/38
f 16/22/25 35/49/52 14/18/18
f 28/41/44 29/42/45 13/17/17
f 6/7/8 35/112/133 16/111/127
f 26/38/134 39/53/57 25/37/39
f 6/7/8 29/42/45 43/60/65
f 40/113/135 39/53/57 26/38/134
f 43/60/65 35/112/133 6/7/8
f 38/52/56 27/40/64 25/37/39
f 26/55/59 23/34/36 31/45/48
f 33/47/50 23/34/36 18/26/29
f 35/112/133 43/60/65 45/62/136
f 35/49/52 45/84/91 34/48/51
f 30/44/47 20/43/46 36/78/85
f 27/58/62 28/41/44 19/29/30
f 34/48/51 37/51/55 14/18/18
f 69/114/137 36/50/53 37/51/55
f 34/48/51 69/114/137 37/51/55
f 40/113/135 41/56/60 39/53/57
f 28/41/138 47/64/138 29/42/138
f 49/74/81 41/56/60 40/113/135
f 42/57/61 48/115/139 28/41/44
f 43/60/65 29/42/45 44/61/66
f 28/41/44 48/115/139 46/63/140
f 38/52/71 52/73/141 48/65/72
f 66/103/110 44/61/66 29/42/45
f 49/66/74 31/45/48 32/46/49
f 50/69/77 53/75/82 32/67/75
f 29/42/142 47/64/142 66/103/142
f 49/74/81 38/52/80 41/56/60
f 51/70/143 66/116/143 47/71/143
f 51/70/78 46/72/69 57/87/144
f 54/77/84 30/44/47 55/79/86
f 53/75/98 52/88/97 49/76/145
f 57/87/146 53/75/146 51/70/146
f 59/91/101 66/117/147 51/90/100
f 50/81/88 54/80/87 58/89/99
f 55/118/106 36/50/53 69/114/137
f 34/48/51 63/100/107 69/114/137
f 56/83/90 62/101/104 34/48/51
f 63/100/107 55/118/106 69/114/137
f 59/91/101 65/106/113 66/117/147
f 65/102/109 64/119/148 44/61/66
f 67/104/111 68/105/112 59/91/101
f 44/61/66 64/119/148 56/85/149
f 54/93/150 60/92/150 67/109/150
