# Blender v2.93.1 OBJ File: ''
# www.blender.org
mtllib ROCK_SMALL04.mtl
o ROCK_SMALL04_Rock_Small04_high.001
v -2.098467 0.196265 0.566689
v -1.355181 1.220633 0.209114
v -1.918668 -0.589349 -2.115847
v -0.972886 -1.624728 2.598900
v 0.736274 -0.645214 1.633324
v -0.069009 -0.214522 2.407895
v -0.048549 -1.541706 1.577537
v 0.991495 -1.414259 1.610359
v 2.066295 -0.625997 -0.416339
v 2.302346 -0.371308 -0.774061
v 1.958992 1.230642 -0.878597
v -2.038778 -1.576725 2.766770
v -1.837178 -1.584940 1.209872
v -1.071455 -0.536676 2.836828
v 0.711213 0.512278 1.452260
v -1.387260 -1.797997 -1.156194
v -0.883516 -1.469826 0.618090
v -1.640543 0.778354 1.466442
v -1.015742 1.363400 0.606975
v 1.303042 -0.576196 -1.169614
v 1.520794 0.220337 -1.856246
v -2.243166 -0.370409 2.201714
v 0.031072 1.336798 -2.843165
v 0.379683 -0.132585 -2.914891
v -0.636720 -0.770894 -2.822035
v 1.247073 2.272463 -0.060342
v -0.124157 2.512675 -0.720842
v 0.426996 1.428315 1.046299
v -0.498980 -2.039620 -2.096931
v 0.478292 -2.138257 -1.101275
v 0.720635 2.445557 -1.955708
v -1.779068 -1.440540 0.029674
v -1.742411 -1.224526 0.804778
v -2.217330 -0.261104 1.072653
v -1.265484 0.757604 -2.292554
v -0.228720 2.173001 -1.958366
v 1.669643 -2.182017 -0.204559
v -1.560732 -1.538358 -1.723707
v -0.311978 2.100068 -1.155499
v -0.874522 1.884756 -0.716277
vt 0.676122 0.710236
vt 0.611082 0.615127
vt 0.818556 0.557194
vt 0.125096 0.047889
vt 0.311979 0.136352
vt 0.218448 0.186961
vt 0.248080 0.035576
vt 0.340237 0.057984
vt 0.540561 0.728514
vt 0.487471 0.709998
vt 0.463057 0.584634
vt 0.960832 0.302489
vt 0.955853 0.400103
vt 0.823663 0.353177
vt 0.119860 0.159465
vt 0.343075 0.246423
vt 0.633158 0.230408
vt 0.888414 0.201495
vt 0.791393 0.248546
vt 0.556039 0.746973
vt 0.537625 0.627191
vt 0.443597 0.798942
vt 0.373214 0.692099
vt 0.100331 0.323815
vt 0.016107 0.202712
vt 0.206103 0.676680
vt 0.291372 0.788767
vt 0.242958 0.880063
vt 0.410966 0.418366
vt 0.327838 0.524358
vt 0.305118 0.338508
vt 0.553226 0.156491
vt 0.660082 0.086499
vt 0.021042 0.068812
vt 0.475743 0.567827
vt 0.827915 0.748625
vt 0.776051 0.808938
vt 0.672809 0.784876
vt 0.691969 0.992587
vt 0.621017 0.879612
vt 0.779360 0.863402
vt 0.341494 0.983549
vt 0.898777 0.444914
vt 0.752942 0.465231
vt 0.265605 0.527294
vt 0.639010 0.376774
vt 0.520133 0.435329
vt 0.577098 0.301319
vt 0.603355 0.873549
vt 0.477331 0.943848
vt 0.536939 0.182677
vt 0.536939 0.025567
vt 0.184996 0.403673
vt 0.725767 0.327989
vt 0.921867 0.110613
vt 0.766135 0.000000
vt 0.777054 0.340571
vt 0.523641 0.366249
vt 0.565733 0.267641
vt 0.709784 0.318808
vt 0.901912 0.598733
vt 0.588324 0.439115
vt 0.602230 0.513935
vt 1.000000 0.538221
vn -0.9425 0.3276 -0.0658
vn -0.7707 0.6265 0.1161
vn -0.8539 -0.0584 -0.5171
vn 0.2676 -0.7550 0.5987
vn 0.5211 -0.0102 0.8534
vn 0.4122 0.2458 0.8773
vn 0.1879 -0.8943 0.4060
vn 0.4731 -0.3885 0.7908
vn 0.9607 -0.2667 0.0767
vn 0.9386 -0.3357 -0.0800
vn 0.9434 0.3265 -0.0591
vn -0.5666 -0.5434 0.6194
vn -0.5556 -0.7794 -0.2895
vn 0.0307 0.2725 0.9617
vn 0.6783 0.3075 0.6673
vn -0.4854 -0.8743 0.0070
vn -0.2370 -0.9657 0.1065
vn -0.5253 0.7472 0.4072
vn -0.4523 0.8139 0.3647
vn 0.6033 -0.5337 -0.5926
vn 0.7352 -0.1493 -0.6612
vn -0.8431 0.3074 0.4412
vn 0.0242 0.3733 -0.9274
vn 0.4146 -0.1750 -0.8930
vn -0.2142 -0.2674 -0.9395
vn 0.5327 0.7523 0.3875
vn -0.3290 0.9375 0.1130
vn 0.1603 0.6940 0.7019
vn -0.0224 -0.8380 -0.5453
vn 0.2817 -0.9124 -0.2970
vn 0.3457 0.7873 -0.5106
vn -0.6988 -0.7061 0.1147
vn -0.7150 -0.6640 -0.2187
vn -0.9953 0.0586 -0.0767
vn -0.7259 0.3876 -0.5682
vn -0.4775 0.7652 -0.4318
vn 0.6334 -0.7686 -0.0897
vn -0.7003 -0.6028 -0.3825
vn -0.6402 0.7600 -0.1119
vn -0.7316 0.6808 -0.0346
usemtl Default_OBJ.011
s 1
f 1/1/1 2/2/2 3/3/3
f 4/4/4 5/5/5 6/6/6
f 5/5/5 4/4/4 7/7/7
f 5/5/5 7/7/7 8/8/8
f 9/9/9 10/10/10 11/11/11
f 4/12/4 12/13/12 13/14/13
f 6/6/6 14/15/14 4/4/4
f 15/16/15 6/6/6 5/5/5
f 16/17/16 7/18/7 17/19/17
f 1/1/1 18/20/18 19/21/19
f 20/22/20 21/23/21 10/10/10
f 14/15/14 18/24/18 22/25/22
f 23/26/23 24/27/24 25/28/25
f 26/29/26 27/30/27 28/31/28
f 16/17/16 29/32/29 30/33/30
f 6/6/6 15/16/15 28/31/28
f 14/15/14 22/25/22 12/34/12
f 31/35/31 27/30/27 26/29/26
f 32/36/32 33/37/33 34/38/34
f 34/38/34 12/39/12 22/40/22
f 13/41/13 34/38/34 33/37/33
f 34/38/34 13/41/13 12/39/12
f 25/28/25 24/27/24 29/42/29
f 25/43/25 3/3/3 35/44/35
f 11/11/11 21/23/21 31/45/31
f 36/46/36 27/47/27 31/48/31
f 37/49/37 30/50/30 9/9/9
f 9/51/9 8/8/8 37/52/37
f 19/21/19 2/2/2 1/1/1
f 12/34/12 4/4/4 14/15/14
f 28/31/28 19/53/19 18/24/18
f 18/20/18 34/38/34 22/40/22
f 8/8/8 15/16/15 5/5/5
f 23/54/23 35/44/35 36/46/36
f 8/55/8 7/18/7 37/56/37
f 9/51/9 15/16/15 8/8/8
f 32/36/32 34/38/34 1/1/1
f 11/11/11 10/10/10 21/23/21
f 17/19/17 13/14/13 33/57/33
f 31/35/31 26/29/26 11/58/11
f 30/50/30 29/42/29 24/27/24
f 30/50/30 24/27/24 20/22/20
f 20/22/20 10/10/10 9/9/9
f 18/20/18 1/1/1 34/38/34
f 35/44/35 23/54/23 25/43/25
f 31/48/31 23/54/23 36/46/36
f 16/17/16 38/59/38 29/32/29
f 28/31/28 15/16/15 26/29/26
f 18/24/18 14/15/14 6/6/6 28/31/28
f 16/17/16 17/19/17 32/60/32
f 32/60/32 17/19/17 33/57/33
f 38/59/38 16/17/16 32/60/32
f 32/36/32 3/3/3 38/61/38
f 27/47/27 39/62/39 40/63/40
f 40/63/40 39/62/39 36/46/36
f 39/62/39 27/47/27 36/46/36
f 40/63/40 36/46/36 35/44/35
f 20/22/20 9/9/9 30/50/30
f 24/27/24 21/23/21 20/22/20
f 7/18/7 16/17/16 30/33/30 37/56/37
f 40/63/40 2/2/2 19/21/19 27/47/27
f 27/30/27 19/53/19 28/31/28
f 15/16/15 9/51/9 11/58/11 26/29/26
f 25/43/25 29/64/29 38/61/38 3/3/3
f 7/18/7 4/12/4 13/14/13 17/19/17
f 35/44/35 3/3/3 2/2/2 40/63/40
f 1/1/1 3/3/3 32/36/32
f 21/23/21 24/27/24 23/26/23 31/45/31
